<?xml version="1.0" standalone="no"?>
<!DOCTYPE svg PUBLIC "-//W3C//DTD SVG 20010904//EN"
 "http://www.w3.org/TR/2001/REC-SVG-20010904/DTD/svg10.dtd">
<svg version="1.0" xmlns="http://www.w3.org/2000/svg"
 width="384.000000pt" height="384.000000pt" viewBox="0 0 384.000000 384.000000"
 preserveAspectRatio="xMidYMid meet">
<metadata>
Created by potrace 1.11, written by Peter Selinger 2001-2013
</metadata>
<g transform="translate(0.000000,384.000000) scale(0.100000,-0.100000)"
fill="#000000" stroke="none">
<path d="M557 3552 c-15 -2 -34 -13 -42 -25 -8 -12 -63 -220 -124 -462 -60
-242 -112 -447 -116 -456 -11 -28 14 -141 46 -206 21 -43 50 -81 99 -126 l70
-65 0 -936 0 -937 25 -24 24 -25 1376 0 1376 0 24 25 25 24 0 937 0 936 68 63
c79 73 117 138 137 232 l15 68 -116 468 c-72 287 -123 476 -134 490 l-18 22
-1354 0 c-744 0 -1365 -1 -1381 -3z"/>
</g>
</svg>
