<?xml version="1.0" encoding="UTF-8" standalone="no"?>
<!DOCTYPE svg PUBLIC "-//W3C//DTD SVG 1.1//EN" "http://www.w3.org/Graphics/SVG/1.1/DTD/svg11.dtd">
<svg width="100%" height="100%" viewBox="0 0 716 259" version="1.1" xmlns="http://www.w3.org/2000/svg" xmlns:xlink="http://www.w3.org/1999/xlink" xml:space="preserve" style="fill-rule:evenodd;clip-rule:evenodd;stroke-linejoin:round;stroke-miterlimit:1.41421;">
    <g transform="matrix(0.944326,0,0,1,0,-119.84)">
        <path d="M758.07,184.45C758.07,148.791 727.413,119.84 689.651,119.84L68.419,119.84C30.658,119.84 0,148.791 0,184.45L0,313.67C0,349.329 30.658,378.28 68.419,378.28L689.651,378.28C727.413,378.28 758.07,349.329 758.07,313.67L758.07,184.45Z" style="fill:white;"/>
    </g>
    <g transform="matrix(1,0,0,1,-42.0673,-113.476)">
        <g transform="matrix(4.15394,0,0,3.50651,75.3542,158.363)">
            <path d="M19.912,42.315C19.256,35.44 19.493,28.148 20.696,20.686C19.897,15.65 19.558,10.7 19.615,5.897C18.244,6.408 17.476,7.628 17.479,9.386C17.484,14.262 17.48,19.136 17.48,24.01C17.48,28.956 17.485,33.901 17.477,38.844C17.474,40.678 18.509,41.898 19.912,42.315Z" style="fill:rgb(84,183,217);fill-rule:nonzero;"/>
        </g>
        <g transform="matrix(4.15394,0,0,3.50651,75.3542,158.363)">
            <path d="M138.821,20.288C138.828,18.694 138.666,17.121 138.294,15.574C137.213,11.075 134.551,8.147 130.462,6.642C130.338,9.146 130.097,11.684 129.748,14.245C130.627,15.144 131.207,16.328 131.452,17.779C131.555,18.396 131.602,19.029 131.612,19.653C131.635,21.124 131.62,22.593 131.62,24.062C131.62,25.532 131.612,27.001 131.623,28.47C131.631,29.481 131.481,30.466 131.19,31.431C131.002,32.055 130.716,32.598 130.383,33.102C130.584,35.917 130.646,38.693 130.572,41.417C132.247,40.792 133.776,39.905 135.048,38.586C137.416,36.129 138.47,33.119 138.715,29.801C138.855,27.897 138.834,24.067 138.821,24.067C138.821,22.808 138.816,21.546 138.821,20.288Z" style="fill:rgb(199,211,31);fill-rule:nonzero;"/>
        </g>
        <g transform="matrix(4.15394,0,0,3.50651,75.3542,158.363)">
            <path d="M19.912,42.315C20.735,42.56 21.683,42.529 22.623,42.181C24.071,41.646 24.677,40.419 24.679,38.913C24.679,38.174 24.679,37.436 24.679,36.697C22.859,31.335 21.534,25.968 20.696,20.685C19.493,28.148 19.256,35.44 19.912,42.315Z" style="fill:rgb(78,166,211);fill-rule:nonzero;"/>
        </g>
        <g transform="matrix(4.15394,0,0,3.50651,75.3542,158.363)">
            <path d="M129.748,14.245C130.097,11.684 130.338,9.146 130.462,6.642C129.966,6.459 129.458,6.288 128.919,6.147C127.445,5.766 125.934,5.653 124.414,5.635C124.335,5.634 124.257,5.637 124.179,5.637C125.057,7.927 125.841,10.221 126.535,12.514C127.852,12.827 128.932,13.41 129.748,14.245Z" style="fill:rgb(178,198,48);fill-rule:nonzero;"/>
        </g>
        <g transform="matrix(4.15394,0,0,3.50651,75.3542,158.363)">
            <path d="M130.383,33.102C129.794,33.994 129.002,34.711 127.956,35.173C126.708,35.722 125.428,35.97 124.143,35.966C123.819,36.81 123.486,37.654 123.137,38.497C122.607,39.777 122.049,41.034 121.475,42.275C121.955,42.33 122.383,42.367 122.896,42.407C125.338,42.595 127.751,42.386 130.078,41.609C130.247,41.552 130.406,41.479 130.572,41.417C130.646,38.692 130.584,35.917 130.383,33.102Z" style="fill:rgb(178,198,48);fill-rule:nonzero;"/>
        </g>
        <g transform="matrix(4.15394,0,0,3.50651,75.3542,158.363)">
            <path d="M20.696,20.686C21.429,16.146 22.515,11.544 23.97,6.938C23.343,6.109 22.349,5.608 21.126,5.628C20.562,5.638 20.058,5.732 19.615,5.897C19.558,10.7 19.897,15.65 20.696,20.686Z" style="fill:rgb(55,149,199);fill-rule:nonzero;"/>
        </g>
        <g transform="matrix(4.15394,0,0,3.50651,75.3542,158.363)">
            <path d="M24.679,36.698C24.684,27.523 24.679,18.347 24.687,9.174C24.687,8.293 24.421,7.533 23.97,6.938C22.515,11.544 21.428,16.146 20.696,20.686C21.534,25.968 22.859,31.335 24.679,36.698Z" style="fill:rgb(38,135,193);fill-rule:nonzero;"/>
        </g>
        <g transform="matrix(4.15394,0,0,3.50651,75.3542,158.363)">
            <path d="M34.422,20.971C34.422,21.988 34.422,23.006 34.422,24.023C34.565,23.489 34.697,22.959 34.847,22.422C34.698,21.935 34.566,21.455 34.422,20.971Z" style="fill:rgb(38,135,193);fill-rule:nonzero;"/>
        </g>
        <g transform="matrix(4.15394,0,0,3.50651,75.3542,158.363)">
            <path d="M124.143,35.966C123.044,35.963 121.942,35.777 120.853,35.41C118.551,34.635 117.193,32.914 116.759,30.515C116.627,29.786 116.566,29.035 116.56,28.293C116.538,25.471 116.528,22.649 116.565,19.827C116.577,18.95 116.683,18.059 116.871,17.201C117.481,14.416 119.611,12.805 122.304,12.379C123.674,12.164 125.048,12.172 126.407,12.476C126.451,12.486 126.49,12.502 126.534,12.513C125.84,10.221 125.056,7.926 124.178,5.636C121.261,5.625 118.455,6.078 115.834,7.488C113.13,8.942 111.35,11.163 110.334,14.009C109.616,16.023 109.334,18.123 109.347,20.263C109.362,22.83 109.355,25.36 109.348,27.965C109.343,29.749 109.572,31.501 110.061,33.214C111.078,36.776 113.216,39.396 116.615,40.948C117.743,41.465 118.891,41.895 120.123,42.089C120.668,42.175 121.087,42.231 121.474,42.275C122.048,41.034 122.605,39.777 123.136,38.497C123.486,37.654 123.819,36.81 124.143,35.966Z" style="fill:rgb(160,197,63);fill-rule:nonzero;"/>
        </g>
        <g transform="matrix(4.15394,0,0,3.50651,75.3542,158.363)">
            <path d="M100.375,22.044C100.564,22.58 100.743,23.113 100.925,23.648C100.926,22.608 100.923,21.568 100.924,20.528C100.741,21.033 100.563,21.538 100.375,22.044Z" style="fill:rgb(160,197,63);fill-rule:nonzero;"/>
        </g>
        <g transform="matrix(4.15394,0,0,3.50651,75.3542,158.363)">
            <path d="M38.979,39.906C39.933,40.613 40.969,41.144 42.058,41.534C41.401,40.071 40.755,38.596 40.133,37.093C38.086,32.15 36.326,27.237 34.846,22.421C34.696,22.958 34.564,23.488 34.421,24.022C34.421,25.596 34.422,27.171 34.421,28.745C34.419,30.55 34.662,32.321 35.117,34.066C35.741,36.456 37.016,38.452 38.979,39.906Z" style="fill:rgb(34,113,141);fill-rule:nonzero;"/>
        </g>
        <g transform="matrix(4.15394,0,0,3.50651,75.3542,158.363)">
            <path d="M100.375,22.044C100.563,21.538 100.741,21.033 100.924,20.528C100.924,20.031 100.923,19.534 100.924,19.037C100.926,17.01 100.624,15.032 99.934,13.135C99.106,10.862 97.737,8.977 95.626,7.714C95.174,7.443 94.712,7.21 94.242,6.998C95.227,9.118 96.181,11.283 97.097,13.496C98.282,16.353 99.374,19.208 100.375,22.044Z" style="fill:rgb(129,175,81);fill-rule:nonzero;"/>
        </g>
        <g transform="matrix(4.15394,0,0,3.50651,75.3542,158.363)">
            <path d="M98.159,27.683C96.77,31.035 95.293,34.287 93.752,37.436C93.751,37.964 93.753,38.492 93.752,39.02C93.751,39.699 93.929,40.298 94.277,40.871C94.935,41.951 95.94,42.384 97.145,42.461C99.623,42.62 100.935,40.679 100.931,39.058C100.917,33.921 100.922,28.784 100.925,23.647C100.743,23.113 100.564,22.579 100.375,22.043C99.676,23.916 98.94,25.797 98.159,27.683Z" style="fill:rgb(129,175,81);fill-rule:nonzero;"/>
        </g>
        <g transform="matrix(4.15394,0,0,3.50651,75.3542,158.363)">
            <path d="M40.303,6.329C39.608,5.778 38.715,5.579 37.685,5.651C35.732,5.791 34.42,7.2 34.422,9.144C34.424,13.086 34.422,17.029 34.422,20.971C34.566,21.455 34.698,21.935 34.847,22.422C36.319,17.146 38.15,11.75 40.303,6.329Z" style="fill:rgb(34,113,141);fill-rule:nonzero;"/>
        </g>
        <g transform="matrix(4.15394,0,0,3.50651,75.3542,158.363)">
            <path d="M100.375,22.044C99.374,19.208 98.282,16.353 97.098,13.495C96.181,11.282 95.227,9.117 94.243,6.997C92.461,6.192 90.559,5.786 88.577,5.679C85.391,5.504 82.24,5.756 79.137,6.525C78.62,6.653 78.103,6.782 77.589,6.919C76.196,10.512 74.727,14.184 73.182,17.914C73.039,18.258 72.897,18.596 72.754,18.938C72.754,20.154 72.755,21.371 72.755,22.587C72.936,23.02 73.117,23.447 73.297,23.883C75.609,29.465 77.754,34.916 79.718,40.162C79.849,39.79 79.926,39.408 79.925,39.036C79.903,30.702 79.926,13.759 79.909,13.62C79.87,13.297 80.041,13.16 80.326,13.089C83.059,12.401 85.82,12 88.638,12.382C91.129,12.721 92.904,14.307 93.465,16.714C93.645,17.48 93.749,18.282 93.752,19.068C93.771,25.19 93.762,31.313 93.753,37.436C95.295,34.287 96.772,31.035 98.16,27.683C98.94,25.797 99.676,23.916 100.375,22.044Z" style="fill:rgb(95,144,95);fill-rule:nonzero;"/>
        </g>
        <g transform="matrix(4.15394,0,0,3.50651,75.3542,158.363)">
            <path d="M40.134,37.093C40.756,38.596 41.402,40.071 42.059,41.534C42.568,41.717 43.09,41.865 43.621,41.987C44.313,39.899 45.041,37.758 45.812,35.561C43.848,34.999 42.432,33.664 41.93,31.464C41.75,30.675 41.64,29.852 41.638,29.046C41.617,22.395 41.638,15.745 41.617,9.093C41.615,8.576 41.475,8.023 41.253,7.553C41.004,7.028 40.681,6.628 40.303,6.328C38.15,11.749 36.32,17.145 34.847,22.42C36.327,27.237 38.086,32.15 40.134,37.093Z" style="fill:rgb(26,89,93);fill-rule:nonzero;"/>
        </g>
        <g transform="matrix(4.15394,0,0,3.50651,75.3542,158.363)">
            <path d="M45.747,42.33C49.158,42.645 52.555,42.454 55.889,41.627C57.104,41.326 58.313,40.984 59.491,40.569C58.165,37.535 56.839,34.424 55.521,31.245C55.489,31.169 55.46,31.095 55.429,31.019C55.43,33.15 55.432,34.517 55.436,34.557C55.464,34.839 55.335,34.99 55.065,35.047C54.678,35.128 54.293,35.224 53.905,35.305C51.614,35.781 49.308,36.099 46.962,35.804C46.559,35.753 46.181,35.666 45.814,35.561C45.043,37.759 44.315,39.899 43.623,41.987C44.316,42.147 45.026,42.264 45.747,42.33Z" style="fill:rgb(38,97,99);fill-rule:nonzero;"/>
        </g>
        <g transform="matrix(4.15394,0,0,3.50651,75.3542,158.363)">
            <path d="M77.589,6.918C76.688,7.157 75.797,7.431 74.945,7.838C74.053,8.268 73.415,8.923 73.094,9.833C72.897,10.393 72.773,11.008 72.77,11.6C72.756,14.045 72.753,16.49 72.753,18.936C72.896,18.594 73.039,18.256 73.181,17.912C74.727,14.183 76.196,10.511 77.589,6.918Z" style="fill:rgb(71,124,95);fill-rule:nonzero;"/>
        </g>
        <g transform="matrix(4.15394,0,0,3.50651,75.3542,158.363)">
            <path d="M72.755,22.585C72.756,23.451 72.756,24.317 72.756,25.184C72.754,25.184 72.751,25.184 72.748,25.184C72.748,29.801 72.754,34.422 72.744,39.043C72.743,39.724 72.932,40.322 73.286,40.892C73.934,41.939 74.911,42.373 76.093,42.458C78.023,42.6 79.261,41.459 79.719,40.16C77.754,34.913 75.61,29.462 73.298,23.881C73.117,23.446 72.936,23.018 72.755,22.585Z" style="fill:rgb(71,124,95);fill-rule:nonzero;"/>
        </g>
        <g transform="matrix(4.15394,0,0,3.50651,75.3542,158.363)">
            <path d="M55.429,9.074C55.429,9.522 55.429,10 55.429,10.493C56.056,8.979 56.686,7.487 57.316,6.005C56.17,6.559 55.428,7.697 55.429,9.074Z" style="fill:rgb(38,97,99);fill-rule:nonzero;"/>
        </g>
        <g transform="matrix(4.15394,0,0,3.50651,75.3542,158.363)">
            <path d="M59.49,40.569C59.668,40.507 59.852,40.458 60.029,40.39C61.845,39.692 62.637,38.244 62.635,36.322C62.629,31.843 62.633,27.362 62.633,22.883C62.636,22.883 62.638,22.883 62.64,22.883C62.64,18.286 62.638,13.689 62.642,9.091C62.643,8.494 62.503,7.941 62.214,7.42C61.424,6.002 60.172,5.533 58.621,5.655C58.147,5.693 57.708,5.815 57.316,6.005C56.686,7.487 56.056,8.98 55.429,10.493C55.43,16.622 55.426,25.966 55.428,31.02C55.459,31.096 55.489,31.17 55.52,31.246C56.838,34.425 58.164,37.535 59.49,40.569Z" style="fill:rgb(40,101,96);fill-rule:nonzero;"/>
        </g>
    </g>
</svg>
