<?xml version="1.0" encoding="UTF-8" standalone="no"?>
<!DOCTYPE svg PUBLIC "-//W3C//DTD SVG 1.1//EN" "http://www.w3.org/Graphics/SVG/1.1/DTD/svg11.dtd">
<svg width="100%" height="100%" viewBox="0 0 913 209" version="1.1" xmlns="http://www.w3.org/2000/svg" xmlns:xlink="http://www.w3.org/1999/xlink" xml:space="preserve" style="fill-rule:evenodd;clip-rule:evenodd;stroke-miterlimit:1.41421;">
    <g transform="matrix(4.16667,0,0,4.16667,0,0)">
        <path d="M0.81,40.815L2.349,40.815L4.557,47.152L4.557,40.815L5.457,40.815L5.457,48.041L3.928,48.041L1.719,41.705L1.719,48.041L0.81,48.041L0.81,40.815Z" style="fill:rgb(35,31,32);fill-rule:nonzero;"/>
        <path d="M9.108,40.905L9.928,40.905L9.928,41.885L9.108,41.885L9.108,40.905ZM7.529,40.905L8.349,40.905L8.349,41.885L7.529,41.885L7.529,40.905ZM6.98,46.622L6.98,43.004L7.919,43.004L7.919,46.282C7.919,46.902 7.969,47.502 8.648,47.502C9.248,47.502 9.538,47.042 9.538,46.152L9.538,43.004L10.478,43.004L10.478,47.062C10.478,47.342 10.487,47.672 10.517,48.041L9.568,48.041L9.558,47.422C9.278,47.892 8.868,48.142 8.318,48.142C7.419,48.142 6.98,47.622 6.98,46.622Z" style="fill:rgb(35,31,32);fill-rule:nonzero;"/>
        <path d="M11.839,43.914C11.839,43.674 11.829,43.374 11.799,43.004L12.709,43.004L12.739,43.694C12.999,43.164 13.419,42.904 14.008,42.904L14.088,42.904L14.088,43.774C14.038,43.764 13.948,43.754 13.908,43.754C13.158,43.754 12.779,44.224 12.779,45.033L12.779,48.041L11.839,48.041L11.839,43.914Z" style="fill:rgb(35,31,32);fill-rule:nonzero;"/>
        <path d="M14.929,43.984C14.929,43.604 14.919,43.274 14.889,43.004L15.838,43.004L15.838,43.654C16.118,43.134 16.538,42.904 17.117,42.904C17.997,42.904 18.437,43.414 18.437,44.463L18.437,48.041L17.497,48.041L17.497,44.763C17.497,44.124 17.467,43.564 16.777,43.564C16.138,43.564 15.868,44.213 15.868,44.853L15.868,48.041L14.929,48.041L14.929,43.984Z" style="fill:rgb(35,31,32);fill-rule:nonzero;"/>
        <path d="M22.437,45.423C22.437,44.644 22.447,43.554 21.628,43.554C20.748,43.554 20.718,44.713 20.718,45.533C20.718,46.353 20.708,47.502 21.608,47.502C22.387,47.502 22.437,46.353 22.437,45.423ZM20.688,47.452L20.668,48.041L19.759,48.041C19.789,47.582 19.799,47.262 19.799,47.082L19.799,40.815L20.738,40.815L20.738,43.564C21.038,43.114 21.448,42.904 21.967,42.904C23.387,42.904 23.387,44.284 23.387,45.463C23.387,46.742 23.257,48.142 21.878,48.142C21.338,48.142 20.938,47.901 20.688,47.452Z" style="fill:rgb(35,31,32);fill-rule:nonzero;"/>
        <path d="M25.308,45.053L26.947,45.053C26.987,44.304 26.877,43.554 26.177,43.554C25.428,43.554 25.318,44.204 25.308,45.053ZM24.369,45.663C24.369,44.164 24.559,42.904 26.208,42.904C27.767,42.904 27.926,44.104 27.887,45.643L25.308,45.643C25.308,46.882 25.388,47.512 26.148,47.512C26.677,47.512 26.947,47.152 26.957,46.442L27.847,46.562C27.757,47.642 27.277,48.142 26.148,48.142C24.568,48.142 24.369,47.142 24.369,45.663Z" style="fill:rgb(35,31,32);fill-rule:nonzero;"/>
        <path d="M29.029,43.914C29.029,43.674 29.019,43.374 28.989,43.004L29.898,43.004L29.928,43.694C30.188,43.164 30.608,42.904 31.197,42.904L31.277,42.904L31.277,43.774C31.228,43.764 31.137,43.754 31.098,43.754C30.348,43.754 29.968,44.224 29.968,45.033L29.968,48.041L29.029,48.041L29.029,43.914Z" style="fill:rgb(35,31,32);fill-rule:nonzero;"/>
        <path d="M34.507,45.483C34.507,44.624 34.427,43.554 33.638,43.554C32.818,43.554 32.788,44.743 32.788,45.603C32.788,46.342 32.838,47.372 33.618,47.372C34.487,47.372 34.507,46.282 34.507,45.483ZM31.959,48.691L32.948,48.541C32.948,49.131 33.218,49.421 33.657,49.421C34.387,49.421 34.507,48.881 34.507,48.182L34.507,47.372C34.217,47.782 33.817,47.981 33.318,47.981C32.008,47.981 31.849,46.842 31.849,45.603C31.849,44.313 31.948,42.904 33.328,42.904C33.907,42.904 34.337,43.144 34.547,43.614C34.547,43.534 34.567,43.094 34.577,43.004L35.477,43.004C35.457,43.164 35.437,43.614 35.437,43.744L35.437,48.391C35.437,49.591 34.747,50 33.578,50C32.608,50 32.019,49.661 31.959,48.691Z" style="fill:rgb(35,31,32);fill-rule:nonzero;"/>
        <path d="M36.967,47.012L37.917,47.012L37.277,49.051L36.588,49.051L36.967,47.012Z" style="fill:rgb(35,31,32);fill-rule:nonzero;"/>
        <path d="M41.438,47.212L43.746,43.734C44.026,43.314 44.166,42.875 44.166,42.415C44.166,41.825 43.886,41.525 43.347,41.525C42.767,41.525 42.467,41.925 42.467,42.714L41.507,42.584C41.487,41.455 42.127,40.815 43.377,40.815C44.556,40.815 45.146,41.365 45.146,42.464C45.146,43.074 44.856,43.794 44.286,44.644L42.457,47.312L45.155,47.312L45.155,48.041L41.438,48.041L41.438,47.212Z" style="fill:rgb(35,31,32);fill-rule:nonzero;"/>
        <path d="M48.886,42.794C48.876,42.075 48.786,41.555 48.066,41.515C47.506,41.515 47.217,41.935 47.217,42.765C47.217,43.584 47.506,43.994 48.056,43.994C48.606,43.994 48.886,43.594 48.886,42.794ZM48.936,46.093C48.936,45.183 48.666,44.713 48.056,44.703C47.457,44.703 47.167,45.163 47.167,46.083C47.167,47.002 47.457,47.462 48.046,47.462C48.636,47.462 48.936,47.012 48.936,46.093ZM46.197,46.123C46.188,45.203 46.387,44.624 47.207,44.344C46.577,44.154 46.267,43.624 46.267,42.745C46.257,41.485 46.847,40.815 48.056,40.815C49.246,40.815 49.845,41.415 49.845,42.614C49.845,43.584 49.516,44.154 48.856,44.344C49.725,44.593 49.905,45.143 49.905,46.113C49.905,47.482 49.295,48.162 48.046,48.162C46.787,48.162 46.197,47.552 46.197,46.123Z" style="fill:rgb(35,31,32);fill-rule:nonzero;"/>
        <rect x="51.177" y="47.012" width="0.899" height="1.029" style="fill:rgb(35,31,32);fill-rule:nonzero;"/>
        <rect x="53.787" y="44.963" width="4.997" height="0.64" style="fill:rgb(35,31,32);fill-rule:nonzero;"/>
        <path d="M60.177,46.402L61.127,46.252C61.127,47.052 61.416,47.442 61.996,47.442C62.606,47.442 62.916,47.012 62.916,46.152C62.885,45.023 62.586,44.703 61.536,44.693L61.516,44.693L61.516,43.974L61.536,43.974C62.486,43.974 62.836,43.694 62.856,42.665C62.856,41.905 62.586,41.515 62.046,41.515C61.496,41.515 61.216,41.885 61.216,42.625L60.277,42.484C60.267,41.285 60.946,40.815 62.076,40.815C63.285,40.815 63.835,41.365 63.835,42.595C63.835,43.604 63.475,44.164 62.775,44.313C63.675,44.514 63.885,45.133 63.895,46.083C63.895,47.462 63.275,48.151 62.026,48.151C60.767,48.151 60.217,47.632 60.177,46.402Z" style="fill:rgb(35,31,32);fill-rule:nonzero;"/>
        <path d="M66.876,41.515C66.086,41.515 65.976,42.235 65.966,44.463C65.956,47.092 66.186,47.462 66.856,47.462C67.585,47.462 67.755,46.952 67.725,44.463C67.705,42.085 67.695,41.515 66.876,41.515ZM66.856,48.162C65.196,48.162 65.017,47.122 65.017,44.463C65.017,42.025 65.157,40.815 66.886,40.815C68.705,40.815 68.705,41.935 68.685,44.463C68.675,47.162 68.515,48.162 66.856,48.162Z" style="fill:rgb(35,31,32);fill-rule:nonzero;"/>
        <rect x="69.976" y="47.012" width="0.9" height="1.029" style="fill:rgb(35,31,32);fill-rule:nonzero;"/>
        <path d="M72.616,42.065C72.326,42.345 71.926,42.634 71.366,42.954L71.366,42.015C71.926,41.705 72.356,41.345 72.715,40.945L73.625,40.945L73.625,48.041L72.616,48.041L72.616,42.065Z" style="fill:rgb(35,31,32);fill-rule:nonzero;"/>
        <path d="M76.096,42.065C75.806,42.345 75.406,42.634 74.846,42.954L74.846,42.015C75.406,41.705 75.836,41.345 76.195,40.945L77.105,40.945L77.105,48.041L76.096,48.041L76.096,42.065Z" style="fill:rgb(35,31,32);fill-rule:nonzero;"/>
        <rect x="78.756" y="47.012" width="0.899" height="1.029" style="fill:rgb(35,31,32);fill-rule:nonzero;"/>
        <path d="M80.916,47.212L83.225,43.734C83.504,43.314 83.645,42.875 83.645,42.415C83.645,41.825 83.365,41.525 82.825,41.525C82.245,41.525 81.945,41.925 81.945,42.714L80.986,42.584C80.966,41.455 81.606,40.815 82.855,40.815C84.034,40.815 84.624,41.365 84.624,42.464C84.624,43.074 84.334,43.794 83.765,44.644L81.936,47.312L84.634,47.312L84.634,48.041L80.916,48.041L80.916,47.212Z" style="fill:rgb(35,31,32);fill-rule:nonzero;"/>
        <path d="M87.555,41.515C86.765,41.515 86.655,42.235 86.645,44.463C86.635,47.092 86.865,47.462 87.535,47.462C88.264,47.462 88.434,46.952 88.404,44.463C88.384,42.085 88.375,41.515 87.555,41.515ZM87.535,48.162C85.876,48.162 85.696,47.122 85.696,44.463C85.696,42.025 85.836,40.815 87.565,40.815C89.384,40.815 89.384,41.935 89.364,44.463C89.354,47.162 89.194,48.162 87.535,48.162Z" style="fill:rgb(35,31,32);fill-rule:nonzero;"/>
        <path d="M91.475,42.065C91.185,42.345 90.785,42.634 90.226,42.954L90.226,42.015C90.785,41.705 91.215,41.345 91.575,40.945L92.484,40.945L92.484,48.041L91.475,48.041L91.475,42.065Z" style="fill:rgb(35,31,32);fill-rule:nonzero;"/>
        <path d="M96.584,41.675L93.956,41.675L93.956,40.945L97.474,40.945L97.474,41.745L95.585,48.041L94.545,48.041L96.584,41.675Z" style="fill:rgb(35,31,32);fill-rule:nonzero;"/>
        <path d="M0,14.431L3.129,14.132C3.104,15.498 3.526,16.417 4.668,16.417C5.612,16.417 6.183,15.921 6.183,14.927C6.183,13.686 5.438,13.413 3.452,12.444C1.217,11.353 0.174,10.831 0.174,8.77C0.174,6.163 2.458,5.22 4.817,5.22C7.722,5.22 9.138,6.312 9.187,8.72L6.084,9.019C6.183,7.652 5.662,6.982 4.644,6.982C3.799,6.982 3.303,7.429 3.303,8.347C3.303,9.465 4.495,9.911 6.133,10.706C8.269,11.749 9.336,12.296 9.336,14.53C9.336,17.212 7.35,18.278 4.495,18.278C1.764,18.278 -0.048,17.087 0,14.431Z" style="fill:rgb(57,156,214);fill-rule:nonzero;"/>
        <path d="M18.374,11.526C18.374,9.391 18.374,7.155 16.636,7.155C14.774,7.155 14.749,9.639 14.749,11.849C14.749,14.132 14.873,16.342 16.61,16.342C18.374,16.342 18.374,13.711 18.374,11.526ZM11.546,8.224C11.546,7.355 11.521,5.84 11.471,5.492L14.625,5.492L14.649,6.907C15.369,5.74 16.486,5.22 17.852,5.22C21.427,5.22 21.576,8.273 21.576,11.601C21.576,15.026 21.303,18.278 17.629,18.278C16.313,18.278 15.394,17.831 14.749,16.89L14.749,22.773L11.546,22.773L11.546,8.224Z" style="fill:rgb(57,156,214);fill-rule:nonzero;"/>
        <path d="M23.522,14.431L26.651,14.132C26.626,15.498 27.048,16.417 28.19,16.417C29.133,16.417 29.705,15.921 29.705,14.927C29.705,13.686 28.96,13.413 26.973,12.444C24.739,11.353 23.696,10.831 23.696,8.77C23.696,6.163 25.98,5.22 28.339,5.22C31.244,5.22 32.659,6.312 32.709,8.72L29.606,9.019C29.705,7.652 29.183,6.982 28.166,6.982C27.321,6.982 26.824,7.429 26.824,8.347C26.824,9.465 28.017,9.911 29.655,10.706C31.79,11.749 32.858,12.296 32.858,14.53C32.858,17.212 30.872,18.278 28.017,18.278C25.285,18.278 23.473,17.087 23.522,14.431Z" style="fill:rgb(57,156,214);fill-rule:nonzero;"/>
        <path d="M38.754,5.492L41.982,5.492L41.982,18.007L38.754,18.007L38.754,5.492ZM38.729,0.229L42.006,0.229L42.006,2.886L38.729,2.886L38.729,0.229Z" style="fill:rgb(122,134,142);fill-rule:nonzero;"/>
        <path d="M51.714,11.526C51.714,9.391 51.714,7.155 49.976,7.155C48.115,7.155 48.089,9.639 48.089,11.849C48.089,14.132 48.213,16.342 49.951,16.342C51.714,16.342 51.714,13.711 51.714,11.526ZM44.886,8.224C44.886,7.355 44.861,5.84 44.812,5.492L47.965,5.492L47.99,6.907C48.711,5.74 49.828,5.22 51.193,5.22C54.768,5.22 54.918,8.273 54.918,11.601C54.918,15.026 54.644,18.278 50.969,18.278C49.654,18.278 48.735,17.831 48.089,16.89L48.089,22.773L44.886,22.773L44.886,8.224Z" style="fill:rgb(122,134,142);fill-rule:nonzero;"/>
        <path d="M57.152,12.097C57.152,8.074 57.822,5.22 62.217,5.22C65.271,5.22 66.81,6.286 66.884,9.391L63.806,9.689C63.806,8.472 63.632,7.205 62.217,7.205C60.355,7.205 60.379,9.441 60.379,11.849C60.379,14.431 60.455,16.317 62.142,16.317C63.409,16.317 63.832,15.175 63.855,13.661L66.91,13.984C66.81,16.765 65.47,18.278 62.142,18.278C58.021,18.278 57.152,16.044 57.152,12.097Z" style="fill:rgb(122,134,142);fill-rule:nonzero;"/>
        <path d="M78.951,11.849C78.951,9.589 78.925,7.155 77.138,7.155C75.4,7.155 75.376,9.515 75.376,11.799C75.376,14.753 75.797,16.368 77.138,16.368C78.851,16.368 78.951,14.083 78.951,11.849ZM72.148,11.724C72.148,8.347 72.496,5.22 75.947,5.22C77.288,5.22 78.255,5.666 78.976,6.709L78.976,0.055L82.204,0.055L82.204,15.673C82.204,15.944 82.228,17.31 82.278,18.007L79.15,18.007L79.125,16.666C78.404,17.757 77.437,18.278 76.121,18.278C72.372,18.278 72.148,15.002 72.148,11.724Z" style="fill:rgb(57,156,214);fill-rule:nonzero;"/>
        <path d="M85.209,7.851C85.209,7.479 85.183,6.064 85.133,5.492L88.213,5.492L88.262,7.107C88.957,5.766 89.975,5.22 91.464,5.22L91.614,5.22L91.614,7.999C91.416,7.976 91.316,7.95 91.043,7.95C89.106,7.95 88.412,9.043 88.412,11.005L88.412,18.007L85.209,18.007L85.209,7.851Z" style="fill:rgb(57,156,214);fill-rule:nonzero;"/>
        <path d="M93.65,5.492L96.878,5.492L96.878,18.007L93.65,18.007L93.65,5.492ZM93.625,0.229L96.901,0.229L96.901,2.886L93.625,2.886L93.625,0.229Z" style="fill:rgb(57,156,214);fill-rule:nonzero;"/>
        <path d="M98.913,5.492L102.265,5.492L104.326,15.374L106.535,5.492L109.564,5.492L106.087,18.007L102.314,18.007L98.913,5.492Z" style="fill:rgb(57,156,214);fill-rule:nonzero;"/>
        <path d="M113.884,10.359L117.31,10.359C117.361,8.919 117.287,7.131 115.697,7.131C114.183,7.131 113.91,8.446 113.884,10.359ZM110.681,11.948C110.681,7.95 111.576,5.22 115.796,5.22C120.042,5.22 120.587,8.074 120.539,12.147L113.884,12.147C113.884,15.2 114.109,16.392 115.648,16.392C116.888,16.392 117.335,15.374 117.361,13.909L120.439,14.183C120.265,17.013 118.775,18.278 115.671,18.278C111.451,18.278 110.681,15.896 110.681,11.948Z" style="fill:rgb(57,156,214);fill-rule:nonzero;"/>
        <path d="M122.474,14.431L125.603,14.132C125.578,15.498 126.001,16.417 127.142,16.417C128.085,16.417 128.658,15.921 128.658,14.927C128.658,13.686 127.914,13.413 125.925,12.444C123.691,11.353 122.648,10.831 122.648,8.77C122.648,6.163 124.933,5.22 127.292,5.22C130.197,5.22 131.613,6.312 131.662,8.72L128.558,9.019C128.658,7.652 128.136,6.982 127.119,6.982C126.273,6.982 125.777,7.429 125.777,8.347C125.777,9.465 126.968,9.911 128.606,10.706C130.744,11.749 131.81,12.296 131.81,14.53C131.81,17.212 129.824,18.278 126.968,18.278C124.238,18.278 122.425,17.087 122.474,14.431Z" style="fill:rgb(57,156,214);fill-rule:nonzero;"/>
        <rect x="182.357" y="0.106" width="35.723" height="35.722" style="fill:rgb(220,221,222);fill-rule:nonzero;"/>
        <path d="M184.885,31.446C184.885,32.567 185.794,33.475 186.915,33.475L213.522,33.475C214.643,33.475 215.551,32.567 215.551,31.446L215.551,4.487C215.551,3.367 214.643,2.458 213.522,2.458L186.915,2.458C185.794,2.458 184.885,3.367 184.885,4.487L184.885,31.446Z" style="fill:none;stroke:rgb(0,116,156);stroke-width:0.97px;"/>
        <path d="M198.897,29.564L187.527,29.564C187.46,29.564 187.406,29.621 187.406,29.692L187.406,30.464C187.406,30.535 187.46,30.593 187.527,30.593L198.897,30.593C198.964,30.593 199.018,30.535 199.018,30.464L199.018,29.692C199.018,29.621 198.964,29.564 198.897,29.564Z" style="fill:rgb(0,113,153);fill-rule:nonzero;"/>
        <path d="M198.302,26.734C198.302,26.78 198.267,26.818 198.224,26.818L188.2,26.818C188.157,26.818 188.122,26.78 188.122,26.734L188.122,20.096C188.122,20.05 188.157,20.012 188.2,20.012L198.224,20.012C198.267,20.012 198.302,20.05 198.302,20.096L198.302,26.734ZM198.897,19.192L187.527,19.192C187.46,19.192 187.406,19.25 187.406,19.321L187.406,27.51C187.406,27.581 187.46,27.638 187.527,27.638L198.897,27.638C198.964,27.638 199.018,27.581 199.018,27.51L199.018,19.321C199.018,19.25 198.964,19.192 198.897,19.192Z" style="fill:rgb(0,113,153);fill-rule:nonzero;"/>
        <path d="M190.309,22.065L196.175,22.065" style="fill:rgb(0,113,153);fill-rule:nonzero;"/>
        <path d="M190.309,22.065L196.175,22.065" style="fill:none;stroke:rgb(0,113,153);stroke-width:0.5px;stroke-linecap:round;"/>
        <path d="M190.309,23.351L196.175,23.351" style="fill:rgb(0,113,153);fill-rule:nonzero;"/>
        <path d="M190.309,23.351L196.175,23.351" style="fill:none;stroke:rgb(0,113,153);stroke-width:0.5px;stroke-linecap:round;"/>
        <path d="M190.309,24.637L196.175,24.637" style="fill:rgb(0,113,153);fill-rule:nonzero;"/>
        <path d="M190.309,24.637L196.175,24.637" style="fill:none;stroke:rgb(0,113,153);stroke-width:0.5px;stroke-linecap:round;"/>
        <path d="M196.993,29.178L189.6,29.178C189.547,29.178 189.505,29.135 189.505,29.082L189.505,28.225C189.505,28.173 189.547,28.13 189.6,28.13L196.993,28.13C197.046,28.13 197.089,28.173 197.089,28.225L197.089,29.082C197.089,29.135 197.046,29.178 196.993,29.178Z" style="fill:rgb(0,113,153);fill-rule:nonzero;"/>
        <path d="M203,8.043C202.996,7.88 203.124,7.745 203.287,7.74C203.45,7.735 203.586,7.864 203.59,8.027L203.732,13.33C203.737,13.493 203.608,13.628 203.445,13.633C203.282,13.637 203.147,13.509 203.142,13.346L203,8.043Z" style="fill:rgb(0,173,230);fill-rule:nonzero;"/>
        <path d="M203,8.043C202.996,7.88 203.124,7.745 203.287,7.74C203.45,7.735 203.586,7.864 203.59,8.027L203.732,13.33C203.737,13.493 203.608,13.628 203.445,13.633C203.282,13.637 203.147,13.509 203.142,13.346L203,8.043Z" style="fill:none;stroke:rgb(0,173,230);stroke-width:0.25px;stroke-linecap:round;"/>
        <path d="M197.028,15.624C197.033,15.787 196.904,15.922 196.741,15.927C196.578,15.931 196.443,15.803 196.438,15.64L196.189,6.335C196.184,6.172 196.313,6.037 196.476,6.032C196.639,6.028 196.774,6.156 196.779,6.319L197.028,15.624Z" style="fill:rgb(0,173,230);fill-rule:nonzero;"/>
        <path d="M197.028,15.624C197.033,15.787 196.904,15.922 196.741,15.927C196.578,15.931 196.443,15.803 196.438,15.64L196.189,6.335C196.184,6.172 196.313,6.037 196.476,6.032C196.639,6.028 196.774,6.156 196.779,6.319L197.028,15.624Z" style="fill:none;stroke:rgb(0,173,230);stroke-width:0.25px;stroke-linecap:round;"/>
        <path d="M199.263,14.859C199.267,15.022 199.139,15.158 198.976,15.162C198.813,15.167 198.678,15.038 198.673,14.875L198.424,5.57C198.419,5.407 198.548,5.272 198.711,5.267C198.874,5.263 199.009,5.391 199.014,5.554L199.263,14.859Z" style="fill:rgb(0,173,230);fill-rule:nonzero;"/>
        <path d="M199.263,14.859C199.267,15.022 199.139,15.158 198.976,15.162C198.813,15.167 198.678,15.038 198.673,14.875L198.424,5.57C198.419,5.407 198.548,5.272 198.711,5.267C198.874,5.263 199.009,5.391 199.014,5.554L199.263,14.859Z" style="fill:none;stroke:rgb(0,173,230);stroke-width:0.25px;stroke-linecap:round;"/>
        <path d="M200.658,4.806C200.654,4.643 200.782,4.507 200.945,4.503C201.108,4.498 201.244,4.627 201.248,4.79L201.498,14.094C201.502,14.257 201.374,14.393 201.211,14.397C201.048,14.402 200.912,14.273 200.908,14.11L200.658,4.806Z" style="fill:rgb(0,173,230);fill-rule:nonzero;"/>
        <path d="M200.658,4.806C200.654,4.643 200.782,4.507 200.945,4.503C201.108,4.498 201.244,4.627 201.248,4.79L201.498,14.094C201.502,14.257 201.374,14.393 201.211,14.397C201.048,14.402 200.912,14.273 200.908,14.11L200.658,4.806Z" style="fill:none;stroke:rgb(0,173,230);stroke-width:0.25px;stroke-linecap:round;"/>
        <path d="M190.324,17.918C190.328,18.081 190.2,18.216 190.037,18.221C189.874,18.225 189.738,18.097 189.734,17.934L189.484,8.629C189.48,8.466 189.608,8.331 189.771,8.326C189.934,8.322 190.07,8.45 190.074,8.613L190.324,17.918Z" style="fill:rgb(0,173,230);fill-rule:nonzero;"/>
        <path d="M190.324,17.918C190.328,18.081 190.2,18.216 190.037,18.221C189.874,18.225 189.738,18.097 189.734,17.934L189.484,8.629C189.48,8.466 189.608,8.331 189.771,8.326C189.934,8.322 190.07,8.45 190.074,8.613L190.324,17.918Z" style="fill:none;stroke:rgb(0,173,230);stroke-width:0.25px;stroke-linecap:round;"/>
        <path d="M192.558,17.153C192.563,17.316 192.434,17.452 192.271,17.456C192.108,17.461 191.973,17.332 191.968,17.169L191.719,7.865C191.714,7.702 191.843,7.566 192.006,7.562C192.169,7.557 192.304,7.686 192.309,7.849L192.558,17.153Z" style="fill:rgb(0,173,230);fill-rule:nonzero;"/>
        <path d="M192.558,17.153C192.563,17.316 192.434,17.452 192.271,17.456C192.108,17.461 191.973,17.332 191.968,17.169L191.719,7.865C191.714,7.702 191.843,7.566 192.006,7.562C192.169,7.557 192.304,7.686 192.309,7.849L192.558,17.153Z" style="fill:none;stroke:rgb(0,173,230);stroke-width:0.25px;stroke-linecap:round;"/>
        <path d="M193.954,7.1C193.949,6.937 194.078,6.801 194.241,6.797C194.404,6.792 194.539,6.921 194.544,7.084L194.793,16.389C194.798,16.552 194.669,16.687 194.506,16.692C194.343,16.696 194.208,16.568 194.203,16.405L193.954,7.1Z" style="fill:rgb(0,173,230);fill-rule:nonzero;"/>
        <path d="M193.954,7.1C193.949,6.937 194.078,6.801 194.241,6.797C194.404,6.792 194.539,6.921 194.544,7.084L194.793,16.389C194.798,16.552 194.669,16.687 194.506,16.692C194.343,16.696 194.208,16.568 194.203,16.405L193.954,7.1Z" style="fill:none;stroke:rgb(0,173,230);stroke-width:0.25px;stroke-linecap:round;"/>
        <path d="M203.416,8.3C203.261,8.351 203.094,8.266 203.043,8.111C202.992,7.957 203.077,7.79 203.231,7.739L206.875,6.562C207.03,6.511 207.196,6.596 207.247,6.751C207.298,6.906 207.214,7.072 207.059,7.123L203.416,8.3Z" style="fill:rgb(0,173,230);fill-rule:nonzero;"/>
        <path d="M203.416,8.3C203.261,8.351 203.094,8.266 203.043,8.111C202.992,7.957 203.077,7.79 203.231,7.739L206.875,6.562C207.03,6.511 207.196,6.596 207.247,6.751C207.298,6.906 207.214,7.072 207.059,7.123L203.416,8.3Z" style="fill:none;stroke:rgb(0,173,230);stroke-width:0.25px;stroke-linecap:round;"/>
        <path d="M205.363,5.577L207.519,6.634" style="fill:rgb(0,173,230);fill-rule:nonzero;"/>
        <path d="M205.363,5.577L207.519,6.634" style="fill:none;stroke:rgb(0,173,230);stroke-width:0.86px;stroke-linecap:round;"/>
        <path d="M206.47,8.811L207.527,6.655" style="fill:rgb(0,173,230);fill-rule:nonzero;"/>
        <path d="M206.47,8.811L207.527,6.655" style="fill:none;stroke:rgb(0,173,230);stroke-width:0.86px;stroke-linecap:round;"/>
        <path d="M203.789,21.153C203.79,21.218 203.791,21.284 203.791,21.35C203.791,24.259 202.871,26.618 201.736,26.618C201.008,26.618 200.331,25.648 199.939,24.187L199.593,24.187C200.048,26.063 200.941,27.339 201.969,27.339C203.459,27.339 204.666,24.657 204.666,21.35C204.666,21.284 204.665,21.218 204.664,21.153L205.836,21.153L204.189,20.014L202.542,21.153L203.789,21.153Z" style="fill:rgb(0,164,213);fill-rule:nonzero;"/>
        <path d="M203.789,21.153C203.79,21.218 203.791,21.284 203.791,21.35C203.791,24.259 202.871,26.618 201.736,26.618C201.008,26.618 200.331,25.648 199.939,24.187L199.593,24.187C200.048,26.063 200.941,27.339 201.969,27.339C203.459,27.339 204.666,24.657 204.666,21.35C204.666,21.284 204.665,21.218 204.664,21.153L205.836,21.153L204.189,20.014L202.542,21.153L203.789,21.153Z" style="fill:none;stroke:rgb(0,164,213);stroke-width:0.34px;stroke-linecap:round;stroke-linejoin:round;"/>
        <path d="M199.608,18.45L199.956,18.45C200.351,17.023 201.019,16.081 201.736,16.081C202.622,16.081 203.377,17.007 203.666,19.022L204.54,19.022C204.194,16.602 203.174,15.361 201.969,15.361C200.953,15.361 200.068,16.608 199.608,18.45Z" style="fill:rgb(0,164,213);fill-rule:nonzero;"/>
        <path d="M199.608,18.45L199.956,18.45C200.351,17.023 201.019,16.081 201.736,16.081C202.622,16.081 203.377,17.007 203.666,19.022L204.54,19.022C204.194,16.602 203.174,15.361 201.969,15.361C200.953,15.361 200.068,16.608 199.608,18.45Z" style="fill:none;stroke:rgb(0,164,213);stroke-width:0.34px;stroke-linecap:round;stroke-linejoin:round;"/>
        <path d="M207.805,21.153C207.806,21.218 207.808,21.284 207.808,21.35C207.808,24.259 206.887,26.618 205.752,26.618C205.025,26.618 204.348,25.648 203.955,24.187L203.609,24.187C204.065,26.063 204.958,27.339 205.985,27.339C207.475,27.339 208.683,24.657 208.683,21.35C208.683,21.284 208.682,21.218 208.681,21.153L209.852,21.153L208.205,20.014L206.558,21.153L207.805,21.153Z" style="fill:rgb(0,164,213);fill-rule:nonzero;"/>
        <path d="M207.805,21.153C207.806,21.218 207.808,21.284 207.808,21.35C207.808,24.259 206.887,26.618 205.752,26.618C205.025,26.618 204.348,25.648 203.955,24.187L203.609,24.187C204.065,26.063 204.958,27.339 205.985,27.339C207.475,27.339 208.683,24.657 208.683,21.35C208.683,21.284 208.682,21.218 208.681,21.153L209.852,21.153L208.205,20.014L206.558,21.153L207.805,21.153Z" style="fill:none;stroke:rgb(0,164,213);stroke-width:0.34px;stroke-linecap:round;stroke-linejoin:round;"/>
        <path d="M203.625,18.45L203.972,18.45C204.367,17.023 205.035,16.081 205.752,16.081C206.639,16.081 207.394,17.007 207.682,19.022L208.557,19.022C208.21,16.602 207.19,15.361 205.985,15.361C204.969,15.361 204.085,16.608 203.625,18.45Z" style="fill:rgb(0,164,213);fill-rule:nonzero;"/>
        <path d="M203.625,18.45L203.972,18.45C204.367,17.023 205.035,16.081 205.752,16.081C206.639,16.081 207.394,17.007 207.682,19.022L208.557,19.022C208.21,16.602 207.19,15.361 205.985,15.361C204.969,15.361 204.085,16.608 203.625,18.45Z" style="fill:none;stroke:rgb(0,164,213);stroke-width:0.34px;stroke-linecap:round;stroke-linejoin:round;"/>
        <path d="M211.822,21.153C211.823,21.218 211.824,21.284 211.824,21.35C211.824,24.259 210.904,26.618 209.769,26.618C209.041,26.618 208.364,25.648 207.972,24.187L207.626,24.187C208.081,26.063 208.974,27.339 210.002,27.339C211.492,27.339 212.699,24.657 212.699,21.35C212.699,21.284 212.698,21.218 212.697,21.153L213.869,21.153L212.222,20.014L210.575,21.153L211.822,21.153Z" style="fill:rgb(0,164,213);fill-rule:nonzero;"/>
        <path d="M211.822,21.153C211.823,21.218 211.824,21.284 211.824,21.35C211.824,24.259 210.904,26.618 209.769,26.618C209.041,26.618 208.364,25.648 207.972,24.187L207.626,24.187C208.081,26.063 208.974,27.339 210.002,27.339C211.492,27.339 212.699,24.657 212.699,21.35C212.699,21.284 212.698,21.218 212.697,21.153L213.869,21.153L212.222,20.014L210.575,21.153L211.822,21.153Z" style="fill:none;stroke:rgb(0,164,213);stroke-width:0.34px;stroke-linecap:round;stroke-linejoin:round;"/>
        <path d="M207.641,18.45L207.989,18.45C208.384,17.023 209.052,16.081 209.769,16.081C210.655,16.081 211.41,17.007 211.699,19.022L212.573,19.022C212.227,16.602 211.207,15.361 210.002,15.361C208.986,15.361 208.101,16.608 207.641,18.45Z" style="fill:rgb(0,164,213);fill-rule:nonzero;"/>
        <path d="M207.641,18.45L207.989,18.45C208.384,17.023 209.052,16.081 209.769,16.081C210.655,16.081 211.41,17.007 211.699,19.022L212.573,19.022C212.227,16.602 211.207,15.361 210.002,15.361C208.986,15.361 208.101,16.608 207.641,18.45Z" style="fill:none;stroke:rgb(0,164,213);stroke-width:0.34px;stroke-linecap:round;stroke-linejoin:round;"/>
    </g>
</svg>
