<?xml version="1.0" encoding="UTF-8" standalone="no"?><!DOCTYPE svg PUBLIC "-//W3C//DTD SVG 1.1//EN" "http://www.w3.org/Graphics/SVG/1.1/DTD/svg11.dtd"><svg width="100%" height="100%" viewBox="0 0 256 256" version="1.1" xmlns="http://www.w3.org/2000/svg" xmlns:xlink="http://www.w3.org/1999/xlink" xml:space="preserve" xmlns:serif="http://www.serif.com/" style="fill-rule:evenodd;clip-rule:evenodd;stroke-linejoin:round;stroke-miterlimit:1.41421;"><g id="_12" serif:id="12"><path d="M170.146,95.93l-6.368,159.188l-72,0l-6.367,-159.188l84.735,0Z" style="fill:#8d2279;"/><path d="M169.663,70.53c0.379,-0.188 1.315,-0.212 1.315,-0.212c0.212,0.029 0.425,0.057 0.637,0.086c0.197,0.084 0.407,0.142 0.591,0.252c0.184,0.109 0.355,0.245 0.503,0.399c0.299,0.312 0.509,0.699 0.607,1.12c0.048,0.208 0.04,0.426 0.06,0.639l-7.2,180c-0.046,0.239 -0.057,0.489 -0.14,0.718c-0.083,0.23 -0.202,0.449 -0.35,0.643c-0.3,0.392 -0.713,0.683 -1.184,0.832c-0.233,0.073 -0.482,0.074 -0.724,0.111l-72,0c-0.241,-0.037 -0.491,-0.038 -0.723,-0.111c-0.233,-0.074 -0.457,-0.185 -0.656,-0.325c-0.404,-0.284 -0.711,-0.685 -0.878,-1.15c-0.083,-0.229 -0.094,-0.479 -0.141,-0.718l-7.2,-180c0.02,-0.213 0.012,-0.431 0.061,-0.639c0.048,-0.209 0.125,-0.413 0.228,-0.601c0.206,-0.38 0.51,-0.697 0.882,-0.918c0.184,-0.11 0.384,-0.195 0.591,-0.252c0.206,-0.057 0.422,-0.093 0.636,-0.086c0.45,0.015 1.228,0.162 1.62,0.52c0.391,0.358 0.609,1.046 0.728,1.628c0.147,0.713 0.15,2.652 0.15,2.652l3.429,85.717c0.042,1.044 0.9,1.868 1.944,1.868c0.072,0 0.144,0 0.217,0c1.151,0 2.097,0.909 2.143,2.06c0.516,12.886 3.275,81.875 3.275,81.875l59.388,0c0,0 2.75,-68.753 3.273,-81.809c0.047,-1.187 1.024,-2.126 2.213,-2.126l0,0c1.128,0 2.055,-0.89 2.1,-2.017l3.422,-85.568c0,0 0.029,-2.908 0.226,-3.673c0.11,-0.427 0.578,-0.728 0.957,-0.915Z"/><rect x="0.219" y="0" width="255.118" height="255.118" style="fill:none;"/></g></svg>