<?xml version="1.0" encoding="UTF-8" standalone="no"?><!DOCTYPE svg PUBLIC "-//W3C//DTD SVG 1.1//EN" "http://www.w3.org/Graphics/SVG/1.1/DTD/svg11.dtd"><svg width="100%" height="100%" viewBox="0 0 256 256" version="1.1" xmlns="http://www.w3.org/2000/svg" xmlns:xlink="http://www.w3.org/1999/xlink" xml:space="preserve" xmlns:serif="http://www.serif.com/" style="fill-rule:evenodd;clip-rule:evenodd;stroke-linejoin:round;stroke-miterlimit:1.41421;"><g id="_28" serif:id="28"><g><path d="M163.547,253.436c0,0 -24.001,-6.119 -36.001,-6.119c-12,0 -35.999,6.119 -35.999,6.119l0,1.92l72,0l0,-1.92Z"/><rect x="122.747" y="171.311" width="9.6" height="78.442"/></g><path d="M127.547,179.251l-39.32,-67.895l78.641,0l-39.321,67.895Z" style="fill:#b2000d;"/><rect x="0.227" y="0.238" width="255.118" height="255.118" style="fill:none;"/><g><path d="M139.41,91.609c10.835,-14.64 31.505,-17.812 46.236,-7.054c14.788,10.799 18.027,31.574 7.227,46.362l-53.59,-39.135l0.127,-0.173Z" style="fill:#0e910b;"/><path d="M146.077,96.544c8.126,-10.98 23.629,-13.359 34.677,-5.291c11.091,8.1 13.52,23.681 5.42,34.772l-40.192,-29.351l0.095,-0.13Z" style="fill:#70ff6c;"/></g><path d="M174.582,94.145c0.284,-0.162 0.687,-0.163 0.965,-0.175c0.239,-0.009 0.472,0.072 0.708,0.107c0.215,0.104 0.448,0.177 0.645,0.311c0.399,0.272 0.706,0.658 0.882,1.107c0.087,0.223 0.141,0.46 0.159,0.699c0.017,0.237 -0.001,0.481 -0.054,0.713c-0.054,0.233 -0.175,0.444 -0.263,0.666l-48,82.88c-0.39,0.489 -0.453,0.68 -1.036,0.96c-0.435,0.209 -0.922,0.282 -1.398,0.211c-0.235,-0.036 -0.468,-0.107 -0.683,-0.211c-0.214,-0.103 -0.416,-0.24 -0.59,-0.402c-0.175,-0.162 -0.298,-0.372 -0.447,-0.558l-48,-82.88c-0.229,-0.583 -0.364,-0.733 -0.316,-1.379c0.018,-0.239 0.072,-0.476 0.159,-0.699c0.176,-0.449 0.483,-0.835 0.882,-1.107c0.197,-0.134 0.417,-0.24 0.645,-0.311c0.228,-0.07 0.47,-0.132 0.707,-0.107c0.317,0.034 0.845,0.089 1.191,0.309c0.351,0.223 0.916,1.03 0.916,1.03l2.057,3.461l43.836,75.692l43.837,-75.692c0,0 1.898,-3.036 2.431,-3.807c0.212,-0.307 0.479,-0.653 0.767,-0.818Z"/></g></svg>