<?xml version="1.0" encoding="UTF-8" standalone="no"?><!DOCTYPE svg PUBLIC "-//W3C//DTD SVG 1.1//EN" "http://www.w3.org/Graphics/SVG/1.1/DTD/svg11.dtd"><svg width="100%" height="100%" viewBox="0 0 256 256" version="1.1" xmlns="http://www.w3.org/2000/svg" xmlns:xlink="http://www.w3.org/1999/xlink" xml:space="preserve" xmlns:serif="http://www.serif.com/" style="fill-rule:evenodd;clip-rule:evenodd;stroke-linejoin:round;stroke-miterlimit:1.41421;"><g id="_36" serif:id="36"><g><path d="M163.532,253.436c0,0 -24.001,-6.119 -36.001,-6.119c-12,0 -35.999,6.119 -35.999,6.119l0,1.92l72,0l0,-1.92Z"/><rect x="122.732" y="171.311" width="9.6" height="78.442"/></g><path d="M127.532,179.251l-39.321,-67.895l78.642,0l-39.321,67.895Z" style="fill:#fff06a;"/><rect x="0.212" y="0.238" width="255.118" height="255.118" style="fill:none;"/><g><path d="M184.037,83.431l-2.95,-3.411l-69.174,61.937l0.637,0.735l71.487,-59.261Z" style="fill:#94674c;"/><path d="M160.392,96.294c-0.463,1.703 -0.192,3.332 0.888,4.319c0.827,0.756 1.987,1.005 3.228,0.804c0.733,4.121 -1.303,9.764 -5.632,14.502c-5.956,6.516 -14.01,8.866 -17.974,5.243c-3.965,-3.623 -2.348,-11.855 3.608,-18.372c5.041,-5.517 11.586,-8.047 15.882,-6.496Z" style="fill:#3d7148;"/></g><path d="M174.567,94.145c0.284,-0.162 0.686,-0.163 0.965,-0.175c0.239,-0.009 0.472,0.072 0.708,0.107c0.215,0.104 0.448,0.177 0.645,0.311c0.399,0.272 0.706,0.658 0.882,1.107c0.087,0.223 0.141,0.46 0.159,0.699c0.017,0.237 -0.001,0.481 -0.054,0.713c-0.054,0.233 -0.175,0.444 -0.263,0.666l-48,82.88c-0.39,0.489 -0.453,0.68 -1.037,0.96c-0.434,0.209 -0.921,0.282 -1.397,0.211c-0.236,-0.036 -0.468,-0.107 -0.683,-0.211c-0.214,-0.103 -0.416,-0.24 -0.591,-0.402c-0.174,-0.162 -0.297,-0.372 -0.446,-0.558l-48,-82.88c-0.229,-0.583 -0.364,-0.733 -0.316,-1.379c0.018,-0.239 0.072,-0.476 0.158,-0.699c0.177,-0.449 0.484,-0.835 0.883,-1.107c0.197,-0.134 0.417,-0.24 0.645,-0.311c0.228,-0.07 0.47,-0.132 0.707,-0.107c0.317,0.034 0.845,0.089 1.191,0.309c0.351,0.223 0.916,1.03 0.916,1.03l2.057,3.461l43.836,75.692l43.837,-75.692c0,0 1.897,-3.036 2.43,-3.807c0.213,-0.307 0.48,-0.653 0.768,-0.818Z"/></g></svg>