<?xml version="1.0" encoding="UTF-8" standalone="no"?><!DOCTYPE svg PUBLIC "-//W3C//DTD SVG 1.1//EN" "http://www.w3.org/Graphics/SVG/1.1/DTD/svg11.dtd"><svg width="100%" height="100%" viewBox="0 0 256 256" version="1.1" xmlns="http://www.w3.org/2000/svg" xmlns:xlink="http://www.w3.org/1999/xlink" xml:space="preserve" xmlns:serif="http://www.serif.com/" style="fill-rule:evenodd;clip-rule:evenodd;stroke-linejoin:round;stroke-miterlimit:1.41421;"><g id="_37" serif:id="37"><g><path d="M163.53,253.436c0,0 -24.001,-6.119 -36.001,-6.119c-12,0 -35.999,6.119 -35.999,6.119l0,1.92l72,0l0,-1.92Z"/><rect x="122.73" y="171.311" width="9.6" height="78.442"/></g><path d="M127.53,179.251l-39.32,-67.895l78.641,0l-39.321,67.895Z" style="fill:#ff0a00;"/><rect x="0.21" y="0.238" width="255.118" height="255.118" style="fill:none;"/><g><path d="M182.473,81.108l-2.95,-3.41l-69.174,61.936l0.637,0.736l71.487,-59.262Z" style="fill:#94674c;"/><path d="M158.828,93.971c-0.463,1.704 -0.192,3.332 0.888,4.319c0.827,0.756 1.987,1.006 3.228,0.805c0.733,4.121 -1.303,9.764 -5.632,14.501c-5.956,6.517 -14.009,8.867 -17.974,5.244c-3.965,-3.623 -2.348,-11.855 3.608,-18.373c5.041,-5.516 11.586,-8.047 15.882,-6.496Z" style="fill:#3d7148;"/></g><path d="M174.565,94.145c0.284,-0.162 0.687,-0.163 0.965,-0.175c0.239,-0.009 0.472,0.072 0.708,0.107c0.215,0.104 0.448,0.177 0.645,0.311c0.399,0.272 0.706,0.658 0.882,1.107c0.087,0.223 0.141,0.46 0.159,0.699c0.017,0.237 -0.001,0.481 -0.054,0.713c-0.054,0.233 -0.175,0.444 -0.263,0.666l-48,82.88c-0.39,0.489 -0.453,0.68 -1.036,0.96c-0.435,0.209 -0.922,0.282 -1.398,0.211c-0.235,-0.036 -0.468,-0.107 -0.683,-0.211c-0.214,-0.103 -0.416,-0.24 -0.59,-0.402c-0.175,-0.162 -0.298,-0.372 -0.447,-0.558l-48,-82.88c-0.229,-0.583 -0.364,-0.733 -0.316,-1.379c0.018,-0.239 0.072,-0.476 0.159,-0.699c0.176,-0.449 0.483,-0.835 0.882,-1.107c0.197,-0.134 0.417,-0.24 0.645,-0.311c0.228,-0.07 0.47,-0.132 0.707,-0.107c0.317,0.034 0.845,0.089 1.191,0.309c0.351,0.223 0.916,1.03 0.916,1.03l2.057,3.461l43.836,75.692l43.837,-75.692c0,0 1.898,-3.036 2.431,-3.807c0.212,-0.307 0.479,-0.653 0.767,-0.818Z"/></g></svg>