<?xml version="1.0" encoding="UTF-8" standalone="no"?><!DOCTYPE svg PUBLIC "-//W3C//DTD SVG 1.1//EN" "http://www.w3.org/Graphics/SVG/1.1/DTD/svg11.dtd"><svg width="100%" height="100%" viewBox="0 0 256 256" version="1.1" xmlns="http://www.w3.org/2000/svg" xmlns:xlink="http://www.w3.org/1999/xlink" xml:space="preserve" xmlns:serif="http://www.serif.com/" style="fill-rule:evenodd;clip-rule:evenodd;stroke-linecap:round;stroke-linejoin:round;stroke-miterlimit:1.5;"><g id="_40" serif:id="40"><g><path d="M163.525,253.436c0,0 -24.002,-6.119 -36.002,-6.119c-12,0 -35.998,6.119 -35.998,6.119l0,1.92l72,0l0,-1.92Z"/><rect x="122.725" y="171.311" width="9.6" height="78.442"/></g><path d="M127.525,179.251l-39.321,-67.895l78.642,0l-39.321,67.895Z" style="fill:#007fb2;"/><rect x="0.204" y="0.238" width="255.118" height="255.118" style="fill:none;"/><path d="M166.284,97.72l-22.666,43.714l22.666,-43.714" style="stroke:#cd8300;stroke-width:2.52px;"/><g><path d="M146.316,83.07l3.702,-7.803c0,0 1.559,-2.16 2.752,-2.472c1.808,-0.472 5.862,-1.881 8.094,-0.362c2.809,1.912 7.726,7.87 8.76,11.833c1.028,3.938 -2.555,11.94 -2.555,11.94c0,0 6.487,-8.502 10.507,-9.854c4.021,-1.351 10.335,-0.219 13.615,1.745c3.281,1.964 5.082,6.548 6.068,10.037c0.986,3.488 0.489,7.318 -0.154,10.892c-0.644,3.577 -3.708,10.568 -3.708,10.568" style="fill:none;stroke:#0022b9;stroke-width:2.52px;"/><path d="M167.733,94.925l3.956,-11.255c0,0 -0.489,-6.632 -1.734,-9.655c-1.318,-3.2 -4.237,-7.603 -6.173,-9.544c-1.374,-1.378 -3.5,-2.124 -5.445,-2.102c-1.995,0.023 -6.527,2.239 -6.527,2.239" style="fill:none;stroke:#0022b9;stroke-width:2.52px;"/><path d="M168.491,93.462c0,0 1.811,-4.457 3.166,-6.106c1.322,-1.608 2.955,-3.289 4.966,-3.789c2.011,-0.499 5.207,-0.651 7.102,0.793c2.759,2.103 7.868,8.455 9.454,11.825c1.192,2.532 0.9,5.724 0.065,8.396c-0.962,3.077 -5.837,10.069 -5.837,10.069" style="fill:none;stroke:#0022b9;stroke-width:2.52px;"/><path d="M169.192,92.11c0,0 5.304,-10.931 6.002,-15.378c0.592,-3.77 -1.814,-11.305 -1.814,-11.305" style="fill:none;stroke:#0022b9;stroke-width:2.52px;"/><path d="M169.919,90.709l6.773,-9.996" style="fill:none;stroke:#0022b9;stroke-width:2.52px;"/><path d="M167.733,94.925l0.76,-6.003c0,0 -0.783,-2.993 -1.564,-3.831c-0.761,-0.815 -2.074,-1.298 -3.124,-1.197c-1.049,0.102 -2.327,0.932 -3.173,1.807c-0.849,0.878 -1.921,3.462 -1.921,3.462" style="fill:none;stroke:#0022b9;stroke-width:2.52px;"/><path d="M167.733,94.925c0,0 7.514,-11.109 11.242,-14.171c3.063,-2.516 7.162,-4.2 11.126,-4.199c4.037,0.001 13.099,4.206 13.099,4.206" style="fill:none;stroke:#0022b9;stroke-width:2.52px;"/><path d="M166.931,96.472l-3.295,6.356" style="fill:none;stroke:#0022b9;stroke-width:2.88px;"/></g><path d="M174.56,94.145c0.283,-0.162 0.686,-0.163 0.965,-0.175c0.238,-0.009 0.472,0.072 0.707,0.107c0.216,0.104 0.448,0.177 0.645,0.311c0.399,0.272 0.706,0.658 0.883,1.107c0.086,0.223 0.14,0.46 0.158,0.699c0.018,0.237 -0.001,0.481 -0.054,0.713c-0.054,0.233 -0.175,0.444 -0.262,0.666l-48,82.88c-0.391,0.489 -0.454,0.68 -1.037,0.96c-0.434,0.209 -0.921,0.282 -1.398,0.211c-0.235,-0.036 -0.468,-0.107 -0.682,-0.211c-0.215,-0.103 -0.416,-0.24 -0.591,-0.402c-0.175,-0.162 -0.297,-0.372 -0.446,-0.558l-48,-82.88c-0.23,-0.583 -0.365,-0.733 -0.317,-1.379c0.018,-0.239 0.072,-0.476 0.159,-0.699c0.176,-0.449 0.483,-0.835 0.882,-1.107c0.197,-0.134 0.417,-0.24 0.645,-0.311c0.228,-0.07 0.47,-0.132 0.708,-0.107c0.316,0.034 0.844,0.089 1.19,0.309c0.351,0.223 0.916,1.03 0.916,1.03l2.057,3.461l43.837,75.692l43.836,-75.692c0,0 1.898,-3.036 2.431,-3.807c0.213,-0.307 0.479,-0.653 0.768,-0.818Z"/></g></svg>