<?xml version="1.0" encoding="UTF-8" standalone="no"?><!DOCTYPE svg PUBLIC "-//W3C//DTD SVG 1.1//EN" "http://www.w3.org/Graphics/SVG/1.1/DTD/svg11.dtd"><svg width="100%" height="100%" viewBox="0 0 256 256" version="1.1" xmlns="http://www.w3.org/2000/svg" xmlns:xlink="http://www.w3.org/1999/xlink" xml:space="preserve" xmlns:serif="http://www.serif.com/" style="fill-rule:evenodd;clip-rule:evenodd;stroke-linejoin:round;stroke-miterlimit:1.41421;"><g id="_46" serif:id="46"><rect x="19.31" y="39.354" width="216" height="216" style="fill:none;"/><g><path d="M163.31,253.434c0,0 -24.002,-6.118 -36.002,-6.118c-12,0 -35.998,6.118 -35.998,6.118l0,1.92l72,0l0,-1.92Z"/><rect x="122.51" y="218.367" width="9.6" height="31.384"/></g><path d="M155.102,77.167c-1.941,8.762 -3.504,20.252 -3.668,34.794c-0.219,19.526 11.977,61.921 11.873,82.735c-0.019,3.764 0.012,3.814 0,3.778l0,0.004c0,19.87 -16.131,36.003 -35.999,36.003c-19.868,0 -35.998,-16.133 -35.998,-36.003l0,-0.004c-0.013,0.036 0.019,-0.014 0,-3.778c-0.105,-20.814 12.091,-63.209 11.872,-82.735c-0.164,-14.542 -1.727,-26.032 -3.668,-34.794l55.588,0Z" style="fill:#ffa8a8;"/><rect x="0.231" y="0.236" width="255.118" height="255.118" style="fill:none;"/><g><path d="M126.608,53.507c11.756,-15.885 34.183,-19.326 50.166,-7.654c16.046,11.718 19.56,34.258 7.842,50.304l-58.146,-42.462l0.138,-0.188Z" style="fill:#ffa600;"/><path d="M133.842,58.862c8.817,-11.914 25.637,-14.495 37.624,-5.741c12.035,8.788 14.67,25.694 5.882,37.728l-43.61,-31.846l0.104,-0.141Z" style="fill:#ffe800;"/></g><path d="M161.851,52.34l1.456,-0.266c0.243,0.038 0.486,0.076 0.729,0.114c0.22,0.11 0.46,0.187 0.66,0.33c0.406,0.288 0.713,0.696 0.877,1.166c0.081,0.232 0.126,0.48 0.133,0.726c0.006,0.246 -0.026,0.496 -0.094,0.732c-0.068,0.236 -0.208,0.446 -0.312,0.669c-0.032,0.048 -0.062,0.096 -0.093,0.144c-0.301,0.482 -0.579,0.978 -0.845,1.479c-0.349,0.655 -0.679,1.32 -0.994,1.991c-0.391,0.832 -0.761,1.675 -1.112,2.524c-0.418,1.007 -0.81,2.025 -1.182,3.049c-0.933,2.569 -1.737,5.185 -2.443,7.825c-0.782,2.927 -1.443,5.886 -2.005,8.863c-0.635,3.366 -1.143,6.755 -1.544,10.156c-0.446,3.778 -0.762,7.571 -0.966,11.369c-0.111,2.071 -0.19,4.144 -0.238,6.218c-0.014,0.618 -0.026,1.236 -0.035,1.854c-0.007,0.53 -0.014,1.06 -0.01,1.59c0.008,1 0.046,2 0.103,2.999c0.058,1.014 0.137,2.027 0.23,3.039c0.113,1.242 0.249,2.481 0.399,3.719c0.306,2.514 0.672,5.021 1.069,7.523c0.434,2.729 0.906,5.451 1.396,8.171c0.584,3.23 1.195,6.456 1.811,9.68c0.515,2.686 1.033,5.37 1.547,8.056c0.763,3.988 1.517,7.977 2.222,11.975c0.57,3.223 1.108,6.452 1.584,9.69c0.435,2.959 0.818,5.927 1.1,8.905c0.097,1.024 0.18,2.049 0.247,3.076c0.105,1.622 0.169,3.248 0.166,4.874c-0.002,0.455 -0.004,0.911 -0.005,1.366c-0.002,0.682 -0.003,1.363 0.002,2.045c0.001,0.152 0.004,0.305 0.006,0.458l0,0.061c-0.001,0.031 -0.001,0.031 -0.004,0.061c0,0.134 -0.001,0.268 -0.002,0.402c-0.01,0.657 -0.034,1.312 -0.075,1.968c-0.077,1.211 -0.211,2.419 -0.402,3.618c-0.504,3.158 -1.406,6.251 -2.679,9.185c-0.925,2.131 -2.045,4.177 -3.34,6.105c-1.349,2.011 -2.889,3.893 -4.59,5.615c-1.621,1.64 -3.388,3.135 -5.274,4.46c-1.866,1.311 -3.85,2.456 -5.919,3.415c-1.704,0.79 -3.467,1.455 -5.269,1.985c-1.95,0.574 -3.946,0.992 -5.963,1.248c-4.114,0.524 -8.314,0.383 -12.383,-0.424c-1.784,-0.354 -3.543,-0.836 -5.258,-1.441c-1.763,-0.621 -3.48,-1.373 -5.134,-2.246c-1.978,-1.045 -3.864,-2.263 -5.631,-3.635c-1.638,-1.271 -3.172,-2.675 -4.585,-4.193c-1.467,-1.575 -2.802,-3.274 -3.986,-5.073c-1.128,-1.713 -2.119,-3.517 -2.959,-5.389c-1.357,-3.023 -2.316,-6.223 -2.848,-9.494c-0.215,-1.318 -0.36,-2.648 -0.436,-3.981c-0.04,-0.697 -0.06,-1.396 -0.063,-2.094l0,-0.031l-0.002,-0.02l-0.001,-0.041c0,-0.057 -0.001,-0.057 0,-0.114c0.002,-0.136 0.004,-0.27 0.005,-0.405c0.006,-0.775 0.004,-1.549 0.002,-2.324c-0.002,-0.405 -0.004,-0.81 -0.005,-1.215c0,-0.129 0,-0.259 0.001,-0.387c0.011,-1.55 0.079,-3.099 0.185,-4.645c0.077,-1.132 0.174,-2.263 0.286,-3.393c0.144,-1.459 0.313,-2.916 0.499,-4.371c0.196,-1.536 0.412,-3.07 0.641,-4.601c0.487,-3.253 1.035,-6.496 1.611,-9.733c0.713,-4.005 1.471,-8.001 2.236,-11.996c0.469,-2.44 0.939,-4.881 1.407,-7.322c0.617,-3.224 1.227,-6.45 1.811,-9.68c0.491,-2.72 0.962,-5.442 1.396,-8.171c0.398,-2.502 0.764,-5.009 1.069,-7.523c0.139,-1.146 0.265,-2.294 0.374,-3.444c0.105,-1.103 0.192,-2.208 0.255,-3.314c0.057,-0.999 0.095,-1.999 0.103,-2.999c0.004,-0.53 -0.002,-1.06 -0.01,-1.59c-0.009,-0.619 -0.021,-1.238 -0.035,-1.856c-0.05,-2.147 -0.132,-4.293 -0.25,-6.437c-0.212,-3.853 -0.537,-7.699 -0.999,-11.53c-0.414,-3.434 -0.937,-6.856 -1.59,-10.253c-0.591,-3.07 -1.288,-6.121 -2.118,-9.136c-0.707,-2.571 -1.51,-5.117 -2.438,-7.618c-0.351,-0.943 -0.719,-1.879 -1.108,-2.806c-0.362,-0.861 -0.742,-1.715 -1.145,-2.557c-0.314,-0.655 -0.641,-1.304 -0.989,-1.941c-0.139,-0.254 -0.28,-0.507 -0.427,-0.756c-0.106,-0.181 -0.214,-0.36 -0.328,-0.536c-0.008,-0.014 -0.017,-0.027 -0.026,-0.041l-0.003,-0.004l-0.312,-0.669c-0.032,-0.244 -0.101,-0.486 -0.094,-0.732c0.006,-0.247 0.051,-0.494 0.132,-0.727c0.081,-0.232 0.2,-0.454 0.348,-0.651c0.299,-0.398 0.715,-0.694 1.189,-0.845c0.234,-0.075 2.528,-0.215 2.771,-0.253l1.999,4.939c0.06,0.125 0.12,0.249 0.179,0.374c0.056,0.12 0.112,0.239 0.168,0.359c0.159,0.343 0.316,0.688 0.469,1.034c0.906,2.048 1.707,4.141 2.431,6.26c0.958,2.796 1.78,5.638 2.497,8.506c0.88,3.521 1.6,7.082 2.191,10.664c0.674,4.081 1.178,8.19 1.543,12.311c0.326,3.683 0.54,7.375 0.658,11.071c0.034,1.094 0.061,2.188 0.079,3.282c0.013,0.767 0.025,1.534 0.017,2.301c-0.014,1.31 -0.073,2.619 -0.161,3.926c-0.154,2.293 -0.395,4.581 -0.681,6.861c-0.311,2.479 -0.676,4.951 -1.071,7.417c-0.424,2.651 -0.883,5.295 -1.36,7.937c-0.586,3.247 -1.2,6.488 -1.82,9.729c-0.514,2.686 -1.032,5.371 -1.547,8.056c-0.736,3.848 -1.463,7.698 -2.147,11.555c-0.565,3.186 -1.101,6.377 -1.576,9.577c-0.236,1.596 -0.457,3.193 -0.656,4.793c-0.162,1.3 -0.308,2.601 -0.434,3.904c-0.108,1.119 -0.201,2.24 -0.272,3.362c-0.091,1.43 -0.147,2.863 -0.148,4.297c0.001,0.494 0.004,0.989 0.005,1.484c0.002,0.843 0.005,1.685 -0.007,2.528c0,0.006 0.002,0.011 0.003,0.017l0,-0.001c0,0.109 0,0.217 0.001,0.326c0.007,0.576 0.026,1.151 0.06,1.725c0.068,1.132 0.193,2.259 0.375,3.378c0.438,2.691 1.207,5.327 2.285,7.832c0.803,1.867 1.778,3.66 2.906,5.351c1.195,1.792 2.562,3.468 4.076,5.001c1.419,1.436 2.966,2.744 4.618,3.905c1.633,1.147 3.369,2.149 5.179,2.988c1.584,0.734 3.225,1.344 4.904,1.822c1.61,0.458 3.255,0.794 4.915,1.005c3.672,0.467 7.422,0.33 11.049,-0.413c1.488,-0.305 2.956,-0.712 4.39,-1.218c1.541,-0.543 3.043,-1.2 4.489,-1.964c1.731,-0.914 3.382,-1.98 4.928,-3.181c1.435,-1.113 2.779,-2.343 4.016,-3.672c1.285,-1.38 2.453,-2.867 3.49,-4.442c1.006,-1.527 1.887,-3.137 2.63,-4.808c0.599,-1.345 1.109,-2.729 1.524,-4.142c0.403,-1.367 0.717,-2.76 0.942,-4.168c0.189,-1.191 0.315,-2.391 0.376,-3.595c0.029,-0.577 0.043,-1.155 0.044,-1.732l0,-0.002l0.002,-0.017c-0.002,-0.142 -0.003,-0.285 -0.005,-0.427c-0.005,-0.793 -0.004,-1.586 -0.001,-2.379c0.001,-0.4 0.004,-0.801 0.004,-1.201c0,-0.158 -0.001,-0.317 -0.002,-0.475c-0.014,-1.456 -0.08,-2.912 -0.182,-4.365c-0.079,-1.136 -0.179,-2.27 -0.293,-3.403c-0.144,-1.42 -0.312,-2.839 -0.495,-4.255c-0.196,-1.508 -0.41,-3.013 -0.637,-4.517c-0.486,-3.217 -1.031,-6.424 -1.603,-9.626c-0.69,-3.865 -1.423,-7.723 -2.161,-11.579c-0.469,-2.441 -0.94,-4.882 -1.407,-7.324c-0.62,-3.241 -1.234,-6.482 -1.82,-9.73c-0.457,-2.529 -0.897,-5.062 -1.306,-7.6c-0.399,-2.475 -0.769,-4.956 -1.086,-7.443c-0.291,-2.292 -0.539,-4.591 -0.701,-6.896c-0.099,-1.398 -0.165,-2.799 -0.18,-4.201c-0.008,-0.767 0.004,-1.533 0.017,-2.3c0.018,-1.093 0.045,-2.187 0.08,-3.28c0.117,-3.693 0.331,-7.382 0.657,-11.063c0.369,-4.175 0.882,-8.338 1.568,-12.474c0.63,-3.795 1.406,-7.567 2.364,-11.293c0.738,-2.867 1.583,-5.707 2.567,-8.499c0.864,-2.45 1.833,-4.864 2.957,-7.206l0.022,-0.047l1.885,-3.653l0.7,-0.881Zm-70.541,148.534l0.029,-0.021l-0.052,-0.001c0.008,0.007 0.015,0.015 0.023,0.022Zm2.397,-2.414l0,-0.028l-0.006,-0.168c-0.016,-0.109 -0.008,-0.112 -0.058,-0.211c0.021,0.136 0.042,0.272 0.064,0.407Zm67.228,-0.33c-0.023,0.15 -0.021,0.15 -0.025,0.302l0,0.024l0.063,-0.402c-0.013,0.025 -0.026,0.05 -0.038,0.076Zm-71.833,-0.596c-0.036,0.083 -0.036,0.083 -0.065,0.168l0.154,-0.293c-0.03,0.042 -0.059,0.083 -0.089,0.125Zm76.477,0.168c-0.014,-0.041 -0.042,-0.131 -0.065,-0.168c-0.026,-0.045 -0.06,-0.085 -0.09,-0.127c0.052,0.098 0.103,0.197 0.155,0.295Zm-72.54,-0.85l-0.035,-0.07l-0.035,0c0.023,0.023 0.047,0.046 0.07,0.07Zm68.573,-0.07l-0.035,0.069l0.07,-0.069c-0.012,0 -0.024,0 -0.035,0Zm3.272,-0.081l0.118,0.116l-0.083,-0.117c-0.012,0 -0.023,0 -0.035,0.001Zm-75.269,0.115l0.117,-0.115l-0.035,-0.001c-0.027,0.038 -0.055,0.077 -0.082,0.116Z"/></g></svg>