<?xml version="1.0" encoding="UTF-8" standalone="no"?><!DOCTYPE svg PUBLIC "-//W3C//DTD SVG 1.1//EN" "http://www.w3.org/Graphics/SVG/1.1/DTD/svg11.dtd"><svg width="100%" height="100%" viewBox="0 0 256 256" version="1.1" xmlns="http://www.w3.org/2000/svg" xmlns:xlink="http://www.w3.org/1999/xlink" xml:space="preserve" xmlns:serif="http://www.serif.com/" style="fill-rule:evenodd;clip-rule:evenodd;stroke-linejoin:round;stroke-miterlimit:1.41421;"><g id="_48" serif:id="48"><g><path d="M163.307,253.434c0,0 -24.001,-6.118 -36.001,-6.118c-12,0 -35.999,6.118 -35.999,6.118l0,1.92l72,0l0,-1.92Z"/><rect x="122.507" y="218.367" width="9.6" height="31.384"/></g><path d="M155.1,77.167c-1.941,8.762 -3.504,20.252 -3.668,34.794c-0.22,19.526 11.977,61.921 11.872,82.735c-0.019,3.764 0.013,3.814 0,3.778l0,0.004c0,19.87 -16.13,36.003 -35.998,36.003c-19.869,0 -35.999,-16.133 -35.999,-36.003l0,-0.004c-0.012,0.036 0.019,-0.014 0,-3.778c-0.104,-20.814 12.092,-63.209 11.873,-82.735c-0.164,-14.542 -1.727,-26.032 -3.668,-34.794l55.588,0Z" style="fill:url(#_Radial1);"/><rect x="0.227" y="0.236" width="255.118" height="255.118" style="fill:none;"/><path d="M161.849,52.34l1.455,-0.266c0.244,0.038 0.487,0.076 0.73,0.114c0.22,0.11 0.46,0.187 0.66,0.33c0.406,0.288 0.712,0.696 0.876,1.166c0.081,0.232 0.127,0.48 0.133,0.726c0.007,0.246 -0.025,0.496 -0.093,0.732c-0.069,0.236 -0.208,0.446 -0.312,0.669c-0.032,0.048 -0.063,0.096 -0.093,0.144c-0.302,0.482 -0.579,0.978 -0.846,1.479c-0.349,0.655 -0.678,1.32 -0.993,1.991c-0.392,0.832 -0.761,1.675 -1.113,2.524c-0.417,1.007 -0.81,2.025 -1.182,3.049c-0.932,2.569 -1.736,5.185 -2.442,7.825c-0.783,2.927 -1.444,5.886 -2.005,8.863c-0.635,3.366 -1.143,6.755 -1.545,10.156c-0.446,3.778 -0.761,7.571 -0.965,11.369c-0.112,2.071 -0.19,4.144 -0.238,6.218c-0.014,0.618 -0.026,1.236 -0.035,1.854c-0.008,0.53 -0.014,1.06 -0.01,1.59c0.008,1 0.045,2 0.103,2.999c0.058,1.014 0.136,2.027 0.229,3.039c0.114,1.242 0.25,2.481 0.4,3.719c0.305,2.514 0.671,5.021 1.069,7.523c0.433,2.729 0.905,5.451 1.396,8.171c0.583,3.23 1.194,6.456 1.811,9.68c0.515,2.686 1.033,5.37 1.547,8.056c0.762,3.988 1.517,7.977 2.222,11.975c0.569,3.223 1.108,6.452 1.584,9.69c0.435,2.959 0.817,5.927 1.1,8.905c0.097,1.024 0.18,2.049 0.247,3.076c0.105,1.622 0.168,3.248 0.166,4.874c-0.002,0.455 -0.004,0.911 -0.006,1.366c-0.001,0.682 -0.003,1.363 0.003,2.045c0.001,0.152 0.003,0.305 0.005,0.458l0,0.061c-0.001,0.031 0,0.031 -0.003,0.061c0,0.134 -0.001,0.268 -0.003,0.402c-0.009,0.657 -0.033,1.312 -0.075,1.968c-0.076,1.211 -0.21,2.419 -0.402,3.618c-0.503,3.158 -1.405,6.251 -2.678,9.185c-0.925,2.131 -2.045,4.177 -3.34,6.105c-1.35,2.011 -2.889,3.893 -4.591,5.615c-1.62,1.64 -3.387,3.135 -5.273,4.46c-1.867,1.311 -3.85,2.456 -5.919,3.415c-1.705,0.79 -3.467,1.455 -5.269,1.985c-1.95,0.574 -3.946,0.992 -5.963,1.248c-4.115,0.524 -8.315,0.383 -12.383,-0.424c-1.784,-0.354 -3.543,-0.836 -5.258,-1.441c-1.763,-0.621 -3.481,-1.373 -5.134,-2.246c-1.978,-1.045 -3.864,-2.263 -5.631,-3.635c-1.638,-1.271 -3.173,-2.675 -4.586,-4.193c-1.466,-1.575 -2.802,-3.274 -3.985,-5.073c-1.128,-1.713 -2.119,-3.517 -2.959,-5.389c-1.357,-3.023 -2.317,-6.223 -2.849,-9.494c-0.214,-1.318 -0.36,-2.648 -0.436,-3.981c-0.039,-0.697 -0.059,-1.396 -0.062,-2.094l0,-0.031l-0.002,-0.02l-0.002,-0.041c0,-0.057 0,-0.057 0.001,-0.114c0.002,-0.136 0.003,-0.27 0.005,-0.405c0.005,-0.775 0.004,-1.549 0.001,-2.324c-0.001,-0.405 -0.004,-0.81 -0.004,-1.215c0,-0.129 0,-0.259 0.001,-0.387c0.011,-1.55 0.079,-3.099 0.184,-4.645c0.077,-1.132 0.175,-2.263 0.286,-3.393c0.145,-1.459 0.314,-2.916 0.5,-4.371c0.196,-1.536 0.412,-3.07 0.641,-4.601c0.487,-3.253 1.035,-6.496 1.611,-9.733c0.713,-4.005 1.471,-8.001 2.236,-11.996c0.469,-2.44 0.939,-4.881 1.407,-7.322c0.616,-3.224 1.227,-6.45 1.811,-9.68c0.49,-2.72 0.962,-5.442 1.396,-8.171c0.397,-2.502 0.763,-5.009 1.069,-7.523c0.139,-1.146 0.265,-2.294 0.374,-3.444c0.105,-1.103 0.191,-2.208 0.255,-3.314c0.057,-0.999 0.095,-1.999 0.103,-2.999c0.004,-0.53 -0.003,-1.06 -0.01,-1.59c-0.009,-0.619 -0.021,-1.238 -0.035,-1.856c-0.05,-2.147 -0.132,-4.293 -0.25,-6.437c-0.212,-3.853 -0.538,-7.699 -0.999,-11.53c-0.414,-3.434 -0.937,-6.856 -1.591,-10.253c-0.59,-3.07 -1.288,-6.121 -2.117,-9.136c-0.707,-2.571 -1.51,-5.117 -2.439,-7.618c-0.35,-0.943 -0.718,-1.879 -1.108,-2.806c-0.361,-0.861 -0.741,-1.715 -1.145,-2.557c-0.313,-0.655 -0.64,-1.304 -0.988,-1.941c-0.139,-0.254 -0.281,-0.507 -0.427,-0.756c-0.106,-0.181 -0.214,-0.36 -0.328,-0.536c-0.009,-0.014 -0.017,-0.027 -0.026,-0.041l-0.003,-0.004l-0.313,-0.669c-0.031,-0.244 -0.1,-0.486 -0.094,-0.732c0.007,-0.247 0.052,-0.494 0.133,-0.727c0.081,-0.232 0.2,-0.454 0.347,-0.651c0.3,-0.398 0.715,-0.694 1.19,-0.845c0.234,-0.075 2.527,-0.215 2.77,-0.253l2,4.939c0.06,0.125 0.119,0.249 0.178,0.374c0.057,0.12 0.113,0.239 0.169,0.359c0.159,0.343 0.316,0.688 0.469,1.034c0.905,2.048 1.706,4.141 2.431,6.26c0.957,2.796 1.78,5.638 2.497,8.506c0.88,3.521 1.6,7.082 2.191,10.664c0.673,4.081 1.177,8.19 1.542,12.311c0.326,3.683 0.541,7.375 0.658,11.071c0.035,1.094 0.062,2.188 0.08,3.282c0.013,0.767 0.025,1.534 0.017,2.301c-0.014,1.31 -0.073,2.619 -0.161,3.926c-0.154,2.293 -0.395,4.581 -0.681,6.861c-0.311,2.479 -0.676,4.951 -1.071,7.417c-0.424,2.651 -0.883,5.295 -1.36,7.937c-0.586,3.247 -1.2,6.488 -1.82,9.729c-0.515,2.686 -1.033,5.371 -1.547,8.056c-0.736,3.848 -1.464,7.698 -2.147,11.555c-0.565,3.186 -1.101,6.377 -1.576,9.577c-0.237,1.596 -0.458,3.193 -0.657,4.793c-0.161,1.3 -0.308,2.601 -0.433,3.904c-0.108,1.119 -0.201,2.24 -0.273,3.362c-0.091,1.43 -0.146,2.863 -0.147,4.297c0,0.494 0.004,0.989 0.005,1.484c0.002,0.843 0.005,1.685 -0.007,2.528c-0.001,0.006 0.001,0.011 0.002,0.017l0,-0.001c0.001,0.109 0.001,0.217 0.002,0.326c0.006,0.576 0.025,1.151 0.06,1.725c0.068,1.132 0.193,2.259 0.375,3.378c0.438,2.691 1.207,5.327 2.285,7.832c0.803,1.867 1.778,3.66 2.906,5.351c1.195,1.792 2.562,3.468 4.076,5.001c1.419,1.436 2.966,2.744 4.618,3.905c1.633,1.147 3.368,2.149 5.179,2.988c1.584,0.734 3.225,1.344 4.904,1.822c1.61,0.458 3.254,0.794 4.915,1.005c3.672,0.467 7.422,0.33 11.048,-0.413c1.489,-0.305 2.957,-0.712 4.39,-1.218c1.542,-0.543 3.044,-1.2 4.49,-1.964c1.731,-0.914 3.382,-1.98 4.928,-3.181c1.434,-1.113 2.778,-2.343 4.016,-3.672c1.284,-1.38 2.453,-2.867 3.49,-4.442c1.006,-1.527 1.887,-3.137 2.63,-4.808c0.599,-1.345 1.108,-2.729 1.524,-4.142c0.402,-1.367 0.717,-2.76 0.941,-4.168c0.19,-1.191 0.316,-2.391 0.376,-3.595c0.03,-0.577 0.043,-1.155 0.044,-1.732l0,-0.002l0.003,-0.017c-0.002,-0.142 -0.004,-0.285 -0.005,-0.427c-0.006,-0.793 -0.004,-1.586 -0.002,-2.379c0.002,-0.4 0.004,-0.801 0.005,-1.201c0,-0.158 -0.001,-0.317 -0.002,-0.475c-0.014,-1.456 -0.081,-2.912 -0.182,-4.365c-0.079,-1.136 -0.179,-2.27 -0.294,-3.403c-0.144,-1.42 -0.311,-2.839 -0.495,-4.255c-0.195,-1.508 -0.409,-3.013 -0.636,-4.517c-0.486,-3.217 -1.031,-6.424 -1.603,-9.626c-0.691,-3.865 -1.423,-7.723 -2.161,-11.579c-0.469,-2.441 -0.94,-4.882 -1.408,-7.324c-0.619,-3.241 -1.233,-6.482 -1.82,-9.73c-0.456,-2.529 -0.896,-5.062 -1.306,-7.6c-0.398,-2.475 -0.769,-4.956 -1.085,-7.443c-0.292,-2.292 -0.539,-4.591 -0.702,-6.896c-0.098,-1.398 -0.165,-2.799 -0.179,-4.201c-0.008,-0.767 0.004,-1.533 0.017,-2.3c0.018,-1.093 0.045,-2.187 0.079,-3.28c0.118,-3.693 0.332,-7.382 0.657,-11.063c0.37,-4.175 0.882,-8.338 1.569,-12.474c0.63,-3.795 1.406,-7.567 2.364,-11.293c0.738,-2.867 1.583,-5.707 2.567,-8.499c0.863,-2.45 1.833,-4.864 2.956,-7.206l0.023,-0.047l1.885,-3.653l0.7,-0.881Zm-70.542,148.534l0.03,-0.021l-0.052,-0.001c0.007,0.007 0.015,0.015 0.022,0.022Zm2.397,-2.414l0,-0.028l-0.005,-0.168c-0.016,-0.109 -0.009,-0.112 -0.058,-0.211c0.021,0.136 0.042,0.272 0.063,0.407Zm67.228,-0.33c-0.022,0.15 -0.02,0.15 -0.025,0.302l0,0.024l0.064,-0.402c-0.013,0.025 -0.026,0.05 -0.039,0.076Zm-71.832,-0.596c-0.036,0.083 -0.036,0.083 -0.065,0.168l0.154,-0.293c-0.03,0.042 -0.06,0.083 -0.089,0.125Zm76.477,0.168c-0.014,-0.041 -0.042,-0.131 -0.065,-0.168c-0.027,-0.045 -0.06,-0.085 -0.09,-0.127c0.051,0.098 0.103,0.197 0.155,0.295Zm-72.54,-0.85l-0.035,-0.07l-0.035,0c0.023,0.023 0.047,0.046 0.07,0.07Zm68.573,-0.07l-0.035,0.069l0.069,-0.069c-0.011,0 -0.023,0 -0.034,0Zm3.271,-0.081l0.119,0.116l-0.084,-0.117c-0.011,0 -0.023,0 -0.035,0.001Zm-75.269,0.115l0.117,-0.115l-0.034,-0.001c-0.027,0.038 -0.055,0.077 -0.083,0.116Z"/><g><clipPath id="_clip2"><path d="M152.033,44.617l8.045,2.417l-51.45,171.257l-8.045,-2.417l51.45,-171.257Z"/></clipPath><g clip-path="url(#_clip2)"><path d="M160.078,47.034l-8.045,-2.417l-51.45,171.257l8.045,2.417l51.45,-171.257Z"/></g><path d="M147.04,208.176c1.908,-4.127 0.107,-9.026 -4.02,-10.934l-15.352,-7.098c-4.126,-1.908 -9.026,-0.107 -10.934,4.02l-6.914,14.954c-1.908,4.127 -0.106,9.026 4.02,10.934l15.352,7.098c4.127,1.908 9.026,0.107 10.934,-4.02l6.914,-14.954Z" style="fill:#ebebeb;fill-opacity:0.556863;"/><path d="M130.33,157.515c-2.153,-4.004 -7.152,-5.507 -11.157,-3.354l-14.895,8.011c-4.004,2.153 -5.507,7.152 -3.354,11.156l7.803,14.51c2.154,4.005 7.153,5.507 11.157,3.354l14.896,-8.01c4.004,-2.154 5.506,-7.153 3.353,-11.157l-7.803,-14.51Z" style="fill:#ebebeb;fill-opacity:0.556863;"/><path d="M145.917,129.878c1.908,-4.127 0.107,-9.026 -4.02,-10.934l-15.351,-7.098c-4.127,-1.908 -9.027,-0.107 -10.935,4.02l-6.914,14.954c-1.908,4.127 -0.106,9.026 4.02,10.934l15.352,7.098c4.127,1.908 9.026,0.107 10.934,-4.02l6.914,-14.954Z" style="fill:#ebebeb;fill-opacity:0.556863;"/></g></g><defs><radialGradient id="_Radial1" cx="0" cy="0" r="1" gradientUnits="userSpaceOnUse" gradientTransform="matrix(36.0014,0,0,78.6574,127.306,155.824)"><stop offset="0" style="stop-color:#ff7f00;stop-opacity:1"/><stop offset="1" style="stop-color:#f4ff00;stop-opacity:1"/></radialGradient></defs></svg>