<?xml version="1.0" encoding="UTF-8" standalone="no"?><!DOCTYPE svg PUBLIC "-//W3C//DTD SVG 1.1//EN" "http://www.w3.org/Graphics/SVG/1.1/DTD/svg11.dtd"><svg width="100%" height="100%" viewBox="0 0 256 256" version="1.1" xmlns="http://www.w3.org/2000/svg" xmlns:xlink="http://www.w3.org/1999/xlink" xml:space="preserve" xmlns:serif="http://www.serif.com/" style="fill-rule:evenodd;clip-rule:evenodd;stroke-linejoin:round;stroke-miterlimit:1.41421;"><g id="_5" serif:id="5"><path d="M170.159,95.93l-6.368,159.188l-72,0l-6.367,-159.188l84.735,0Z" style="fill:url(#_Linear1);"/><rect x="0.232" y="0" width="255.118" height="255.118" style="fill:none;"/><path d="M169.676,70.53c0.379,-0.188 1.315,-0.212 1.315,-0.212c0.213,0.029 0.425,0.057 0.637,0.086c0.197,0.084 0.407,0.142 0.591,0.252c0.184,0.109 0.355,0.245 0.503,0.399c0.299,0.312 0.509,0.699 0.607,1.12c0.049,0.208 0.04,0.426 0.061,0.639l-7.2,180c-0.047,0.239 -0.058,0.489 -0.141,0.718c-0.083,0.23 -0.202,0.449 -0.35,0.643c-0.3,0.392 -0.713,0.683 -1.184,0.832c-0.233,0.073 -0.482,0.074 -0.724,0.111l-72,0c-0.241,-0.037 -0.49,-0.038 -0.723,-0.111c-0.232,-0.074 -0.456,-0.185 -0.656,-0.325c-0.404,-0.284 -0.711,-0.685 -0.878,-1.15c-0.083,-0.229 -0.094,-0.479 -0.141,-0.718l-7.2,-180c0.021,-0.213 0.012,-0.431 0.061,-0.639c0.048,-0.209 0.126,-0.413 0.228,-0.601c0.206,-0.38 0.511,-0.697 0.882,-0.918c0.184,-0.11 0.384,-0.195 0.591,-0.252c0.206,-0.057 0.422,-0.093 0.636,-0.086c0.45,0.015 1.229,0.162 1.62,0.52c0.391,0.358 0.609,1.046 0.728,1.628c0.147,0.713 0.15,2.652 0.15,2.652l3.429,85.717c0.042,1.044 0.9,1.868 1.944,1.868c0.072,0 0.145,0 0.217,0c1.151,0 2.097,0.909 2.143,2.06c0.516,12.886 3.275,81.875 3.275,81.875l59.388,0c0,0 2.751,-68.753 3.273,-81.809c0.047,-1.187 1.024,-2.126 2.213,-2.126l0,0c1.128,0 2.055,-0.89 2.1,-2.017l3.423,-85.568c0,0 0.028,-2.908 0.225,-3.673c0.11,-0.427 0.578,-0.728 0.957,-0.915Z"/><g><clipPath id="_clip2"><path d="M156.606,68.82l8.045,2.417l-55.243,183.881l-8.044,-2.417l55.242,-183.881Z"/></clipPath><g clip-path="url(#_clip2)"><path d="M164.651,71.237l-8.045,-2.417l-55.242,183.881l8.044,2.417l55.243,-183.881Z"/></g><path d="M148.431,222.791c1.908,-4.127 0.106,-9.027 -4.02,-10.935l-15.352,-7.097c-4.127,-1.908 -9.026,-0.107 -10.934,4.02l-6.914,14.954c-1.908,4.127 -0.107,9.026 4.02,10.934l15.351,7.098c4.127,1.908 9.027,0.107 10.935,-4.02l6.914,-14.954Z" style="fill:#ebebeb;fill-opacity:0.556863;"/><path d="M125.328,172.361c-2.153,-4.005 -7.152,-5.507 -11.157,-3.354l-14.895,8.011c-4.004,2.153 -5.507,7.152 -3.354,11.156l7.803,14.51c2.154,4.005 7.153,5.507 11.157,3.354l14.896,-8.011c4.004,-2.153 5.507,-7.152 3.353,-11.156l-7.803,-14.51Z" style="fill:#ebebeb;fill-opacity:0.556863;"/><path d="M162.127,158.808c1.908,-4.127 0.107,-9.026 -4.02,-10.934l-15.351,-7.098c-4.127,-1.908 -9.026,-0.107 -10.934,4.02l-6.915,14.954c-1.907,4.127 -0.106,9.026 4.021,10.934l15.351,7.098c4.127,1.908 9.026,0.107 10.934,-4.02l6.914,-14.954Z" style="fill:#ebebeb;fill-opacity:0.556863;"/></g></g><defs><linearGradient id="_Linear1" x1="0" y1="0" x2="1" y2="0" gradientUnits="userSpaceOnUse" gradientTransform="matrix(9.2056e-15,-150.339,150.339,9.2056e-15,127.791,246.269)"><stop offset="0" style="stop-color:#ff0042;stop-opacity:1"/><stop offset="0.25" style="stop-color:#40ffa0;stop-opacity:1"/><stop offset="0.38" style="stop-color:#60bbff;stop-opacity:1"/><stop offset="0.5" style="stop-color:#ff9f80;stop-opacity:1"/><stop offset="0.75" style="stop-color:#f7ffbf;stop-opacity:1"/><stop offset="0.88" style="stop-color:#ffdffb;stop-opacity:1"/><stop offset="1" style="stop-color:#00eaff;stop-opacity:1"/></linearGradient></defs></svg>