<?xml version="1.0" encoding="UTF-8" standalone="no"?><!DOCTYPE svg PUBLIC "-//W3C//DTD SVG 1.1//EN" "http://www.w3.org/Graphics/SVG/1.1/DTD/svg11.dtd"><svg width="100%" height="100%" viewBox="0 0 256 256" version="1.1" xmlns="http://www.w3.org/2000/svg" xmlns:xlink="http://www.w3.org/1999/xlink" xml:space="preserve" xmlns:serif="http://www.serif.com/" style="fill-rule:evenodd;clip-rule:evenodd;stroke-linejoin:round;stroke-miterlimit:1.41421;"><g id="_67" serif:id="67"><g><path d="M163.067,253.432c0,0 -24.002,-6.118 -36.002,-6.118c-12,0 -35.998,6.118 -35.998,6.118l0,1.92l72,0l0,-1.92Z"/><rect x="122.267" y="171.307" width="9.6" height="78.442"/></g><path d="M183.818,116.157c-5.502,10.208 -16.408,18.551 -30.253,23.294c-1.975,19.006 -13.095,33.581 -26.498,33.581c-13.404,0 -24.524,-14.575 -26.498,-33.581c-13.846,-4.743 -24.752,-13.086 -30.253,-23.294l113.502,0Z" style="fill:url(#_Linear1);"/><path d="M186.604,98.985c0.315,-0.229 0.82,-0.357 1.135,-0.353c0.253,0.004 0.495,0.079 0.743,0.118c0.585,0.299 0.8,0.321 1.2,0.874c0.148,0.202 0.264,0.431 0.341,0.67c0.077,0.238 0.082,0.494 0.116,0.742c0.005,0.034 0,0.069 0,0.103c0,0.107 -0.001,0.213 -0.002,0.32c-0.008,0.565 -0.029,1.131 -0.066,1.696c-0.117,1.817 -0.387,3.623 -0.801,5.396c-0.421,1.8 -0.991,3.565 -1.694,5.274c-0.427,1.039 -0.903,2.058 -1.424,3.053c-0.394,0.753 -0.813,1.492 -1.255,2.217c-0.334,0.549 -0.682,1.089 -1.042,1.621c-2.64,3.896 -5.935,7.326 -9.596,10.273c-0.633,0.509 -1.277,1.004 -1.931,1.485c-0.854,0.629 -1.726,1.233 -2.612,1.814c-1.172,0.769 -2.371,1.496 -3.592,2.185c-1.501,0.845 -3.035,1.631 -4.597,2.359c-1.256,0.586 -2.529,1.134 -3.816,1.645c-0.633,0.252 -1.271,0.494 -1.911,0.729l-0.025,0.009c-0.02,0.147 -0.039,0.295 -0.059,0.442c-0.022,0.152 -0.043,0.304 -0.065,0.456c-0.138,0.94 -0.297,1.877 -0.48,2.809c-0.537,2.733 -1.274,5.428 -2.228,8.045c-0.795,2.183 -1.74,4.313 -2.849,6.355c-1.05,1.934 -2.246,3.79 -3.601,5.525c-1.078,1.38 -2.256,2.682 -3.538,3.875c-1.016,0.945 -2.096,1.821 -3.24,2.608c-1.331,0.916 -2.748,1.71 -4.233,2.347c-1.068,0.457 -2.17,0.833 -3.296,1.118c-1.158,0.292 -2.341,0.486 -3.531,0.577c-1.668,0.127 -3.351,0.053 -5.002,-0.221c-1.117,-0.186 -2.218,-0.462 -3.291,-0.822c-0.8,-0.268 -1.584,-0.582 -2.349,-0.937c-0.584,-0.272 -1.156,-0.568 -1.717,-0.885c-0.384,-0.218 -0.763,-0.447 -1.136,-0.685c-2.629,-1.68 -4.94,-3.829 -6.922,-6.231c-0.345,-0.418 -0.681,-0.845 -1.007,-1.278c-0.37,-0.492 -0.727,-0.993 -1.073,-1.502c-0.463,-0.683 -0.904,-1.379 -1.324,-2.088c-0.551,-0.93 -1.066,-1.88 -1.546,-2.848c-0.649,-1.308 -1.236,-2.648 -1.762,-4.011c-0.662,-1.716 -1.229,-3.468 -1.706,-5.244c-0.456,-1.698 -0.829,-3.417 -1.123,-5.15c-0.122,-0.716 -0.23,-1.435 -0.325,-2.156l-0.013,-0.099c-0.17,-0.062 -0.338,-0.124 -0.507,-0.187c-0.16,-0.06 -0.32,-0.12 -0.479,-0.181c-0.713,-0.272 -1.421,-0.554 -2.125,-0.848c-1.309,-0.547 -2.601,-1.132 -3.875,-1.756c-1.5,-0.736 -2.973,-1.527 -4.413,-2.375c-1.064,-0.626 -2.11,-1.284 -3.135,-1.973c-0.844,-0.568 -1.674,-1.157 -2.487,-1.768c-0.617,-0.464 -1.224,-0.94 -1.821,-1.429c-3.683,-3.016 -6.984,-6.529 -9.595,-10.518c-0.351,-0.536 -0.689,-1.081 -1.014,-1.633c-0.43,-0.731 -0.836,-1.476 -1.216,-2.233c-0.565,-1.128 -1.074,-2.284 -1.519,-3.464c-0.591,-1.566 -1.069,-3.174 -1.425,-4.809c-0.319,-1.471 -0.539,-2.964 -0.656,-4.465c-0.065,-0.845 -0.097,-1.692 -0.098,-2.54l0.117,-0.742c0.113,-0.223 0.193,-0.468 0.34,-0.67c0.298,-0.411 0.718,-0.717 1.201,-0.874c0.238,-0.077 0.492,-0.124 0.742,-0.118c0.538,0.014 1.105,0.092 1.539,0.516c0.439,0.429 0.632,1.071 0.766,1.668c0.161,0.714 0.197,2.616 0.197,2.616c0.142,1.654 0.432,3.293 0.859,4.896c0.294,1.103 0.653,2.189 1.072,3.251c0.312,0.792 0.658,1.571 1.033,2.335c0.258,0.525 0.53,1.043 0.815,1.554c2.012,3.601 4.674,6.815 7.696,9.613c0.505,0.467 1.02,0.924 1.545,1.369c0.615,0.521 1.243,1.027 1.882,1.518c0.852,0.654 1.725,1.282 2.616,1.883c1.19,0.804 2.411,1.561 3.659,2.273c1.554,0.888 3.148,1.705 4.773,2.456c1.463,0.676 2.952,1.298 4.461,1.867c0.676,0.255 1.357,0.5 2.042,0.734l0.604,0.31c0.165,0.155 0.353,0.289 0.494,0.466c0.141,0.177 0.257,0.376 0.343,0.586c0.086,0.209 0.115,0.438 0.166,0.658c0.008,0.036 0.007,0.073 0.011,0.109c0.011,0.106 0.023,0.213 0.035,0.319c0.016,0.142 0.032,0.283 0.049,0.425c0.105,0.873 0.23,1.745 0.378,2.612c0.402,2.369 0.965,4.711 1.702,6.998c0.642,1.994 1.416,3.947 2.335,5.83c0.855,1.753 1.836,3.447 2.956,5.044c0.882,1.258 1.85,2.457 2.911,3.569c1.765,1.847 3.796,3.461 6.076,4.626c0.86,0.439 1.753,0.813 2.671,1.109c0.921,0.296 1.867,0.513 2.826,0.644c1.231,0.168 2.482,0.191 3.719,0.071c0.85,-0.083 1.692,-0.235 2.518,-0.45c0.592,-0.155 1.175,-0.342 1.746,-0.559c0.387,-0.146 0.769,-0.307 1.144,-0.48c2.154,-0.991 4.104,-2.391 5.821,-4.019c0.247,-0.233 0.489,-0.472 0.726,-0.715c0.279,-0.285 0.551,-0.576 0.818,-0.873c0.344,-0.384 0.679,-0.778 1.003,-1.18c0.403,-0.5 0.791,-1.012 1.164,-1.534c0.501,-0.705 0.976,-1.429 1.424,-2.169c0.575,-0.949 1.107,-1.924 1.597,-2.919c0.625,-1.265 1.183,-2.562 1.68,-3.882c0.661,-1.758 1.213,-3.557 1.664,-5.38c0.396,-1.607 0.714,-3.234 0.956,-4.872c0.103,-0.701 0.192,-1.404 0.269,-2.108l0.011,-0.107l0.012,-0.109l0.165,-0.658c0.115,-0.196 0.203,-0.409 0.344,-0.586c0.141,-0.177 0.309,-0.336 0.494,-0.466c0.184,-0.131 0.4,-0.211 0.604,-0.31c0.037,-0.017 0.078,-0.026 0.117,-0.039c0.114,-0.04 0.228,-0.08 0.342,-0.12c0.152,-0.053 0.304,-0.106 0.455,-0.161c0.677,-0.242 1.35,-0.494 2.019,-0.757c1.42,-0.559 2.822,-1.165 4.2,-1.82c1.542,-0.732 3.055,-1.525 4.531,-2.383c1.207,-0.701 2.389,-1.445 3.54,-2.233c0.885,-0.605 1.752,-1.237 2.598,-1.895c0.634,-0.493 1.257,-1.002 1.867,-1.526c0.47,-0.403 0.931,-0.815 1.384,-1.236c2.968,-2.76 5.585,-5.923 7.575,-9.462c0.317,-0.563 0.618,-1.136 0.901,-1.717c0.36,-0.738 0.691,-1.49 0.992,-2.253c0.408,-1.035 0.76,-2.091 1.049,-3.164c0.288,-1.067 0.515,-2.151 0.678,-3.244c0.084,-0.564 0.15,-1.129 0.2,-1.696l0.004,-0.043c0,0 0.081,-1.856 0.309,-2.597c0.081,-0.264 0.162,-0.64 0.3,-0.909c0.218,-0.423 0.493,-0.75 0.758,-0.941Z"/><g><path d="M199.191,88.231l-2.95,-3.411l-69.174,61.937l0.636,0.736l71.488,-59.262Z" style="fill:#94674c;"/><path d="M175.545,101.094c-0.463,1.704 -0.192,3.332 0.888,4.319c0.828,0.756 1.987,1.005 3.229,0.805c0.733,4.12 -1.304,9.764 -5.633,14.501c-5.955,6.517 -14.009,8.866 -17.974,5.243c-3.964,-3.622 -2.348,-11.855 3.608,-18.372c5.041,-5.517 11.587,-8.047 15.882,-6.496Z" style="fill:#3d7148;"/></g><rect x="0.229" y="0.234" width="255.118" height="255.118" style="fill:none;"/></g><defs><linearGradient id="_Linear1" x1="0" y1="0" x2="1" y2="0" gradientUnits="userSpaceOnUse" gradientTransform="matrix(3.26075e-15,53.2522,-53.2522,3.26075e-15,127.067,116.157)"><stop offset="0" style="stop-color:#ff0067;stop-opacity:1"/><stop offset="0.25" style="stop-color:#00ff03;stop-opacity:1"/><stop offset="0.5" style="stop-color:#ff1a00;stop-opacity:1"/><stop offset="0.75" style="stop-color:#f6ff00;stop-opacity:1"/><stop offset="1" style="stop-color:#ff7600;stop-opacity:1"/></linearGradient></defs></svg>