<?xml version="1.0" encoding="UTF-8" standalone="no"?><!DOCTYPE svg PUBLIC "-//W3C//DTD SVG 1.1//EN" "http://www.w3.org/Graphics/SVG/1.1/DTD/svg11.dtd"><svg width="100%" height="100%" viewBox="0 0 256 257" version="1.1" xmlns="http://www.w3.org/2000/svg" xmlns:xlink="http://www.w3.org/1999/xlink" xml:space="preserve" xmlns:serif="http://www.serif.com/" style="fill-rule:evenodd;clip-rule:evenodd;stroke-linejoin:round;stroke-miterlimit:1.41421;"><g id="_8" serif:id="8"><path d="M170.153,97.441l-6.367,159.188l-72,0l-6.368,-159.188l84.735,0Z" style="fill:url(#_Radial1);"/><rect x="0.227" y="0" width="255.118" height="255.118" style="fill:none;"/><g><path d="M137.757,74.516c11.755,-15.885 34.183,-19.326 50.166,-7.654c16.046,11.717 19.56,34.258 7.842,50.304l-58.146,-42.462l0.138,-0.188Z" style="fill:#ffa600;"/><path d="M144.99,79.871c8.817,-11.914 25.638,-14.495 37.625,-5.741c12.035,8.788 14.67,25.693 5.882,37.728l-43.61,-31.847l0.103,-0.14Z" style="fill:#ffe800;"/></g><path d="M169.671,72.04c0.378,-0.188 1.315,-0.211 1.315,-0.211c0.212,0.028 0.424,0.057 0.636,0.086c0.197,0.084 0.407,0.142 0.591,0.252c0.185,0.109 0.355,0.245 0.503,0.399c0.3,0.312 0.51,0.698 0.607,1.119c0.049,0.209 0.041,0.427 0.061,0.64l-7.2,180c-0.047,0.239 -0.058,0.489 -0.14,0.718c-0.083,0.23 -0.203,0.449 -0.351,0.643c-0.3,0.392 -0.713,0.682 -1.184,0.831c-0.232,0.074 -0.482,0.075 -0.723,0.112l-72,0c-0.241,-0.037 -0.491,-0.038 -0.724,-0.112c-0.232,-0.073 -0.456,-0.184 -0.656,-0.324c-0.404,-0.284 -0.71,-0.685 -0.878,-1.15c-0.083,-0.229 -0.093,-0.479 -0.14,-0.718l-7.2,-180c0.02,-0.213 0.012,-0.431 0.06,-0.64c0.049,-0.208 0.126,-0.412 0.228,-0.6c0.206,-0.38 0.511,-0.697 0.882,-0.918c0.184,-0.11 0.385,-0.195 0.591,-0.252c0.207,-0.057 0.423,-0.093 0.637,-0.086c0.45,0.015 1.228,0.162 1.619,0.52c0.392,0.358 0.609,1.045 0.729,1.628c0.146,0.713 0.15,2.652 0.15,2.652l3.428,85.717c0.042,1.044 0.9,1.868 1.945,1.868c0.072,0 0.144,0 0.216,0c1.152,0 2.098,0.909 2.144,2.06c0.515,12.886 3.275,81.875 3.275,81.875l59.388,0c0,0 2.75,-68.753 3.272,-81.809c0.048,-1.188 1.025,-2.126 2.213,-2.126l0.001,0c1.127,0 2.054,-0.89 2.099,-2.017l3.423,-85.568c0,0 0.028,-2.908 0.225,-3.673c0.11,-0.428 0.579,-0.728 0.958,-0.916Z"/></g><defs><radialGradient id="_Radial1" cx="0" cy="0" r="1" gradientUnits="userSpaceOnUse" gradientTransform="matrix(42.3674,0,0,79.5938,127.786,177.035)"><stop offset="0" style="stop-color:#ffb600;stop-opacity:1"/><stop offset="1" style="stop-color:#ffe9c4;stop-opacity:1"/></radialGradient></defs></svg>