<?xml version="1.0" encoding="UTF-8" standalone="no"?><!DOCTYPE svg PUBLIC "-//W3C//DTD SVG 1.1//EN" "http://www.w3.org/Graphics/SVG/1.1/DTD/svg11.dtd"><svg width="100%" height="100%" viewBox="0 0 256 256" version="1.1" xmlns="http://www.w3.org/2000/svg" xmlns:xlink="http://www.w3.org/1999/xlink" xml:space="preserve" xmlns:serif="http://www.serif.com/" style="fill-rule:evenodd;clip-rule:evenodd;stroke-linejoin:round;stroke-miterlimit:1.41421;"><g id="_9" serif:id="9"><path d="M170.151,95.93l-6.367,159.188l-72,0l-6.368,-159.188l84.735,0Z" style="fill:#9cff00;"/><rect x="0.225" y="0" width="255.118" height="255.118" style="fill:none;"/><g><path d="M135.975,68.155c10.835,-14.641 31.505,-17.812 46.236,-7.054c14.788,10.799 18.027,31.574 7.227,46.362l-53.59,-39.135l0.127,-0.173Z" style="fill:#0e910b;"/><path d="M142.642,73.09c8.126,-10.98 23.629,-13.359 34.677,-5.291c11.091,8.1 13.52,23.681 5.421,34.772l-40.193,-29.351l0.095,-0.13Z" style="fill:#70ff6c;"/></g><path d="M169.669,70.53c0.378,-0.188 1.315,-0.212 1.315,-0.212c0.212,0.029 0.424,0.057 0.636,0.086c0.197,0.084 0.407,0.142 0.592,0.252c0.184,0.109 0.354,0.245 0.503,0.399c0.299,0.312 0.509,0.699 0.607,1.12c0.048,0.208 0.04,0.426 0.06,0.639l-7.2,180c-0.047,0.239 -0.058,0.489 -0.14,0.718c-0.083,0.23 -0.203,0.449 -0.351,0.643c-0.3,0.392 -0.713,0.683 -1.184,0.832c-0.232,0.073 -0.482,0.074 -0.723,0.111l-72,0c-0.241,-0.037 -0.491,-0.038 -0.723,-0.111c-0.233,-0.074 -0.457,-0.185 -0.657,-0.325c-0.404,-0.284 -0.71,-0.685 -0.878,-1.15c-0.083,-0.229 -0.093,-0.479 -0.14,-0.718l-7.2,-180c0.02,-0.213 0.012,-0.431 0.06,-0.639c0.049,-0.209 0.126,-0.413 0.228,-0.601c0.206,-0.38 0.511,-0.697 0.882,-0.918c0.184,-0.11 0.385,-0.195 0.591,-0.252c0.207,-0.057 0.423,-0.093 0.637,-0.086c0.45,0.015 1.228,0.162 1.619,0.52c0.392,0.358 0.609,1.046 0.729,1.628c0.146,0.713 0.15,2.652 0.15,2.652l3.428,85.717c0.042,1.044 0.9,1.868 1.945,1.868c0.072,0 0.144,0 0.216,0c1.152,0 2.098,0.909 2.144,2.06c0.515,12.886 3.275,81.875 3.275,81.875l59.388,0c0,0 2.75,-68.753 3.272,-81.809c0.048,-1.187 1.025,-2.126 2.213,-2.126l0.001,0c1.127,0 2.054,-0.89 2.099,-2.017l3.423,-85.568c0,0 0.028,-2.908 0.225,-3.673c0.111,-0.427 0.579,-0.728 0.958,-0.915Z"/></g></svg>