<?xml version="1.0" encoding="UTF-8" standalone="no"?>
<!DOCTYPE svg PUBLIC "-//W3C//DTD SVG 1.1//EN" "http://www.w3.org/Graphics/SVG/1.1/DTD/svg11.dtd">
<svg width="100%" height="100%" viewBox="0 0 505 213" version="1.1" xmlns="http://www.w3.org/2000/svg" xmlns:xlink="http://www.w3.org/1999/xlink" xml:space="preserve" style="fill-rule:evenodd;clip-rule:evenodd;stroke-linejoin:round;stroke-miterlimit:1.41421;">
    <g transform="matrix(4.15394,0,0,3.50651,-72.1404,-64.9579)">
        <path d="M29.823,68.071L26.537,63.05L26.537,68.071L26.121,68.071L26.121,62.402L26.593,62.402L29.887,67.416L29.887,62.402L30.295,62.402L30.295,68.071L29.823,68.071Z" style="fill:rgb(0,60,89);fill-rule:nonzero;"/>
        <path d="M35.257,68.095C34.761,68.095 34.626,67.735 34.626,67.311C34.41,67.879 33.802,68.174 33.187,68.174C32.412,68.174 31.812,67.711 31.812,66.944C31.812,66.232 32.364,65.808 33.155,65.753L34.626,65.649L34.626,65.257C34.626,64.593 34.178,64.346 33.57,64.346C32.939,64.346 32.459,64.633 32.419,65.225L32.02,65.225C32.076,64.417 32.708,63.97 33.571,63.97C34.115,63.97 34.707,64.154 34.923,64.705C35.019,64.953 35.027,65.209 35.027,65.473L35.027,67.296C35.027,67.567 35.067,67.728 35.339,67.728C35.387,67.728 35.411,67.728 35.451,67.72L35.451,68.072C35.354,68.086 35.354,68.095 35.257,68.095ZM34.626,66.016L33.195,66.104C32.603,66.144 32.219,66.456 32.219,66.944C32.219,67.519 32.651,67.807 33.219,67.807C34.226,67.807 34.626,66.992 34.626,66.224L34.626,66.016Z" style="fill:rgb(0,60,89);fill-rule:nonzero;"/>
        <path d="M38.045,68.126C37.301,68.126 37.014,67.654 37.014,66.959L37.014,64.44L36.214,64.44L36.214,64.072L37.014,64.072L37.014,62.968L37.413,62.872L37.413,64.071L38.652,64.071L38.652,64.439L37.413,64.439L37.413,66.942C37.413,67.414 37.541,67.749 38.077,67.749C38.293,67.749 38.493,67.718 38.709,67.678L38.709,68.03C38.484,68.079 38.269,68.126 38.045,68.126Z" style="fill:rgb(0,60,89);fill-rule:nonzero;"/>
        <path d="M39.954,62.961L39.954,62.401L40.514,62.401L40.514,62.961L39.954,62.961ZM40.025,68.071L40.025,64.073L40.449,64.073L40.449,68.071L40.025,68.071Z" style="fill:rgb(0,60,89);fill-rule:nonzero;"/>
        <path d="M44.828,67.695C44.548,67.975 44.157,68.174 43.661,68.174C43.165,68.174 42.774,67.975 42.494,67.695C42.078,67.279 41.926,66.752 41.926,66.072C41.926,65.392 42.078,64.865 42.494,64.449C42.774,64.169 43.165,63.97 43.661,63.97C44.157,63.97 44.549,64.169 44.828,64.449C45.244,64.865 45.396,65.392 45.396,66.072C45.396,66.752 45.244,67.279 44.828,67.695ZM44.54,64.712C44.332,64.496 44.044,64.36 43.66,64.36C43.276,64.36 42.989,64.496 42.781,64.712C42.421,65.088 42.333,65.552 42.333,66.071C42.333,66.59 42.421,67.054 42.781,67.43C42.989,67.646 43.277,67.782 43.66,67.782C44.043,67.782 44.332,67.646 44.54,67.43C44.899,67.054 44.988,66.59 44.988,66.071C44.988,65.552 44.899,65.088 44.54,64.712Z" style="fill:rgb(0,60,89);fill-rule:nonzero;"/>
        <path d="M49.629,68.071L49.629,65.457C49.629,64.761 49.325,64.361 48.597,64.361C47.614,64.361 47.27,65.209 47.27,66.072L47.27,68.071L46.87,68.071L46.87,64.073L47.222,64.073L47.27,64.8C47.494,64.297 48.062,63.969 48.621,63.969C49.54,63.969 50.028,64.536 50.028,65.432L50.028,68.071L49.629,68.071Z" style="fill:rgb(0,60,89);fill-rule:nonzero;"/>
        <path d="M54.878,68.095C54.382,68.095 54.247,67.735 54.247,67.311C54.031,67.879 53.423,68.174 52.808,68.174C52.033,68.174 51.433,67.711 51.433,66.944C51.433,66.232 51.985,65.808 52.776,65.753L54.247,65.649L54.247,65.257C54.247,64.593 53.799,64.346 53.191,64.346C52.56,64.346 52.08,64.633 52.04,65.225L51.641,65.225C51.697,64.417 52.329,63.97 53.192,63.97C53.736,63.97 54.328,64.154 54.544,64.705C54.64,64.953 54.648,65.209 54.648,65.473L54.648,67.296C54.648,67.567 54.688,67.728 54.96,67.728C55.008,67.728 55.032,67.728 55.072,67.72L55.072,68.072C54.975,68.086 54.975,68.095 54.878,68.095ZM54.247,66.016L52.816,66.104C52.224,66.144 51.84,66.456 51.84,66.944C51.84,67.519 52.272,67.807 52.84,67.807C53.847,67.807 54.247,66.992 54.247,66.224L54.247,66.016Z" style="fill:rgb(0,60,89);fill-rule:nonzero;"/>
        <path d="M57.199,68.119C56.687,68.119 56.399,67.855 56.399,67.271L56.399,62.298L56.799,62.298L56.799,67.255C56.799,67.526 56.879,67.734 57.215,67.734C57.375,67.734 57.447,67.734 57.559,67.718L57.559,68.07C57.471,68.095 57.367,68.119 57.199,68.119Z" style="fill:rgb(0,60,89);fill-rule:nonzero;"/>
        <path d="M61.903,66.167L58.849,66.167C58.857,66.631 59.009,67.063 59.265,67.367C59.489,67.631 59.801,67.79 60.233,67.79C60.585,67.79 60.888,67.662 61.104,67.438C61.248,67.287 61.36,67.111 61.408,66.871L61.824,66.871C61.768,67.215 61.6,67.494 61.376,67.711C61.088,67.998 60.688,68.174 60.233,68.174C59.657,68.174 59.25,67.935 58.962,67.607C58.634,67.223 58.45,66.696 58.45,66.088C58.45,65.584 58.53,65.088 58.842,64.664C59.178,64.208 59.642,63.969 60.201,63.969C61.281,63.969 61.912,64.897 61.912,65.904C61.911,66 61.903,66.072 61.903,66.167ZM60.2,64.345C59.377,64.345 58.857,65.008 58.857,65.8L61.503,65.8C61.487,65.041 61.016,64.345 60.2,64.345Z" style="fill:rgb(0,60,89);fill-rule:nonzero;"/>
        <path d="M65.989,67.695C65.701,68.015 65.221,68.174 64.694,68.174C64.151,68.174 63.687,68.006 63.383,67.662C63.159,67.406 63.063,67.183 63.047,66.855L63.455,66.855C63.479,67.094 63.583,67.302 63.751,67.47C63.983,67.694 64.311,67.789 64.694,67.789C65.11,67.789 65.438,67.693 65.638,67.493C65.782,67.349 65.854,67.214 65.854,66.981C65.854,66.622 65.598,66.318 65.118,66.253L64.343,66.149C64.015,66.109 63.663,66.005 63.44,65.75C63.296,65.582 63.216,65.374 63.216,65.118C63.216,64.798 63.352,64.534 63.56,64.343C63.848,64.078 64.24,63.967 64.656,63.967C65.135,63.967 65.591,64.118 65.863,64.439C66.047,64.655 66.159,64.918 66.167,65.174L65.767,65.174C65.751,65.046 65.695,64.846 65.567,64.695C65.383,64.479 65.071,64.343 64.656,64.343C64.344,64.343 64.112,64.399 63.936,64.527C63.736,64.671 63.624,64.863 63.624,65.079C63.624,65.415 63.792,65.671 64.4,65.751L65.159,65.855C65.911,65.959 66.263,66.47 66.263,66.959C66.261,67.255 66.165,67.495 65.989,67.695Z" style="fill:rgb(0,60,89);fill-rule:nonzero;"/>
        <path d="M72.42,65.552L73.571,68.071L73.115,68.071L72.004,65.656L70.03,65.656L70.03,68.071L69.614,68.071L69.614,62.402L71.685,62.402C72.924,62.402 73.596,63.049 73.596,64.033C73.596,64.777 73.132,65.36 72.42,65.552ZM71.685,62.793L70.03,62.793L70.03,65.272L71.685,65.272C72.62,65.272 73.164,64.84 73.164,64.033C73.164,63.226 72.62,62.793 71.685,62.793Z" style="fill:rgb(0,60,89);fill-rule:nonzero;"/>
        <path d="M78.104,66.167L75.05,66.167C75.058,66.631 75.21,67.063 75.466,67.367C75.69,67.631 76.002,67.79 76.434,67.79C76.786,67.79 77.089,67.662 77.306,67.438C77.45,67.287 77.562,67.111 77.61,66.871L78.026,66.871C77.97,67.215 77.802,67.494 77.578,67.711C77.29,67.998 76.89,68.174 76.435,68.174C75.859,68.174 75.451,67.935 75.164,67.607C74.836,67.223 74.652,66.696 74.652,66.088C74.652,65.584 74.732,65.088 75.044,64.664C75.38,64.208 75.844,63.969 76.403,63.969C77.483,63.969 78.114,64.897 78.114,65.904C78.112,66 78.104,66.072 78.104,66.167ZM76.401,64.345C75.577,64.345 75.058,65.008 75.058,65.8L77.704,65.8C77.688,65.041 77.216,64.345 76.401,64.345Z" style="fill:rgb(0,60,89);fill-rule:nonzero;"/>
        <path d="M80.948,62.61C80.444,62.61 80.188,62.874 80.188,63.385L80.188,64.073L81.443,64.073L81.443,64.441L80.188,64.441L80.188,68.071L79.789,68.071L79.789,64.441L78.989,64.441L78.989,64.073L79.789,64.073L79.789,63.37C79.789,62.763 80.164,62.251 80.916,62.251C81.148,62.251 81.332,62.267 81.524,62.299L81.524,62.658C81.364,62.633 81.18,62.61 80.948,62.61Z" style="fill:rgb(0,60,89);fill-rule:nonzero;"/>
        <path d="M85.7,66.167L82.646,66.167C82.654,66.631 82.806,67.063 83.062,67.367C83.286,67.631 83.598,67.79 84.03,67.79C84.382,67.79 84.685,67.662 84.901,67.438C85.045,67.287 85.157,67.111 85.205,66.871L85.621,66.871C85.565,67.215 85.397,67.494 85.173,67.711C84.885,67.998 84.485,68.174 84.03,68.174C83.454,68.174 83.047,67.935 82.759,67.607C82.431,67.223 82.247,66.696 82.247,66.088C82.247,65.584 82.327,65.088 82.639,64.664C82.975,64.208 83.439,63.969 83.998,63.969C85.078,63.969 85.709,64.897 85.709,65.904C85.708,66 85.7,66.072 85.7,66.167ZM83.997,64.345C83.174,64.345 82.654,65.008 82.654,65.8L85.3,65.8C85.284,65.041 84.812,64.345 83.997,64.345Z" style="fill:rgb(0,60,89);fill-rule:nonzero;"/>
        <path d="M88.815,64.417C87.816,64.417 87.544,65.313 87.544,66.152L87.544,68.071L87.144,68.071L87.144,64.073L87.496,64.073L87.544,64.881C87.72,64.329 88.255,64.033 88.815,64.033C88.943,64.033 89.079,64.033 89.207,64.057L89.207,64.456C89.08,64.424 88.943,64.417 88.815,64.417Z" style="fill:rgb(0,60,89);fill-rule:nonzero;"/>
        <path d="M93.515,66.167L90.461,66.167C90.469,66.631 90.621,67.063 90.877,67.367C91.101,67.631 91.413,67.79 91.845,67.79C92.197,67.79 92.5,67.662 92.717,67.438C92.861,67.287 92.973,67.111 93.021,66.871L93.437,66.871C93.381,67.215 93.213,67.494 92.989,67.711C92.701,67.998 92.301,68.174 91.846,68.174C91.27,68.174 90.862,67.935 90.575,67.607C90.247,67.223 90.063,66.696 90.063,66.088C90.063,65.584 90.143,65.088 90.455,64.664C90.791,64.208 91.255,63.969 91.814,63.969C92.894,63.969 93.525,64.897 93.525,65.904C93.523,66 93.515,66.072 93.515,66.167ZM91.812,64.345C90.988,64.345 90.469,65.008 90.469,65.8L93.115,65.8C93.1,65.041 92.627,64.345 91.812,64.345Z" style="fill:rgb(0,60,89);fill-rule:nonzero;"/>
        <path d="M97.718,68.071L97.718,65.457C97.718,64.761 97.414,64.361 96.687,64.361C95.704,64.361 95.36,65.209 95.36,66.072L95.36,68.071L94.96,68.071L94.96,64.073L95.312,64.073L95.36,64.801C95.584,64.298 96.152,63.97 96.711,63.97C97.63,63.97 98.118,64.537 98.118,65.433L98.118,68.072L97.718,68.072L97.718,68.071Z" style="fill:rgb(0,60,89);fill-rule:nonzero;"/>
        <path d="M99.491,68.071L99.491,67.624L102.05,64.449L99.491,64.449L99.491,64.073L102.481,64.073L102.481,64.513L99.922,67.687L102.505,67.687L102.505,68.071L99.491,68.071Z" style="fill:rgb(0,60,89);fill-rule:nonzero;"/>
        <path d="M106.713,67.759C106.449,68.015 106.089,68.174 105.626,68.174C105.058,68.174 104.506,67.855 104.291,67.399L104.291,69.67L103.891,69.67L103.891,64.072L104.243,64.072L104.291,64.776C104.507,64.28 105.083,63.968 105.618,63.968C106.074,63.968 106.418,64.112 106.681,64.344C107.129,64.736 107.337,65.375 107.337,66.063C107.337,66.719 107.137,67.359 106.713,67.759ZM106.401,64.641C106.201,64.464 105.945,64.361 105.609,64.361C105.257,64.361 104.993,64.489 104.793,64.68C104.434,65.033 104.281,65.52 104.281,66.072C104.281,66.664 104.417,67.128 104.785,67.471C104.985,67.662 105.257,67.783 105.625,67.783C106,67.783 106.272,67.647 106.48,67.431C106.792,67.095 106.928,66.583 106.928,66.072C106.929,65.504 106.769,64.968 106.401,64.641Z" style="fill:rgb(0,60,89);fill-rule:nonzero;"/>
        <path d="M110.475,64.417C109.475,64.417 109.204,65.313 109.204,66.152L109.204,68.071L108.804,68.071L108.804,64.073L109.156,64.073L109.204,64.881C109.38,64.329 109.915,64.033 110.475,64.033C110.603,64.033 110.739,64.033 110.867,64.057L110.867,64.456C110.738,64.424 110.603,64.417 110.475,64.417Z" style="fill:rgb(0,60,89);fill-rule:nonzero;"/>
        <path d="M114.626,67.695C114.346,67.975 113.955,68.174 113.459,68.174C112.963,68.174 112.572,67.975 112.292,67.695C111.876,67.279 111.724,66.752 111.724,66.072C111.724,65.392 111.876,64.865 112.292,64.449C112.572,64.169 112.963,63.97 113.459,63.97C113.955,63.97 114.347,64.169 114.626,64.449C115.042,64.865 115.194,65.392 115.194,66.072C115.194,66.752 115.042,67.279 114.626,67.695ZM114.338,64.712C114.13,64.496 113.842,64.36 113.458,64.36C113.074,64.36 112.787,64.496 112.579,64.712C112.219,65.088 112.131,65.552 112.131,66.071C112.131,66.59 112.219,67.054 112.579,67.43C112.787,67.646 113.075,67.782 113.458,67.782C113.841,67.782 114.13,67.646 114.338,67.43C114.698,67.054 114.786,66.59 114.786,66.071C114.786,65.552 114.698,65.088 114.338,64.712Z" style="fill:rgb(0,60,89);fill-rule:nonzero;"/>
        <path d="M116.15,69.726C115.918,69.726 115.79,69.702 115.598,69.67L115.598,69.302C115.758,69.325 115.886,69.35 116.118,69.35C116.59,69.35 116.782,69.062 116.782,68.567L116.782,64.073L117.182,64.073L117.182,68.583C117.182,69.247 116.901,69.726 116.15,69.726ZM116.694,62.961L116.694,62.401L117.245,62.401L117.245,62.961L116.694,62.961Z" style="fill:rgb(0,60,89);fill-rule:nonzero;"/>
        <path d="M122.102,66.167L119.048,66.167C119.056,66.631 119.208,67.063 119.464,67.367C119.688,67.631 120,67.79 120.432,67.79C120.784,67.79 121.087,67.662 121.303,67.438C121.447,67.287 121.559,67.111 121.607,66.871L122.023,66.871C121.967,67.215 121.799,67.494 121.575,67.711C121.287,67.998 120.887,68.174 120.432,68.174C119.856,68.174 119.449,67.935 119.161,67.607C118.833,67.223 118.649,66.696 118.649,66.088C118.649,65.584 118.729,65.088 119.041,64.664C119.377,64.208 119.841,63.969 120.4,63.969C121.48,63.969 122.111,64.897 122.111,65.904C122.109,66 122.102,66.072 122.102,66.167ZM120.398,64.345C119.575,64.345 119.055,65.008 119.055,65.8L121.701,65.8C121.686,65.041 121.214,64.345 120.398,64.345Z" style="fill:rgb(0,60,89);fill-rule:nonzero;"/>
        <path d="M126.409,68.071L125.002,65.936L123.955,67.08L123.955,68.071L123.547,68.071L123.547,62.299L123.955,62.299L123.955,66.504L126.202,64.073L126.705,64.073L125.29,65.616L126.897,68.071L126.409,68.071Z" style="fill:rgb(0,60,89);fill-rule:nonzero;"/>
        <path d="M129.55,68.126C128.806,68.126 128.518,67.654 128.518,66.959L128.518,64.44L127.719,64.44L127.719,64.072L128.518,64.072L128.518,62.968L128.918,62.872L128.918,64.071L130.157,64.071L130.157,64.439L128.918,64.439L128.918,66.942C128.918,67.414 129.046,67.749 129.582,67.749C129.798,67.749 129.998,67.718 130.214,67.678L130.214,68.03C129.99,68.079 129.774,68.126 129.55,68.126Z" style="fill:rgb(0,60,89);fill-rule:nonzero;"/>
        <rect x="22.192" y="73.402" width="1.047" height="5.669" style="fill:rgb(0,60,89);"/>
        <path d="M26.93,74.362L26.93,79.071L25.899,79.071L25.899,74.362L24.22,74.362L24.22,73.402L28.61,73.402L28.61,74.362L26.93,74.362Z" style="fill:rgb(0,60,89);fill-rule:nonzero;"/>
        <rect x="28.814" y="76.16" width="2.743" height="0.896" style="fill:rgb(0,60,89);"/>
        <path d="M36.556,78.567C36.124,78.999 35.461,79.174 34.765,79.174C34.165,79.174 33.534,79.015 33.07,78.591C32.734,78.287 32.478,77.807 32.478,77.272L33.534,77.272C33.534,77.551 33.662,77.799 33.83,77.967C34.07,78.207 34.454,78.271 34.781,78.271C35.173,78.271 35.549,78.191 35.764,77.967C35.892,77.831 35.988,77.696 35.988,77.423C35.988,77.008 35.668,76.816 35.316,76.752C34.932,76.68 34.437,76.664 34.061,76.6C33.277,76.472 32.622,75.96 32.622,75.017C32.622,74.569 32.822,74.194 33.118,73.898C33.494,73.53 34.118,73.298 34.781,73.298C35.389,73.298 35.981,73.489 36.364,73.85C36.699,74.169 36.931,74.585 36.939,75.057L35.884,75.057C35.876,74.857 35.772,74.641 35.636,74.497C35.452,74.305 35.076,74.193 34.773,74.193C34.453,74.193 34.085,74.264 33.854,74.505C33.734,74.633 33.662,74.776 33.662,74.984C33.662,75.352 33.902,75.544 34.238,75.6C34.598,75.656 35.101,75.696 35.469,75.744C36.316,75.864 37.028,76.416 37.028,77.383C37.028,77.912 36.836,78.288 36.556,78.567Z" style="fill:rgb(0,60,89);fill-rule:nonzero;"/>
        <path d="M38.167,74.337L38.167,73.306L39.239,73.306L39.239,74.337L38.167,74.337ZM38.199,79.071L38.199,74.913L39.215,74.913L39.215,79.071L38.199,79.071Z" style="fill:rgb(0,60,89);fill-rule:nonzero;"/>
        <path d="M43.746,78.503C43.458,78.862 42.954,79.158 42.323,79.158C41.692,79.158 41.164,78.854 40.876,78.503C40.564,78.111 40.42,77.591 40.42,76.983C40.42,76.375 40.564,75.856 40.876,75.463C41.164,75.111 41.691,74.808 42.323,74.808C42.955,74.808 43.458,75.104 43.746,75.463C43.938,75.711 44.05,76.039 44.066,76.367L43.083,76.367C43.075,76.215 43.027,76.087 42.963,75.983C42.843,75.798 42.627,75.671 42.323,75.671C42.051,75.671 41.851,75.783 41.716,75.927C41.476,76.191 41.436,76.591 41.436,76.983C41.436,77.375 41.476,77.766 41.716,78.031C41.852,78.175 42.051,78.295 42.323,78.295C42.627,78.295 42.843,78.167 42.963,77.983C43.027,77.879 43.075,77.752 43.083,77.6L44.066,77.6C44.049,77.927 43.938,78.255 43.746,78.503Z" style="fill:rgb(0,60,89);fill-rule:nonzero;"/>
        <path d="M47.779,79.071L47.779,76.505C47.779,76.026 47.619,75.73 47.091,75.73C46.491,75.73 46.236,76.37 46.236,76.881L46.236,79.071L45.236,79.071L45.236,73.299L46.236,73.299L46.236,75.354C46.476,75.002 46.94,74.81 47.371,74.81C48.259,74.81 48.778,75.442 48.778,76.297L48.778,79.071L47.779,79.071Z" style="fill:rgb(0,60,89);fill-rule:nonzero;"/>
        <path d="M53.74,77.304L50.957,77.304C50.949,77.623 51.061,77.927 51.261,78.119C51.405,78.255 51.605,78.375 51.876,78.375C52.164,78.375 52.34,78.318 52.484,78.175C52.572,78.087 52.644,77.975 52.684,77.823L53.643,77.823C53.619,78.071 53.451,78.398 53.291,78.591C52.939,79.006 52.419,79.174 51.892,79.174C51.325,79.174 50.909,78.975 50.581,78.662C50.165,78.263 49.941,77.679 49.941,76.999C49.941,76.336 50.141,75.744 50.541,75.336C50.853,75.017 51.301,74.809 51.868,74.809C52.484,74.809 53.043,75.057 53.387,75.577C53.691,76.033 53.763,76.505 53.747,77.024C53.748,77.024 53.74,77.215 53.74,77.304ZM52.493,75.848C52.357,75.704 52.149,75.609 51.862,75.609C51.558,75.609 51.31,75.737 51.166,75.928C51.022,76.113 50.958,76.304 50.95,76.576L52.749,76.576C52.741,76.264 52.653,76.025 52.493,75.848Z" style="fill:rgb(0,60,89);fill-rule:nonzero;"/>
        <path d="M57.031,75.8C56.327,75.8 55.959,76.304 55.959,76.976L55.959,79.071L54.952,79.071L54.952,74.913L55.8,74.913L55.888,75.537C56.08,75.058 56.576,74.857 57.063,74.857C57.167,74.857 57.271,74.865 57.375,74.881L57.375,75.84C57.263,75.817 57.143,75.8 57.031,75.8Z" style="fill:rgb(0,60,89);fill-rule:nonzero;"/>
        <path d="M60.92,79.071L60.92,76.505C60.92,76.026 60.76,75.73 60.232,75.73C59.632,75.73 59.377,76.37 59.377,76.881L59.377,79.071L58.377,79.071L58.377,73.299L59.377,73.299L59.377,75.354C59.617,75.002 60.081,74.81 60.512,74.81C61.4,74.81 61.919,75.442 61.919,76.297L61.919,79.071L60.92,79.071Z" style="fill:rgb(0,60,89);fill-rule:nonzero;"/>
        <path d="M66.881,77.304L64.098,77.304C64.09,77.623 64.202,77.927 64.402,78.119C64.546,78.255 64.746,78.375 65.017,78.375C65.305,78.375 65.481,78.318 65.625,78.175C65.713,78.087 65.785,77.975 65.825,77.823L66.784,77.823C66.76,78.071 66.592,78.398 66.432,78.591C66.08,79.006 65.56,79.174 65.033,79.174C64.466,79.174 64.05,78.975 63.722,78.662C63.306,78.263 63.082,77.679 63.082,76.999C63.082,76.336 63.282,75.744 63.682,75.336C63.994,75.017 64.442,74.809 65.009,74.809C65.625,74.809 66.184,75.057 66.528,75.577C66.832,76.033 66.904,76.505 66.888,77.024C66.889,77.024 66.881,77.215 66.881,77.304ZM65.633,75.848C65.497,75.704 65.289,75.609 65.002,75.609C64.698,75.609 64.45,75.737 64.306,75.928C64.162,76.113 64.098,76.304 64.09,76.576L65.889,76.576C65.881,76.264 65.793,76.025 65.633,75.848Z" style="fill:rgb(0,60,89);fill-rule:nonzero;"/>
        <path d="M68.06,74.337L68.06,73.306L69.131,73.306L69.131,74.337L68.06,74.337ZM68.091,79.071L68.091,74.913L69.107,74.913L69.107,79.071L68.091,79.071Z" style="fill:rgb(0,60,89);fill-rule:nonzero;"/>
        <path d="M72.118,79.126C71.279,79.126 70.863,78.647 70.863,77.847L70.863,75.737L70.103,75.737L70.103,74.913L70.863,74.913L70.863,73.858L71.862,73.61L71.862,74.913L72.91,74.913L72.91,75.737L71.862,75.737L71.862,77.759C71.862,78.079 72.006,78.215 72.326,78.215C72.534,78.215 72.702,78.207 72.973,78.175L72.973,79.015C72.694,79.086 72.414,79.126 72.118,79.126Z" style="fill:rgb(0,60,89);fill-rule:nonzero;"/>
        <path d="M76.039,74.337L76.039,73.306L77.11,73.306L77.11,74.337L76.039,74.337ZM76.071,79.071L76.071,74.913L77.087,74.913L77.087,79.071L76.071,79.071Z" style="fill:rgb(0,60,89);fill-rule:nonzero;"/>
        <path d="M81.006,79.071L81.006,76.52C81.006,76.033 80.846,75.737 80.318,75.737C79.966,75.737 79.735,75.961 79.599,76.264C79.455,76.592 79.463,77.024 79.463,77.375L79.463,79.07L78.463,79.07L78.463,74.912L79.303,74.912L79.375,75.448C79.623,75.009 80.119,74.808 80.598,74.808C81.486,74.808 82.005,75.432 82.005,76.295L82.005,79.069L81.006,79.069L81.006,79.071Z" style="fill:rgb(0,60,89);fill-rule:nonzero;"/>
        <rect x="85.223" y="73.402" width="1.047" height="5.669" style="fill:rgb(0,60,89);"/>
        <path d="M90.281,79.071L90.281,76.52C90.281,76.033 90.121,75.737 89.593,75.737C89.241,75.737 89.01,75.961 88.873,76.264C88.729,76.592 88.737,77.024 88.737,77.375L88.737,79.07L87.737,79.07L87.737,74.912L88.577,74.912L88.649,75.448C88.897,75.009 89.393,74.808 89.872,74.808C90.76,74.808 91.279,75.432 91.279,76.295L91.279,79.069L90.281,79.069L90.281,79.071Z" style="fill:rgb(0,60,89);fill-rule:nonzero;"/>
        <path d="M95.439,79.071L95.375,78.615C95.127,78.999 94.663,79.167 94.208,79.167C93.792,79.167 93.448,79.023 93.192,78.815C92.696,78.407 92.457,77.784 92.457,77C92.457,76.185 92.705,75.554 93.201,75.146C93.457,74.938 93.792,74.81 94.216,74.81C94.744,74.81 95.128,74.986 95.303,75.202L95.303,73.3L96.303,73.3L96.303,79.072L95.439,79.072L95.439,79.071ZM94.407,75.649C94.095,75.649 93.88,75.793 93.736,75.976C93.528,76.248 93.472,76.624 93.472,76.984C93.472,77.344 93.528,77.727 93.736,78C93.88,78.184 94.096,78.328 94.407,78.328C95.191,78.328 95.35,77.584 95.35,76.984C95.35,76.384 95.191,75.649 94.407,75.649Z" style="fill:rgb(0,60,89);fill-rule:nonzero;"/>
        <path d="M100.423,79.071L100.351,78.527C100.151,78.935 99.687,79.174 99.16,79.174C98.272,79.174 97.721,78.574 97.721,77.688L97.721,74.913L98.721,74.913L98.721,77.464C98.721,77.952 98.913,78.256 99.441,78.256C99.673,78.256 99.833,78.168 99.953,78.048C100.193,77.824 100.257,77.448 100.257,77.112L100.257,74.913L101.257,74.913L101.257,79.071L100.423,79.071Z" style="fill:rgb(0,60,89);fill-rule:nonzero;"/>
        <path d="M105.634,78.695C105.298,79.031 104.779,79.174 104.211,79.174C103.683,79.174 103.211,79.023 102.868,78.695C102.628,78.464 102.429,78.12 102.429,77.727L103.364,77.727C103.364,77.912 103.46,78.112 103.588,78.215C103.748,78.343 103.932,78.399 104.22,78.399C104.555,78.399 105.067,78.328 105.067,77.872C105.067,77.632 104.907,77.472 104.651,77.433C104.283,77.376 103.867,77.353 103.5,77.273C102.932,77.153 102.548,76.689 102.548,76.162C102.548,75.738 102.724,75.442 102.972,75.226C103.276,74.962 103.716,74.81 104.235,74.81C104.731,74.81 105.235,74.97 105.538,75.298C105.762,75.537 105.906,75.849 105.906,76.153L104.954,76.153C104.954,75.993 104.882,75.865 104.786,75.76C104.666,75.641 104.45,75.569 104.243,75.569C104.099,75.569 103.963,75.569 103.811,75.632C103.635,75.704 103.491,75.857 103.491,76.072C103.491,76.368 103.747,76.456 103.971,76.487C104.347,76.536 104.45,76.544 104.859,76.607C105.514,76.711 105.994,77.127 105.994,77.783C105.994,78.183 105.85,78.479 105.634,78.695Z" style="fill:rgb(0,60,89);fill-rule:nonzero;"/>
        <path d="M108.787,79.126C107.948,79.126 107.532,78.647 107.532,77.847L107.532,75.737L106.772,75.737L106.772,74.913L107.532,74.913L107.532,73.858L108.531,73.61L108.531,74.913L109.579,74.913L109.579,75.737L108.531,75.737L108.531,77.759C108.531,78.079 108.675,78.215 108.995,78.215C109.203,78.215 109.371,78.207 109.642,78.175L109.642,79.015C109.363,79.086 109.083,79.126 108.787,79.126Z" style="fill:rgb(0,60,89);fill-rule:nonzero;"/>
        <path d="M112.842,75.8C112.138,75.8 111.77,76.304 111.77,76.976L111.77,79.071L110.763,79.071L110.763,74.913L111.611,74.913L111.699,75.537C111.891,75.058 112.387,74.857 112.874,74.857C112.978,74.857 113.082,74.865 113.186,74.881L113.186,75.84C113.074,75.817 112.954,75.8 112.842,75.8Z" style="fill:rgb(0,60,89);fill-rule:nonzero;"/>
        <path d="M114.163,74.337L114.163,73.306L115.234,73.306L115.234,74.337L114.163,74.337ZM114.195,79.071L114.195,74.913L115.211,74.913L115.211,79.071L114.195,79.071Z" style="fill:rgb(0,60,89);fill-rule:nonzero;"/>
        <path d="M120.213,77.304L117.43,77.304C117.422,77.623 117.534,77.927 117.734,78.119C117.878,78.255 118.078,78.375 118.349,78.375C118.637,78.375 118.813,78.318 118.957,78.175C119.045,78.087 119.117,77.975 119.157,77.823L120.116,77.823C120.092,78.071 119.924,78.398 119.764,78.591C119.412,79.006 118.892,79.174 118.365,79.174C117.798,79.174 117.382,78.975 117.054,78.662C116.638,78.263 116.414,77.679 116.414,76.999C116.414,76.336 116.614,75.744 117.014,75.336C117.326,75.017 117.774,74.809 118.341,74.809C118.957,74.809 119.516,75.057 119.86,75.577C120.164,76.033 120.236,76.505 120.22,77.024C120.221,77.024 120.213,77.215 120.213,77.304ZM118.965,75.848C118.829,75.704 118.621,75.609 118.334,75.609C118.03,75.609 117.782,75.737 117.638,75.928C117.494,76.113 117.43,76.304 117.422,76.576L119.221,76.576C119.213,76.264 119.125,76.025 118.965,75.848Z" style="fill:rgb(0,60,89);fill-rule:nonzero;"/>
        <path d="M126.221,77.952L126.221,79.071L125.221,79.071L125.221,77.952L122.742,77.952L122.742,77.009L124.781,73.515L125.868,73.515L123.797,77.049L125.22,77.049L125.22,75.745L126.22,75.745L126.22,77.049L126.924,77.049L126.924,77.952L126.221,77.952Z" style="fill:rgb(0,60,89);fill-rule:nonzero;"/>
        <rect x="127.944" y="77.824" width="1.215" height="1.247" style="fill:rgb(0,60,89);"/>
        <path d="M133.231,78.679C132.943,78.958 132.535,79.174 131.936,79.174C131.337,79.174 130.929,78.958 130.641,78.679C130.065,78.127 129.977,77.2 129.977,76.288C129.977,75.376 130.065,74.449 130.641,73.897C130.929,73.617 131.337,73.401 131.936,73.401C132.535,73.401 132.943,73.617 133.231,73.897C133.807,74.449 133.895,75.376 133.895,76.288C133.895,77.2 133.807,78.127 133.231,78.679ZM131.936,74.33C130.905,74.33 130.993,75.569 130.993,76.289C130.993,77.009 130.905,78.248 131.936,78.248C132.967,78.248 132.879,77.009 132.879,76.289C132.879,75.569 132.967,74.33 131.936,74.33Z" style="fill:rgb(0,60,89);fill-rule:nonzero;"/>
    </g>
    <g transform="matrix(4.15394,0,0,3.50651,-72.5984,-19.7275)">
        <path d="M126.407,12.476C125.048,12.173 123.674,12.164 122.304,12.379C119.611,12.805 117.481,14.417 116.871,17.201C116.683,18.059 116.577,18.95 116.565,19.827C116.527,22.649 116.538,25.471 116.56,28.293C116.566,29.035 116.627,29.785 116.759,30.515C117.193,32.913 118.551,34.634 120.853,35.41C121.941,35.777 123.043,35.963 124.143,35.966C125.428,35.97 126.708,35.721 127.956,35.173C129.002,34.711 129.794,33.994 130.383,33.102C130.716,32.599 131.002,32.055 131.19,31.431C131.482,30.466 131.631,29.481 131.623,28.47C131.612,27.001 131.62,25.532 131.62,24.062C131.62,22.594 131.636,21.124 131.612,19.653C131.602,19.029 131.555,18.396 131.452,17.779C131.207,16.328 130.627,15.144 129.748,14.245C128.932,13.411 127.852,12.828 126.534,12.514C126.49,12.502 126.451,12.486 126.407,12.476Z" style="fill:none;"/>
        <path d="M19.912,42.315C19.256,35.44 19.493,28.148 20.696,20.686C19.897,15.65 19.558,10.7 19.615,5.897C18.244,6.408 17.476,7.628 17.479,9.386C17.484,14.262 17.48,19.136 17.48,24.01C17.48,28.956 17.485,33.901 17.477,38.844C17.474,40.678 18.509,41.898 19.912,42.315Z" style="fill:rgb(84,183,217);fill-rule:nonzero;"/>
        <path d="M138.821,20.288C138.828,18.694 138.666,17.121 138.294,15.574C137.213,11.075 134.551,8.147 130.462,6.642C130.338,9.146 130.097,11.684 129.748,14.245C130.627,15.144 131.207,16.328 131.452,17.779C131.555,18.396 131.602,19.029 131.612,19.653C131.635,21.124 131.62,22.593 131.62,24.062C131.62,25.532 131.612,27.001 131.623,28.47C131.631,29.481 131.481,30.466 131.19,31.431C131.002,32.055 130.716,32.598 130.383,33.102C130.584,35.917 130.646,38.693 130.572,41.417C132.247,40.792 133.776,39.905 135.048,38.586C137.416,36.129 138.47,33.119 138.715,29.801C138.855,27.897 138.834,24.067 138.821,24.067C138.821,22.808 138.816,21.546 138.821,20.288Z" style="fill:rgb(199,211,31);fill-rule:nonzero;"/>
        <path d="M19.912,42.315C20.735,42.56 21.683,42.529 22.623,42.181C24.071,41.646 24.677,40.419 24.679,38.913C24.679,38.174 24.679,37.436 24.679,36.697C22.859,31.335 21.534,25.968 20.696,20.685C19.493,28.148 19.256,35.44 19.912,42.315Z" style="fill:rgb(78,166,211);fill-rule:nonzero;"/>
        <path d="M129.748,14.245C130.097,11.684 130.338,9.146 130.462,6.642C129.966,6.459 129.458,6.288 128.919,6.147C127.445,5.766 125.934,5.653 124.414,5.635C124.335,5.634 124.257,5.637 124.179,5.637C125.057,7.927 125.841,10.221 126.535,12.514C127.852,12.827 128.932,13.41 129.748,14.245Z" style="fill:rgb(178,198,48);fill-rule:nonzero;"/>
        <path d="M130.383,33.102C129.794,33.994 129.002,34.711 127.956,35.173C126.708,35.722 125.428,35.97 124.143,35.966C123.819,36.81 123.486,37.654 123.137,38.497C122.607,39.777 122.049,41.034 121.475,42.275C121.955,42.33 122.383,42.367 122.896,42.407C125.338,42.595 127.751,42.386 130.078,41.609C130.247,41.552 130.406,41.479 130.572,41.417C130.646,38.692 130.584,35.917 130.383,33.102Z" style="fill:rgb(178,198,48);fill-rule:nonzero;"/>
        <path d="M20.696,20.686C21.429,16.146 22.515,11.544 23.97,6.938C23.343,6.109 22.349,5.608 21.126,5.628C20.562,5.638 20.058,5.732 19.615,5.897C19.558,10.7 19.897,15.65 20.696,20.686Z" style="fill:rgb(55,149,199);fill-rule:nonzero;"/>
        <path d="M24.679,36.698C24.684,27.523 24.679,18.347 24.687,9.174C24.687,8.293 24.421,7.533 23.97,6.938C22.515,11.544 21.428,16.146 20.696,20.686C21.534,25.968 22.859,31.335 24.679,36.698Z" style="fill:rgb(38,135,193);fill-rule:nonzero;"/>
        <path d="M34.422,20.971C34.422,21.988 34.422,23.006 34.422,24.023C34.565,23.489 34.697,22.959 34.847,22.422C34.698,21.935 34.566,21.455 34.422,20.971Z" style="fill:rgb(38,135,193);fill-rule:nonzero;"/>
        <path d="M124.143,35.966C123.044,35.963 121.942,35.777 120.853,35.41C118.551,34.635 117.193,32.914 116.759,30.515C116.627,29.786 116.566,29.035 116.56,28.293C116.538,25.471 116.528,22.649 116.565,19.827C116.577,18.95 116.683,18.059 116.871,17.201C117.481,14.416 119.611,12.805 122.304,12.379C123.674,12.164 125.048,12.172 126.407,12.476C126.451,12.486 126.49,12.502 126.534,12.513C125.84,10.221 125.056,7.926 124.178,5.636C121.261,5.625 118.455,6.078 115.834,7.488C113.13,8.942 111.35,11.163 110.334,14.009C109.616,16.023 109.334,18.123 109.347,20.263C109.362,22.83 109.355,25.36 109.348,27.965C109.343,29.749 109.572,31.501 110.061,33.214C111.078,36.776 113.216,39.396 116.615,40.948C117.743,41.465 118.891,41.895 120.123,42.089C120.668,42.175 121.087,42.231 121.474,42.275C122.048,41.034 122.605,39.777 123.136,38.497C123.486,37.654 123.819,36.81 124.143,35.966Z" style="fill:rgb(160,197,63);fill-rule:nonzero;"/>
        <path d="M100.375,22.044C100.564,22.58 100.743,23.113 100.925,23.648C100.926,22.608 100.923,21.568 100.924,20.528C100.741,21.033 100.563,21.538 100.375,22.044Z" style="fill:rgb(160,197,63);fill-rule:nonzero;"/>
        <path d="M38.979,39.906C39.933,40.613 40.969,41.144 42.058,41.534C41.401,40.071 40.755,38.596 40.133,37.093C38.086,32.15 36.326,27.237 34.846,22.421C34.696,22.958 34.564,23.488 34.421,24.022C34.421,25.596 34.422,27.171 34.421,28.745C34.419,30.55 34.662,32.321 35.117,34.066C35.741,36.456 37.016,38.452 38.979,39.906Z" style="fill:rgb(34,113,141);fill-rule:nonzero;"/>
        <path d="M100.375,22.044C100.563,21.538 100.741,21.033 100.924,20.528C100.924,20.031 100.923,19.534 100.924,19.037C100.926,17.01 100.624,15.032 99.934,13.135C99.106,10.862 97.737,8.977 95.626,7.714C95.174,7.443 94.712,7.21 94.242,6.998C95.227,9.118 96.181,11.283 97.097,13.496C98.282,16.353 99.374,19.208 100.375,22.044Z" style="fill:rgb(129,175,81);fill-rule:nonzero;"/>
        <path d="M98.159,27.683C96.77,31.035 95.293,34.287 93.752,37.436C93.751,37.964 93.753,38.492 93.752,39.02C93.751,39.699 93.929,40.298 94.277,40.871C94.935,41.951 95.94,42.384 97.145,42.461C99.623,42.62 100.935,40.679 100.931,39.058C100.917,33.921 100.922,28.784 100.925,23.647C100.743,23.113 100.564,22.579 100.375,22.043C99.676,23.916 98.94,25.797 98.159,27.683Z" style="fill:rgb(129,175,81);fill-rule:nonzero;"/>
        <path d="M40.303,6.329C39.608,5.778 38.715,5.579 37.685,5.651C35.732,5.791 34.42,7.2 34.422,9.144C34.424,13.086 34.422,17.029 34.422,20.971C34.566,21.455 34.698,21.935 34.847,22.422C36.319,17.146 38.15,11.75 40.303,6.329Z" style="fill:rgb(34,113,141);fill-rule:nonzero;"/>
        <path d="M100.375,22.044C99.374,19.208 98.282,16.353 97.098,13.495C96.181,11.282 95.227,9.117 94.243,6.997C92.461,6.192 90.559,5.786 88.577,5.679C85.391,5.504 82.24,5.756 79.137,6.525C78.62,6.653 78.103,6.782 77.589,6.919C76.196,10.512 74.727,14.184 73.182,17.914C73.039,18.258 72.897,18.596 72.754,18.938C72.754,20.154 72.755,21.371 72.755,22.587C72.936,23.02 73.117,23.447 73.297,23.883C75.609,29.465 77.754,34.916 79.718,40.162C79.849,39.79 79.926,39.408 79.925,39.036C79.903,30.702 79.926,13.759 79.909,13.62C79.87,13.297 80.041,13.16 80.326,13.089C83.059,12.401 85.82,12 88.638,12.382C91.129,12.721 92.904,14.307 93.465,16.714C93.645,17.48 93.749,18.282 93.752,19.068C93.771,25.19 93.762,31.313 93.753,37.436C95.295,34.287 96.772,31.035 98.16,27.683C98.94,25.797 99.676,23.916 100.375,22.044Z" style="fill:rgb(95,144,95);fill-rule:nonzero;"/>
        <path d="M40.134,37.093C40.756,38.596 41.402,40.071 42.059,41.534C42.568,41.717 43.09,41.865 43.621,41.987C44.313,39.899 45.041,37.758 45.812,35.561C43.848,34.999 42.432,33.664 41.93,31.464C41.75,30.675 41.64,29.852 41.638,29.046C41.617,22.395 41.638,15.745 41.617,9.093C41.615,8.576 41.475,8.023 41.253,7.553C41.004,7.028 40.681,6.628 40.303,6.328C38.15,11.749 36.32,17.145 34.847,22.42C36.327,27.237 38.086,32.15 40.134,37.093Z" style="fill:rgb(26,89,93);fill-rule:nonzero;"/>
        <path d="M45.747,42.33C49.158,42.645 52.555,42.454 55.889,41.627C57.104,41.326 58.313,40.984 59.491,40.569C58.165,37.535 56.839,34.424 55.521,31.245C55.489,31.169 55.46,31.095 55.429,31.019C55.43,33.15 55.432,34.517 55.436,34.557C55.464,34.839 55.335,34.99 55.065,35.047C54.678,35.128 54.293,35.224 53.905,35.305C51.614,35.781 49.308,36.099 46.962,35.804C46.559,35.753 46.181,35.666 45.814,35.561C45.043,37.759 44.315,39.899 43.623,41.987C44.316,42.147 45.026,42.264 45.747,42.33Z" style="fill:rgb(38,97,99);fill-rule:nonzero;"/>
        <path d="M77.589,6.918C76.688,7.157 75.797,7.431 74.945,7.838C74.053,8.268 73.415,8.923 73.094,9.833C72.897,10.393 72.773,11.008 72.77,11.6C72.756,14.045 72.753,16.49 72.753,18.936C72.896,18.594 73.039,18.256 73.181,17.912C74.727,14.183 76.196,10.511 77.589,6.918Z" style="fill:rgb(71,124,95);fill-rule:nonzero;"/>
        <path d="M72.755,22.585C72.756,23.451 72.756,24.317 72.756,25.184C72.754,25.184 72.751,25.184 72.748,25.184C72.748,29.801 72.754,34.422 72.744,39.043C72.743,39.724 72.932,40.322 73.286,40.892C73.934,41.939 74.911,42.373 76.093,42.458C78.023,42.6 79.261,41.459 79.719,40.16C77.754,34.913 75.61,29.462 73.298,23.881C73.117,23.446 72.936,23.018 72.755,22.585Z" style="fill:rgb(71,124,95);fill-rule:nonzero;"/>
        <path d="M55.429,9.074C55.429,9.522 55.429,10 55.429,10.493C56.056,8.979 56.686,7.487 57.316,6.005C56.17,6.559 55.428,7.697 55.429,9.074Z" style="fill:rgb(38,97,99);fill-rule:nonzero;"/>
        <path d="M59.49,40.569C59.668,40.507 59.852,40.458 60.029,40.39C61.845,39.692 62.637,38.244 62.635,36.322C62.629,31.843 62.633,27.362 62.633,22.883C62.636,22.883 62.638,22.883 62.64,22.883C62.64,18.286 62.638,13.689 62.642,9.091C62.643,8.494 62.503,7.941 62.214,7.42C61.424,6.002 60.172,5.533 58.621,5.655C58.147,5.693 57.708,5.815 57.316,6.005C56.686,7.487 56.056,8.98 55.429,10.493C55.43,16.622 55.426,25.966 55.428,31.02C55.459,31.096 55.489,31.17 55.52,31.246C56.838,34.425 58.164,37.535 59.49,40.569Z" style="fill:rgb(40,101,96);fill-rule:nonzero;"/>
    </g>
</svg>
