<?xml version="1.0" encoding="UTF-8" standalone="no"?>
<!DOCTYPE svg PUBLIC "-//W3C//DTD SVG 1.1//EN" "http://www.w3.org/Graphics/SVG/1.1/DTD/svg11.dtd">
<svg width="100%" height="100%" viewBox="0 0 170 170" version="1.1" xmlns="http://www.w3.org/2000/svg" xmlns:xlink="http://www.w3.org/1999/xlink" xml:space="preserve" xmlns:serif="http://www.serif.com/" style="fill-rule:evenodd;clip-rule:evenodd;stroke-linejoin:round;stroke-miterlimit:1.41421;">
    <g transform="matrix(1,0,0,1,0,-0.921005)">
        <g transform="matrix(0.999541,0,0,0.999536,0,0.000427769)">
            <rect x="0" y="0.921" width="170.078" height="170.079" style="fill:rgb(221,0,0);fill-rule:nonzero;"/>
        </g>
        <path d="M102.678,46.393C96.782,46.393 91.765,44.006 87.051,44.006C83.618,44.006 81.124,46.578 81.124,49.609C81.124,50.932 80.897,51.694 79.096,51.694L71.833,51.694C72.261,48.097 73.282,45.316 75.831,42.993C78.602,40.489 82.086,39.325 85.469,39.325C93.124,39.325 99.126,44.567 105.642,44.567L105.642,40.908C100.03,40.908 93.768,35.741 85.469,35.741C80.972,35.741 76.717,37.207 73.233,40.364C69.279,43.944 68.303,48.224 67.941,51.694L64.524,51.694L64.524,55.421L67.653,55.421C67.378,59.326 67.086,63.234 66.794,67.137L71.023,67.137L71.023,70.244C72.807,70.705 75.981,71.399 75.981,73.443C75.981,75.336 72.798,76.089 71.023,76.424L71.023,86.256C73.15,86.816 74.499,87.143 77.53,87.143C78.619,87.143 80,86.984 80.887,86.809L80.887,92.184L84.765,92.184L84.765,81.969C83.233,82.831 80.37,83.417 77.798,83.417C76.936,83.417 75.486,83.325 74.9,83.183L74.9,78.979C77.815,78.024 79.933,76.257 79.933,73.443C79.933,70.194 77.489,68.561 74.9,67.681L74.9,63.41L70.957,63.41C71.119,61.256 71.344,58.007 71.528,55.421L85.327,55.421C85.327,55.421 84.556,52.498 84.556,51.477C84.556,49.651 85.803,48.872 88.39,48.872C90.118,48.872 91.307,49.19 95.124,49.19C99.411,49.19 103.046,48.587 106.095,47.046L106.095,46.1C104.854,46.318 103.866,46.393 102.678,46.393Z" style="fill:white;fill-rule:nonzero;"/>
        <path d="M57.841,135.816L57.841,120.189L51.996,120.189L47.097,132.398L42.432,120.189L36.578,120.189L36.578,135.816L40.381,135.816L40.381,124.074L45.019,135.816L49.124,135.816L54.014,124.074L54.014,135.816L57.841,135.816Z" style="fill:white;"/>
        <path d="M75.436,135.816L75.436,133.035L70.403,133.035C67.061,133.035 65.203,132.416 64.893,129.418L75.436,129.418L75.436,126.654L64.893,126.654C65.01,125.765 65.061,124.845 65.739,124.125C66.107,123.722 66.525,123.455 67.086,123.254C67.907,123.002 69.399,122.986 70.236,122.986L75.436,122.986L75.436,120.189L68.695,120.189C67.229,120.189 65.654,120.289 64.39,120.941C61.518,122.433 60.37,125.164 60.37,127.877C60.37,130.656 61.518,134.224 65.01,135.279C66.551,135.748 68.611,135.816 70.236,135.816L75.436,135.816Z" style="fill:white;"/>
        <path d="M96.094,131.209C96.094,129.584 95.409,127.826 93.541,127.072C92.194,126.519 90.794,126.486 89.338,126.486L86.332,126.486C84.824,126.486 82.916,126.402 82.916,124.711C82.916,122.785 84.958,122.986 86.666,122.986L95.041,122.986L95.041,120.189L85.769,120.189C83.894,120.189 81.809,120.138 80.311,121.226C79.154,122.064 78.477,123.539 78.477,124.81C78.477,126.453 79.524,128.211 81.44,128.832C82.487,129.166 83.87,129.25 84.958,129.25L88.408,129.25C89.279,129.25 90.341,129.3 90.989,129.869C91.407,130.22 91.658,130.707 91.658,131.226C91.658,133.002 89.506,133.035 87.932,133.035L79.381,133.035L79.381,135.816L88.803,135.816C91.073,135.816 93.291,135.933 94.874,134.324C95.71,133.453 96.094,132.298 96.094,131.209Z" style="fill:white;"/>
        <path d="M115.928,131.209C115.928,129.584 115.223,127.826 113.365,127.072C112.024,126.519 110.616,126.486 109.159,126.486L106.161,126.486C104.638,126.486 102.729,126.402 102.729,124.711C102.729,122.785 104.788,122.986 106.497,122.986L114.854,122.986L114.854,120.189L105.591,120.189C103.716,120.189 101.641,120.138 100.133,121.226C98.975,122.064 98.291,123.539 98.291,124.81C98.291,126.453 99.344,128.211 101.271,128.832C102.31,129.166 103.683,129.25 104.788,129.25L108.223,129.25C109.093,129.25 110.166,129.3 110.8,129.869C111.236,130.22 111.487,130.707 111.487,131.226C111.487,133.002 109.328,133.035 107.753,133.035L99.195,133.035L99.195,135.816L108.624,135.816C110.884,135.816 113.112,135.933 114.687,134.324C115.524,133.453 115.928,132.298 115.928,131.209Z" style="fill:white;"/>
        <path d="M133.411,135.816L133.411,133.035L128.369,133.035C125.038,133.035 123.179,132.416 122.861,129.418L133.411,129.418L133.411,126.654L122.861,126.654C122.979,125.765 123.028,124.845 123.714,124.125C124.083,123.722 124.501,123.455 125.054,123.254C125.874,123.002 127.366,122.986 128.203,122.986L133.411,122.986L133.411,120.189L126.663,120.189C125.204,120.189 123.63,120.289 122.358,120.941C119.493,122.433 118.337,125.164 118.337,127.877C118.337,130.656 119.493,134.224 122.979,135.279C124.52,135.748 126.579,135.816 128.203,135.816L133.411,135.816Z" style="fill:white;"/>
        <path d="M23.866,116.855L23.866,101.228L19.897,101.228L19.897,107.609L12.644,107.609L12.644,101.228L8.649,101.228L8.649,116.855L12.644,116.855L12.644,110.39L19.897,110.39L19.897,116.855L23.866,116.855Z" style="fill:white;"/>
        <path d="M38.597,110.457L33.253,110.457L35.924,104.963L38.597,110.457ZM45.991,116.855L38.228,101.228L33.648,101.228L25.883,116.855L30.548,116.855L32.349,113.22L39.494,113.22L41.293,116.855L45.991,116.855Z" style="fill:white;"/>
        <path d="M64.374,116.855L64.374,101.228L60.581,101.228L60.581,112.869L53.126,101.228L48.01,101.228L48.01,116.855L51.836,116.855L51.836,105.398L59.458,116.855L64.374,116.855Z" style="fill:white;"/>
        <path d="M84.556,116.855L84.556,101.228L80.762,101.228L80.762,112.869L73.309,101.228L68.192,101.228L68.192,116.855L72.019,116.855L72.019,105.398L79.64,116.855L84.556,116.855Z" style="fill:white;"/>
        <path d="M101.487,108.984C101.487,111.83 100.667,114.326 96.68,114.326C92.68,114.326 91.808,111.898 91.808,109C91.808,106.086 92.68,103.757 96.666,103.757C100.583,103.757 101.487,106.119 101.487,108.984ZM105.876,109.234C105.876,103.992 103.112,101.129 96.632,101.129C90.224,101.129 87.37,103.875 87.37,109.117C87.37,111.394 88.073,113.974 90.393,115.416C92.143,116.521 94.774,116.939 96.916,116.939C102.946,116.939 105.876,114.175 105.876,109.234Z" style="fill:white;"/>
        <path d="M126.111,101.228L121.62,101.228L116.009,112.986L110.499,101.228L106.012,101.228L113.917,116.855L117.903,116.855L126.111,101.228Z" style="fill:white;"/>
        <path d="M141.017,116.855L141.017,114.058L135.976,114.058C132.642,114.058 130.782,113.455 130.464,110.457L141.017,110.457L141.017,107.693L130.464,107.693C130.582,106.789 130.632,105.884 131.32,105.164C131.687,104.763 132.107,104.478 132.659,104.293C133.479,104.025 134.97,104.009 135.808,104.009L141.017,104.009L141.017,101.228L134.267,101.228C132.81,101.228 131.236,101.312 129.962,101.964C127.098,103.472 125.942,106.185 125.942,108.9C125.942,111.697 127.098,115.263 130.582,116.302C132.122,116.771 134.183,116.855 135.808,116.855L141.017,116.855Z" style="fill:white;"/>
        <path d="M156.929,105.986C156.929,107.644 155.857,108.129 154.03,108.129L148.437,108.129L148.437,104.009L154.03,104.009C155.688,104.009 156.929,104.361 156.929,105.986ZM161.601,116.855C161.433,116.42 161.315,116.035 161.249,115.582C161.115,114.509 161.166,113.388 160.663,112.349C159.993,110.994 159.374,110.607 157.749,110.123C160.295,109.453 161.315,107.726 161.315,105.584C161.315,103.707 159.993,102.082 157.799,101.564C156.476,101.261 154.986,101.228 153.612,101.228L144.45,101.228L144.45,116.855L148.437,116.855L148.437,110.925L151.637,110.925C155.104,110.925 156.341,111.713 156.71,114.629C156.81,115.365 156.845,116.119 157.128,116.855L161.601,116.855Z" style="fill:white;"/>
    </g>
</svg>
