<?xml version="1.0" encoding="UTF-8" standalone="no"?>
<!-- Created with Inkscape (http://www.inkscape.org/) -->

<svg
   xmlns:dc="http://purl.org/dc/elements/1.1/"
   xmlns:cc="http://creativecommons.org/ns#"
   xmlns:rdf="http://www.w3.org/1999/02/22-rdf-syntax-ns#"
   xmlns:svg="http://www.w3.org/2000/svg"
   xmlns="http://www.w3.org/2000/svg"
   xmlns:sodipodi="http://sodipodi.sourceforge.net/DTD/sodipodi-0.dtd"
   xmlns:inkscape="http://www.inkscape.org/namespaces/inkscape"
   width="940.02515mm"
   height="1001.7286mm"
   viewBox="0 0 940.02515 1001.7286"
   version="1.1"
   id="svg8"
   sodipodi:docname="Saftmischer.svg"
   inkscape:version="0.92.2 (5c3e80d, 2017-08-06)">
  <defs
     id="defs2" />
  <sodipodi:namedview
     id="base"
     pagecolor="#ffffff"
     bordercolor="#666666"
     borderopacity="1.0"
     inkscape:pageopacity="0.0"
     inkscape:pageshadow="2"
     inkscape:zoom="0.11313708"
     inkscape:cx="1726.0404"
     inkscape:cy="1819.333"
     inkscape:document-units="mm"
     inkscape:current-layer="layer1"
     showgrid="false"
     inkscape:snap-intersection-paths="true"
     inkscape:snap-smooth-nodes="true"
     inkscape:snap-grids="true"
     inkscape:window-width="1920"
     inkscape:window-height="1005"
     inkscape:window-x="-9"
     inkscape:window-y="-9"
     inkscape:window-maximized="1"
     inkscape:snap-global="true"
     fit-margin-top="0"
     fit-margin-left="0"
     fit-margin-right="0"
     fit-margin-bottom="0">
    <inkscape:grid
       type="axonomgrid"
       id="grid815"
       units="cm"
       empspacing="5"
       empcolor="#ff3f4a"
       empopacity="0.25098039"
       spacingy="10"
       gridanglex="15"
       gridanglez="15"
       originx="1123.1153"
       originy="675.88074" />
  </sodipodi:namedview>
  <metadata
     id="metadata5">
    <rdf:RDF>
      <cc:Work
         rdf:about="">
        <dc:format>image/svg+xml</dc:format>
        <dc:type
           rdf:resource="http://purl.org/dc/dcmitype/StillImage" />
        <dc:title></dc:title>
      </cc:Work>
    </rdf:RDF>
  </metadata>
  <g
     inkscape:label="Layer 1"
     inkscape:groupmode="layer"
     id="layer1"
     transform="translate(1123.1153,28.847927)">
    <path
       style="fill:none;stroke:#000d44;stroke-width:7;stroke-linecap:butt;stroke-linejoin:miter;stroke-miterlimit:4;stroke-dasharray:none;stroke-opacity:1"
       d="M -1082.2947,137 C -889.4775,85.334784 -696.6603,33.669569 -503.8431,-17.995647 -466.50635,-28 -466.50635,-28 -428.21355,-17.739475 L -223.92305,37 c 37.32051,10 37.32051,10 37.32051,40.395833 V 777.01607 c 0,19.98393 0,19.98393 -18.57956,24.96231 L -802.39092,962 c -37.32051,10 -37.32051,10 -74.64102,0 l -205.26276,-55 c -37.3205,-10 -37.3205,-10 -37.3205,-40 V 177 c 0,-30 0,-30 37.3205,-40 z"
       id="path4506"
       inkscape:connector-curvature="0"
       sodipodi:nodetypes="ccccccccccccc" />
    <path
       style="fill:none;stroke:#000d44;stroke-width:3;stroke-linecap:butt;stroke-linejoin:miter;stroke-miterlimit:4;stroke-dasharray:none;stroke-opacity:1"
       d="m -1082.2947,157 242.58328,65 -10e-6,720"
       id="path4518"
       inkscape:connector-curvature="0"
       sodipodi:nodetypes="ccc" />
    <path
       style="fill:none;stroke:#000d44;stroke-width:3;stroke-linecap:butt;stroke-linejoin:miter;stroke-miterlimit:4;stroke-dasharray:none;stroke-opacity:1"
       d="M -839.71142,222 -223.92305,57"
       id="path4520"
       inkscape:connector-curvature="0"
       sodipodi:nodetypes="cc" />
    <path
       style="fill:none;stroke:#000d44;stroke-width:7;stroke-linecap:butt;stroke-linejoin:miter;stroke-miterlimit:4;stroke-dasharray:none;stroke-opacity:1"
       d="M -726.56489,491.68248 -298.72052,377.04192 C -279.90381,372 -279.90381,372 -279.90381,391.07887 l -10e-6,362.41748 c 10e-6,18.50365 10e-6,18.50365 -17.77804,23.26726 L -727.01065,891.8019 C -746.41016,897 -746.41016,897 -746.41016,877.24214 V 515.84821 c 0,-18.84821 0,-18.84821 19.84527,-24.16573 z"
       id="path4522"
       inkscape:connector-curvature="0"
       sodipodi:nodetypes="ccccccccc" />
    <path
       style="fill:none;stroke:#000d44;stroke-width:3;stroke-linecap:butt;stroke-linejoin:miter;stroke-miterlimit:4;stroke-dasharray:none;stroke-opacity:1"
       d="m -317.22432,762 -149.28202,-40.00001 v -40.03124 m 0,-79.75298 V 421.99999"
       id="path4524"
       inkscape:connector-curvature="0"
       sodipodi:nodetypes="ccccc" />
    <path
       style="fill:none;stroke:#000d44;stroke-width:3;stroke-linecap:butt;stroke-linejoin:miter;stroke-miterlimit:4;stroke-dasharray:none;stroke-opacity:1"
       d="m -466.50634,721.99999 -9.52011,2.55091 M -653.18141,772.01943 -746.41016,797"
       id="path4526"
       inkscape:connector-curvature="0"
       sodipodi:nodetypes="cccc" />
    <g
       id="g6820">
      <ellipse
         ry="28.359663"
         rx="105.83971"
         cy="625.77368"
         cx="-564.2392"
         id="path4532"
         style="opacity:1;fill:none;fill-opacity:1;stroke:#000d44;stroke-width:7.00000048;stroke-linecap:round;stroke-miterlimit:4;stroke-dasharray:none;stroke-dashoffset:0;stroke-opacity:1" />
      <path
         sodipodi:nodetypes="csc"
         inkscape:connector-curvature="0"
         id="path4532-5"
         d="m -493.72849,795.93164 c 0,10.43448 -31.56872,18.89329 -70.51071,18.89329 -38.94199,0 -70.51071,-8.45881 -70.51071,-18.89329"
         style="opacity:1;fill:none;fill-opacity:1;stroke:#000d44;stroke-width:7.00000048;stroke-linecap:round;stroke-miterlimit:4;stroke-dasharray:none;stroke-dashoffset:0;stroke-opacity:1" />
      <path
         inkscape:connector-curvature="0"
         id="path4553"
         d="m -670.0789,625.77365 35.329,170.15799"
         style="fill:none;stroke:#000d44;stroke-width:7.00000048;stroke-linecap:butt;stroke-linejoin:miter;stroke-miterlimit:4;stroke-dasharray:none;stroke-opacity:1" />
      <path
         inkscape:connector-curvature="0"
         id="path4555"
         d="m -458.39948,625.77365 -35.329,170.15799"
         style="fill:none;stroke:#000d44;stroke-width:7.00000048;stroke-linecap:butt;stroke-linejoin:miter;stroke-miterlimit:4;stroke-dasharray:none;stroke-opacity:1" />
    </g>
    <path
       style="fill:#000d44;fill-opacity:1;stroke:#000d44;stroke-width:3;stroke-linecap:butt;stroke-linejoin:miter;stroke-miterlimit:4;stroke-dasharray:none;stroke-opacity:1"
       d="m -598.76188,457.62238 16.96843,45.46675 c 2.11375,4.42536 6.25489,7.77694 12.38702,6.48286 l 22.9185,-6.14099 c 4.97956,-1.53055 6.11505,-3.9213 7.88864,-9.62407 l 17.72486,-56.99235 z"
       id="path4623"
       inkscape:connector-curvature="0"
       sodipodi:nodetypes="ccccccc" />
    <g
       id="g6223"
       style="stroke:#000d44;stroke-width:2;stroke-miterlimit:4;stroke-dasharray:none;stroke-opacity:1">
      <path
         inkscape:connector-curvature="0"
         id="path6129"
         d="m -746.41016,526.99999 37.32051,-40"
         style="fill:none;stroke:#000d44;stroke-width:2;stroke-linecap:butt;stroke-linejoin:miter;stroke-miterlimit:4;stroke-dasharray:none;stroke-opacity:1" />
      <path
         inkscape:connector-curvature="0"
         id="path6131"
         d="m -746.41016,547 55.98078,-65"
         style="fill:none;stroke:#000d44;stroke-width:2;stroke-linecap:butt;stroke-linejoin:miter;stroke-miterlimit:4;stroke-dasharray:none;stroke-opacity:1" />
      <path
         inkscape:connector-curvature="0"
         id="path6133"
         d="m -746.41016,566.99999 74.64102,-90.00001"
         style="fill:none;stroke:#000d44;stroke-width:2;stroke-linecap:butt;stroke-linejoin:miter;stroke-miterlimit:4;stroke-dasharray:none;stroke-opacity:1" />
      <path
         inkscape:connector-curvature="0"
         id="path6135"
         d="M -746.41016,587 -653.1089,471.99999"
         style="fill:none;stroke:#000d44;stroke-width:2;stroke-linecap:butt;stroke-linejoin:miter;stroke-miterlimit:4;stroke-dasharray:none;stroke-opacity:1" />
      <path
         inkscape:connector-curvature="0"
         id="path6137"
         d="M -746.41016,606.99998 -634.44863,467"
         style="fill:none;stroke:#000d44;stroke-width:2;stroke-linecap:butt;stroke-linejoin:miter;stroke-miterlimit:4;stroke-dasharray:none;stroke-opacity:1" />
      <path
         inkscape:connector-curvature="0"
         id="path6139"
         d="m -746.41016,507 18.66027,-15"
         style="fill:none;stroke:#000d44;stroke-width:2;stroke-linecap:butt;stroke-linejoin:miter;stroke-miterlimit:4;stroke-dasharray:none;stroke-opacity:1" />
      <path
         sodipodi:nodetypes="cc"
         inkscape:connector-curvature="0"
         id="path6141"
         d="M -746.41016,627 -615.78838,462"
         style="fill:none;stroke:#000d44;stroke-width:2;stroke-linecap:butt;stroke-linejoin:miter;stroke-miterlimit:4;stroke-dasharray:none;stroke-opacity:1" />
      <path
         sodipodi:nodetypes="cc"
         inkscape:connector-curvature="0"
         id="path6143"
         d="M -746.41016,646.99998 -597.12813,457"
         style="fill:none;stroke:#000d44;stroke-width:2;stroke-linecap:butt;stroke-linejoin:miter;stroke-miterlimit:4;stroke-dasharray:none;stroke-opacity:1" />
      <path
         sodipodi:nodetypes="cc"
         inkscape:connector-curvature="0"
         id="path6145"
         d="M -746.41016,667 -578.46788,452"
         style="fill:none;stroke:#000d44;stroke-width:2;stroke-linecap:butt;stroke-linejoin:miter;stroke-miterlimit:4;stroke-dasharray:none;stroke-opacity:1" />
      <path
         sodipodi:nodetypes="cc"
         inkscape:connector-curvature="0"
         id="path6147"
         d="M -746.41016,686.99998 -559.80762,447"
         style="fill:none;stroke:#000d44;stroke-width:2;stroke-linecap:butt;stroke-linejoin:miter;stroke-miterlimit:4;stroke-dasharray:none;stroke-opacity:1" />
      <path
         sodipodi:nodetypes="cc"
         inkscape:connector-curvature="0"
         id="path6149"
         d="M -746.41016,707 -541.14737,442"
         style="fill:none;stroke:#000d44;stroke-width:2;stroke-linecap:butt;stroke-linejoin:miter;stroke-miterlimit:4;stroke-dasharray:none;stroke-opacity:1" />
      <path
         sodipodi:nodetypes="cccc"
         inkscape:connector-curvature="0"
         id="path6151"
         d="M -746.41016,726.99998 -681.08,641.41918 M -647.37652,598.74273 -522.48711,437"
         style="fill:none;stroke:#000d44;stroke-width:2;stroke-linecap:butt;stroke-linejoin:miter;stroke-miterlimit:4;stroke-dasharray:none;stroke-opacity:1" />
      <path
         sodipodi:nodetypes="cccc"
         inkscape:connector-curvature="0"
         id="path6153"
         d="m -746.41016,746.99999 68.56786,-89.82211 M -629.66423,595.40272 -503.82686,432"
         style="fill:none;stroke:#000d44;stroke-width:2;stroke-linecap:butt;stroke-linejoin:miter;stroke-miterlimit:4;stroke-dasharray:none;stroke-opacity:1" />
      <path
         sodipodi:nodetypes="cccc"
         inkscape:connector-curvature="0"
         id="path6155"
         d="m -746.41016,766.99998 71.80594,-94.0639 m 61.61485,-79.5789 L -485.1666,427"
         style="fill:none;stroke:#000d44;stroke-width:2;stroke-linecap:butt;stroke-linejoin:miter;stroke-miterlimit:4;stroke-dasharray:none;stroke-opacity:1" />
      <path
         sodipodi:nodetypes="cccc"
         inkscape:connector-curvature="0"
         id="path6157"
         d="m -746.41016,786.99999 75.04444,-98.30626 M -596.67721,591.74532 -466.50635,422"
         style="fill:none;stroke:#000d44;stroke-width:2;stroke-linecap:butt;stroke-linejoin:miter;stroke-miterlimit:4;stroke-dasharray:none;stroke-opacity:1" />
      <path
         sodipodi:nodetypes="cccc"
         inkscape:connector-curvature="0"
         id="path6159"
         d="m -736.67145,794.27877 68.55061,-89.79952 m 88.47058,-115.30976 113.08349,-147.71558"
         style="fill:none;stroke:#000d44;stroke-width:2;stroke-linecap:butt;stroke-linejoin:miter;stroke-miterlimit:4;stroke-dasharray:none;stroke-opacity:1" />
      <path
         sodipodi:nodetypes="cccc"
         inkscape:connector-curvature="0"
         id="path6161"
         d="m -717.69629,789.43586 52.81739,-69.18941 m 100.23975,-131.04338 98.02717,-128.24135"
         style="fill:none;stroke:#000d44;stroke-width:2;stroke-linecap:butt;stroke-linejoin:miter;stroke-miterlimit:4;stroke-dasharray:none;stroke-opacity:1" />
      <path
         sodipodi:nodetypes="cccc"
         inkscape:connector-curvature="0"
         id="path6163"
         d="m -698.36185,784.05796 36.71534,-48.09613 m 113.53403,-148.72661 81.51524,-106.78283"
         style="fill:none;stroke:#000d44;stroke-width:2;stroke-linecap:butt;stroke-linejoin:miter;stroke-miterlimit:4;stroke-dasharray:none;stroke-opacity:1" />
      <path
         sodipodi:nodetypes="cccc"
         inkscape:connector-curvature="0"
         id="path6167"
         d="m -679.26322,778.93404 c 6.96958,-9.08332 13.83861,-18.244 20.84145,-27.30176 m 124.01004,-162.67687 68.22874,-89.48477"
         style="fill:none;stroke:#000d44;stroke-width:2;stroke-linecap:butt;stroke-linejoin:miter;stroke-miterlimit:4;stroke-dasharray:none;stroke-opacity:1" />
      <path
         sodipodi:nodetypes="cccc"
         inkscape:connector-curvature="0"
         id="path6169"
         d="m -660.11014,773.69228 4.90774,-6.42901 m 136.46275,-179.18352 52.22776,-68.57248"
         style="fill:none;stroke:#000d44;stroke-width:2;stroke-linecap:butt;stroke-linejoin:miter;stroke-miterlimit:4;stroke-dasharray:none;stroke-opacity:1" />
      <path
         sodipodi:nodetypes="cc"
         inkscape:connector-curvature="0"
         id="path6171"
         d="m -506.27915,591.41334 39.81557,-52.32669"
         style="fill:none;stroke:#000d44;stroke-width:2;stroke-linecap:butt;stroke-linejoin:miter;stroke-miterlimit:4;stroke-dasharray:none;stroke-opacity:1" />
      <path
         sodipodi:nodetypes="cc"
         inkscape:connector-curvature="0"
         id="path6173"
         d="m -466.28641,558.52888 -26.14253,34.38753"
         style="fill:none;stroke:#000d44;stroke-width:2;stroke-linecap:butt;stroke-linejoin:miter;stroke-miterlimit:4;stroke-dasharray:none;stroke-opacity:1" />
    </g>
    <g
       id="g6809"
       style="stroke:#000d44;stroke-width:3;stroke-miterlimit:4;stroke-dasharray:none;stroke-opacity:1">
      <path
         sodipodi:nodetypes="sssssssssss"
         inkscape:connector-curvature="0"
         id="path6175"
         d="m -475.84442,291.62557 c 3.0695,25.54321 -16.39827,49.59695 -45.34637,58.80638 -4.88555,1.55427 -10.47418,-0.91798 -15.83703,-0.27354 -3.92116,0.4712 -7.36331,4.26692 -11.16275,4.19828 -32.18676,-0.58141 -58.9374,-19.86723 -62.14616,-46.56933 -1.87046,-15.56529 2.84799,-36.03346 14.76067,-47.47065 7.36154,-7.0677 19.09121,-11.43354 29.37007,-10.93842 5.5244,0.26611 12.10905,7.7818 17.91877,7.08365 6.81283,-0.81869 12.22062,-9.83074 18.56684,-10.83608 13.9736,-2.21364 26.86103,2.04734 35.66314,7.97508 12.33802,8.30898 16.50311,23.7971 18.21282,38.02463 z"
         style="opacity:1;fill:none;fill-opacity:1;stroke:#000d44;stroke-width:3;stroke-linecap:round;stroke-miterlimit:4;stroke-dasharray:none;stroke-dashoffset:0;stroke-opacity:1" />
      <path
         sodipodi:nodetypes="ccccc"
         inkscape:connector-curvature="0"
         id="path6178"
         d="m -550.09889,256.3342 c -2.34794,-8.59099 -1.87696,-17.25174 5.28838,-27.70817 l 6.94114,0.99376 c -6.3317,5.04625 -12.47309,15.50254 -8.94346,26.49321 z"
         style="fill:#000d44;fill-opacity:1;stroke:#000d44;stroke-width:3;stroke-linecap:butt;stroke-linejoin:miter;stroke-miterlimit:4;stroke-dasharray:none;stroke-opacity:1" />
      <path
         sodipodi:nodetypes="cccccccccccccccccccc"
         inkscape:connector-curvature="0"
         id="path6180"
         d="m -539.42488,350.69181 -2.07476,6.8819 1.88739,-3.26673 0.18034,3.22552 0.36187,-2.73796 0.50159,1.87422 -0.0576,-2.20394 0.7661,3.50058 0.0623,-2.35651 0.5805,1.38111 -0.35192,-2.92855 1.33259,2.46526 -0.41447,-2.29923 1.35422,1.49541 -0.61061,-2.20657 1.31095,3.4351 -0.736,-2.67512 0.8883,1.06777 -2.56989,-5.28742 z"
         style="fill:#000d44;fill-opacity:1;stroke:#000d44;stroke-width:3;stroke-linecap:butt;stroke-linejoin:miter;stroke-miterlimit:4;stroke-dasharray:none;stroke-opacity:1" />
      <path
         sodipodi:nodetypes="csccccc"
         inkscape:connector-curvature="0"
         id="path6182"
         d="m -439.91557,173.41765 c 18.09945,13.97257 59.49406,101.8625 32.30839,146.85017 -27.34578,45.25262 -120.08534,69.98376 -144.59551,65.90629 -4.76654,-1.84515 -4.95831,-3.67563 -2.97595,-5.97648 14.76095,-8.04014 79.67975,-46.81476 93.49521,-66.64145 19.98845,-23.42147 18.91989,-119.56659 16.31784,-137.87441 0.74221,-3.76271 4.17893,-3.52825 5.45002,-2.26412 z"
         style="fill:none;stroke:#000d44;stroke-width:3;stroke-linecap:butt;stroke-linejoin:miter;stroke-miterlimit:4;stroke-dasharray:none;stroke-opacity:1" />
      <path
         sodipodi:nodetypes="ccccc"
         inkscape:connector-curvature="0"
         id="path6184"
         d="m -449.60358,153.82769 c 3.77504,6.37283 6.47282,11.73714 8.95607,19.11129 -1.36837,-0.23827 -2.61593,-1.15825 -4.55174,1.80561 -2.56957,-6.58216 -5.93661,-12.72657 -9.7719,-18.61397 1.3251,-1.88299 3.21823,-2.40083 5.36757,-2.30293 z"
         style="fill:#000d44;fill-opacity:1;stroke:#000d44;stroke-width:3;stroke-linecap:butt;stroke-linejoin:miter;stroke-miterlimit:4;stroke-dasharray:none;stroke-opacity:1" />
      <path
         sodipodi:nodetypes="ccccc"
         inkscape:connector-curvature="0"
         id="path6186"
         d="m -559.81834,381.03159 2.89858,6.72325 5.21459,-1.22916 -2.61665,-7.47186 z"
         style="fill:#000d44;fill-opacity:1;stroke:#000d44;stroke-width:3;stroke-linecap:butt;stroke-linejoin:miter;stroke-miterlimit:4;stroke-dasharray:none;stroke-opacity:1" />
      <path
         sodipodi:nodetypes="caac"
         inkscape:connector-curvature="0"
         id="path6188"
         d="m -518.35828,373.6158 c 3.23924,-0.59029 66.31191,-24.98565 84.96657,-52.57738 12.60914,-18.64991 11.87055,-44.02627 11.58168,-66.53685 -0.19837,-15.45809 -9.12304,-45.47193 -9.12304,-45.47193"
         style="fill:none;stroke:#000d44;stroke-width:3;stroke-linecap:butt;stroke-linejoin:miter;stroke-miterlimit:4;stroke-dasharray:none;stroke-opacity:1" />
    </g>
  </g>
</svg>
