<?xml version="1.0" encoding="UTF-8" standalone="no"?>
<!DOCTYPE svg PUBLIC "-//W3C//DTD SVG 1.1//EN" "http://www.w3.org/Graphics/SVG/1.1/DTD/svg11.dtd">
<svg width="100%" height="100%" viewBox="0 0 145 70" version="1.1" xmlns="http://www.w3.org/2000/svg" xmlns:xlink="http://www.w3.org/1999/xlink" xml:space="preserve" style="fill-rule:evenodd;clip-rule:evenodd;stroke-linejoin:round;stroke-miterlimit:1.41421;">
    <g transform="matrix(1,0,0,1,-7.41669,-60.4747)">
        <g transform="matrix(1,0,0,1,7.15365,45.4747)">
            <g transform="matrix(1,0,0,1,7.118,77.528)">
                <text x="0px" y="0px" style="font-family:'Arial-BoldMT', 'Arial', sans-serif;font-weight:700;font-size:10px;fill:rgb(0,60,89);">T</text>
            </g>
            <g transform="matrix(1,0,0,1,13.226,77.528)">
                <text x="0px" y="0px" style="font-family:'ArialMT', 'Arial', sans-serif;font-size:10px;fill:rgb(0,60,89);">echnologi</text>
            </g>
            <g transform="matrix(1,0,0,1,56.039,77.528)">
                <text x="0px" y="0px" style="font-family:'ArialMT', 'Arial', sans-serif;font-size:10px;fill:rgb(0,60,89);">e</text>
            </g>
            <g transform="matrix(1,0,0,1,63.6,77.528)">
                <text x="0px" y="0px" style="font-family:'Arial-BoldMT', 'Arial', sans-serif;font-weight:700;font-size:10px;fill:rgb(0,60,89);">D</text>
            </g>
            <g transform="matrix(1,0,0,1,70.822,77.528)">
                <text x="0px" y="0px" style="font-family:'ArialMT', 'Arial', sans-serif;font-size:10px;fill:rgb(0,60,89);">ate</text>
            </g>
            <g transform="matrix(1,0,0,1,84.723,77.528)">
                <text x="0px" y="0px" style="font-family:'ArialMT', 'Arial', sans-serif;font-size:10px;fill:rgb(0,60,89);">n</text>
            </g>
            <g transform="matrix(1,0,0,1,92.285,77.528)">
                <text x="0px" y="0px" style="font-family:'Arial-BoldMT', 'Arial', sans-serif;font-weight:700;font-size:10px;fill:rgb(0,60,89);">M</text>
            </g>
            <g transform="matrix(1,0,0,1,100.615,77.528)">
                <text x="0px" y="0px" style="font-family:'ArialMT', 'Arial', sans-serif;font-size:10px;fill:rgb(0,60,89);">arktplatz</text>
            </g>
        </g>
        <g transform="matrix(1,0,0,1,3.94684,4.55807)">
            <g transform="matrix(1,0,0,1,18,-66.5)">
                <path d="M-4.122,134.417L0.941,143.778L-5.902,143.778C-5.982,143.776 -6.061,143.776 -6.14,143.772C-6.298,143.764 -6.455,143.748 -6.611,143.724C-7.08,143.653 -7.538,143.509 -7.964,143.3C-8.532,143.021 -9.042,142.627 -9.454,142.147C-9.815,141.726 -10.1,141.242 -10.292,140.723C-10.457,140.278 -10.553,139.808 -10.577,139.335C-10.601,138.861 -10.553,138.384 -10.434,137.924C-10.275,137.312 -9.991,136.733 -9.604,136.232C-9.217,135.732 -8.727,135.312 -8.174,135.005C-7.69,134.736 -7.159,134.554 -6.611,134.471C-6.455,134.447 -6.298,134.431 -6.14,134.423C-6.061,134.419 -5.982,134.419 -5.902,134.417L-4.122,134.417Z" style="fill:rgb(199,211,31);"/>
            </g>
            <g transform="matrix(0.708632,0.166551,-0.228798,0.973474,57.1958,-12.6296)">
                <path d="M-15.619,102.237L2.341,116.946L2.854,118.534C2.876,118.612 2.901,118.689 2.92,118.767C2.959,118.922 2.987,119.079 3.004,119.237C3.064,119.789 2.988,120.348 2.781,120.88C2.603,121.337 2.33,121.773 1.973,122.17C1.497,122.7 0.872,123.157 0.148,123.507C-0.577,123.856 -1.398,124.097 -2.254,124.211C-2.895,124.296 -3.554,124.309 -4.2,124.25C-4.955,124.182 -5.692,124.015 -6.367,123.76C-7.139,123.469 -7.827,123.063 -8.378,122.574C-8.792,122.207 -9.127,121.794 -9.371,121.354C-9.452,121.207 -9.523,121.058 -9.583,120.906C-9.613,120.83 -9.638,120.753 -9.666,120.676L-15.619,102.237Z" style="fill:rgb(199,211,31);"/>
            </g>
            <g transform="matrix(0.640298,-0.34629,0.475711,0.879602,-4.61111,3.1249)">
                <path d="M-17.381,77.461L-20,76.43L-20,65.787L-8.604,70.273L-17.381,77.461Z" style="fill:rgb(178,198,48);"/>
            </g>
            <g transform="matrix(0.640298,-0.34629,0.475711,0.879602,-4.61111,3.1249)">
                <path d="M-17.381,77.461L-8.604,70.273L0.359,73.802L6.461,86.847L-4.103,82.688L-20,104.085L-20,84.406L-15.415,78.235L-17.381,77.461Z" style="fill:rgb(160,197,63);"/>
            </g>
            <g transform="matrix(1,0,0,1,7.41669,60.4747)">
                <path d="M23.31,7.442L35.319,7.442C35.398,7.444 35.477,7.446 35.556,7.448C35.635,7.454 35.714,7.458 35.792,7.466C35.95,7.482 36.107,7.506 36.261,7.538C36.726,7.633 37.176,7.8 37.591,8.03C38.144,8.337 38.633,8.757 39.021,9.258C39.36,9.696 39.62,10.193 39.785,10.722C39.928,11.175 40,11.648 40,12.123C40,13.315 39.533,14.484 38.712,15.348C38.385,15.692 38.006,15.985 37.591,16.216C37.106,16.484 36.575,16.666 36.028,16.75C35.872,16.774 35.714,16.789 35.556,16.798L35.319,16.804L33.423,16.804L23.31,7.442Z" style="fill:rgb(129,175,81);"/>
            </g>
            <g transform="matrix(1,0,0,1,18,-66.5)">
                <path d="M126.507,167.843L124.402,163.951L126.514,162.809L126.507,167.843Z" style="fill:rgb(84,183,217);"/>
            </g>
            <g transform="matrix(0.640298,-0.34629,0.475711,0.879602,-4.61111,3.1249)">
                <path d="M116,157.33L115.789,157.613L115.399,158.128C115.345,158.195 115.293,158.263 115.237,158.329C115.125,158.462 115.003,158.59 114.873,158.714C114.418,159.146 113.859,159.52 113.228,159.813C112.687,160.064 112.095,160.256 111.477,160.38C110.548,160.566 109.565,160.598 108.618,160.473C107.776,160.361 106.967,160.127 106.251,159.786C105.714,159.53 105.23,159.216 104.82,158.857C104.342,158.438 103.966,157.958 103.714,157.445C103.426,156.859 103.3,156.231 103.348,155.609C103.383,155.143 103.515,154.681 103.737,154.243C103.812,154.097 103.896,153.954 103.99,153.814C104.036,153.744 104.088,153.676 104.137,153.607L104.667,152.905L116,152.905L116,157.33Z" style="fill:rgb(78,166,211);"/>
            </g>
            <g transform="matrix(0.640298,-0.34629,0.475711,0.879602,-4.61111,3.1249)">
                <path d="M77.921,111.981L71.263,111.981L72.77,109.953L72.773,109.949C72.821,109.884 72.871,109.82 72.924,109.757C72.969,109.701 73.017,109.647 73.097,109.56L73.105,109.552L73.112,109.544L73.121,109.535L73.125,109.53L73.128,109.527L73.134,109.52L73.149,109.505L73.153,109.501L73.154,109.499C73.163,109.49 73.172,109.481 73.181,109.472L73.181,109.471L73.183,109.469L73.203,109.449L73.207,109.445L73.21,109.442L73.217,109.435L73.227,109.425L73.233,109.419L73.239,109.413L73.246,109.406L73.251,109.402L73.258,109.395L73.268,109.384L73.274,109.379L73.275,109.378L73.279,109.374C73.532,109.128 73.818,108.901 74.131,108.696C74.243,108.623 74.358,108.553 74.476,108.486C74.624,108.402 74.777,108.323 74.935,108.249C75.185,108.131 75.445,108.027 75.714,107.936L75.719,107.934L75.72,107.934L75.724,107.932L75.735,107.929C76.012,107.836 76.297,107.757 76.59,107.694C76.753,107.658 76.917,107.628 77.083,107.602L77.09,107.601L77.097,107.6L77.106,107.598L77.114,107.597C77.283,107.572 77.453,107.551 77.624,107.535C77.705,107.528 77.787,107.522 77.869,107.517C78.015,107.507 78.162,107.502 78.308,107.5C78.551,107.495 78.795,107.498 79.039,107.503C79.603,107.515 80.166,107.549 80.726,107.595C83.42,107.818 86.064,108.352 88.561,109.115C89.242,109.323 89.911,109.55 90.572,109.791C90.881,109.905 91.187,110.023 91.492,110.143C92.378,110.499 93.243,110.879 94.082,111.29L95.366,111.981L77.921,111.981Z" style="fill:rgb(38,97,99);"/>
            </g>
            <g transform="matrix(0.802063,-0.433776,0.18026,0.333305,30.1606,88.3651)">
                <path d="M103.532,74.617L103.671,74.792C104.377,75.731 105.068,76.734 105.738,77.82C107.027,79.909 108.238,82.27 109.364,84.848C109.816,85.886 110.255,86.959 110.68,88.063C111.028,88.969 111.368,89.895 111.686,90.865C112.118,92.183 112.514,93.571 112.867,95.018C113.57,97.898 114.103,101.015 114.438,104.257C114.787,107.635 114.921,111.135 114.848,114.61C114.776,118.081 114.5,121.52 114.054,124.823C113.866,126.209 113.649,127.572 113.405,128.905C113.213,129.948 113.001,130.968 112.79,131.987C112.578,133.007 112.364,134.023 112.149,135.038C111.268,139.184 110.365,143.301 109.455,147.411L106.165,162L94.485,162L103.532,162L103.532,121.293L103.74,120.295C103.833,119.843 103.927,119.391 104.012,118.929C104.116,118.359 104.21,117.777 104.29,117.185C104.437,116.095 104.54,114.967 104.581,113.825C104.618,112.789 104.603,111.742 104.521,110.721C104.4,109.224 104.13,107.827 103.759,106.594L103.532,105.966L103.532,74.617Z" style="fill:rgb(78,166,211);"/>
            </g>
            <g transform="matrix(0.802063,-0.433776,0.18026,0.333305,30.1606,88.3651)">
                <path d="M101.794,72.595L102.936,73.863L103.532,74.617L103.532,105.966L102.898,104.215C102.434,103.05 101.944,101.941 101.43,100.903C100.534,99.093 99.562,97.497 98.526,96.187C97.517,94.911 96.447,93.903 95.34,93.244C95.217,93.17 95.092,93.1 94.967,93.035C94.83,95.118 94.621,97.174 94.35,99.18C94.163,100.567 93.946,101.929 93.701,103.263C93.51,104.306 93.298,105.325 93.086,106.345C92.875,107.364 92.661,108.381 92.445,109.395C91.565,113.541 90.661,117.659 89.752,121.768C87.75,130.81 85.713,139.806 83.661,148.781L83.349,150.141C83.306,150.318 83.265,150.498 83.22,150.673C83.13,151.022 83.033,151.36 82.929,151.686C82.566,152.828 82.12,153.814 81.616,154.588L80.881,155.375L78.204,136.461L101.794,72.595Z" style="fill:rgb(34,113,141);"/>
            </g>
            <g transform="matrix(0.802063,-0.433776,0.18026,0.333305,30.1606,88.3651)">
                <path d="M103.532,162L94.485,162L95.786,156.302C97.741,147.691 99.687,139.068 101.585,130.383C102.17,127.703 102.75,125.017 103.319,122.318L103.532,121.293L103.532,162Z" style="fill:rgb(34,113,141);"/>
            </g>
            <g transform="matrix(0.802063,-0.433776,0.18026,0.333305,30.1606,88.3651)">
                <path d="M101.794,72.595L78.204,136.461L76.88,127.097L81.881,104.74C82.467,102.061 83.046,99.375 83.615,96.675C83.757,96.003 83.897,95.328 84.037,94.653C84.13,94.2 84.224,93.748 84.309,93.286C84.413,92.716 84.506,92.135 84.586,91.542C84.734,90.452 84.837,89.324 84.878,88.182C84.915,87.146 84.9,86.099 84.818,85.078C84.697,83.581 84.427,82.184 84.056,80.952C83.8,80.099 83.497,79.33 83.195,78.572C82.73,77.407 82.241,76.299 81.727,75.261C80.831,73.451 79.859,71.855 78.823,70.544C78.026,69.537 77.191,68.696 76.33,68.063L71.541,89.369L67.032,57.5L67.818,54L87.06,54L89.66,59.206C90.113,60.243 90.552,61.316 90.977,62.42C91.325,63.327 91.665,64.252 91.983,65.222C92.262,66.075 92.526,66.957 92.774,67.866C93.091,67.798 93.41,67.804 93.729,67.827C94.179,67.859 94.629,67.947 95.076,68.069C97.226,68.656 99.337,70.066 101.331,72.079L101.794,72.595Z" style="fill:rgb(26,89,93);"/>
            </g>
            <g transform="matrix(0.66915,0.619439,-0.0517008,0.0558499,84.4837,63.776)">
                <path d="M53.489,54L61.792,54L61.857,62.656C61.827,68.781 61.72,74.846 61.54,80.591C61.301,88.255 60.932,95.322 60.463,101.269C59.935,107.961 59.282,113.191 58.564,116.475C58.005,119.028 57.41,120.4 56.813,120.511L56.629,120.325L53.489,54Z" style="fill:rgb(26,89,93);"/>
            </g>
            <g transform="matrix(0.66915,0.619439,-0.0517008,0.0558499,84.4837,63.776)">
                <path d="M53.489,54L56.629,120.325C56.009,120.355 55.39,118.843 54.813,116.054C54.338,113.759 53.892,110.609 53.495,106.739C53.363,105.449 53.236,104.081 53.114,102.639C53.054,101.918 52.996,101.162 52.937,100.424C52.134,89.852 51.329,79.302 50.523,68.758L49.378,54L53.489,54Z" style="fill:rgb(38,97,99);"/>
            </g>
            <g transform="matrix(0.66915,0.619439,-0.0517008,0.0558499,84.4837,63.776)">
                <path d="M18.826,54L32.816,54L41.161,162L27.17,162L18.826,54Z" style="fill:rgb(40,101,96);"/>
            </g>
            <g transform="matrix(0.802063,-0.433776,0.18026,0.333305,30.1606,88.3651)">
                <path d="M61.188,83.5L54.103,115.027C53.988,115.57 53.88,116.111 53.793,116.685C53.592,118.015 53.487,119.428 53.485,120.843C53.482,122.056 53.554,123.269 53.698,124.431C53.914,126.176 54.292,127.799 54.797,129.154C55.303,130.509 55.933,131.588 56.63,132.293C57.095,132.763 57.588,133.066 58.09,133.191C58.675,133.337 59.27,133.238 59.841,132.901C60.494,132.515 61.114,131.819 61.656,130.861C62.062,130.144 62.424,129.281 62.726,128.311C62.878,127.822 63.007,127.309 63.133,126.78L65.698,115.369" style="fill:rgb(95,144,95);"/>
            </g>
            <g transform="matrix(0.640298,-0.34629,0.475711,0.879602,-4.61111,3.1249)">
                <path d="M18.218,111.981L4.207,111.981L12.804,100.408L18.218,111.981Z" style="fill:rgb(160,197,63);"/>
            </g>
            <g transform="matrix(0.802063,-0.433776,0.18026,0.333305,30.1606,88.3651)">
                <path d="M25.659,55.329L24.604,60.023L26.962,64.533L31.506,96.648C30.371,96.063 29.228,95.201 28.115,94.159C26.063,92.238 24.114,89.715 22.278,86.803C21.774,86.004 21.279,85.175 20.791,84.319C20.09,83.087 19.406,81.8 18.739,80.463C17.893,78.769 17.075,76.996 16.287,75.149C15.641,73.636 15.014,72.074 14.419,70.442L14.373,70.311L14.371,70.307C14.354,70.259 14.337,70.211 14.32,70.163C14.285,70.06 14.25,69.957 14.216,69.852L14.211,69.834C14.106,69.51 14.008,69.173 13.917,68.825C13.817,68.441 13.726,68.044 13.644,67.636L13.644,67.635L13.639,67.612L13.634,67.585L13.631,67.569L13.628,67.554L13.626,67.542L13.623,67.531C13.53,67.056 13.45,66.568 13.382,66.068C13.341,65.759 13.304,65.445 13.273,65.129C13.244,64.837 13.219,64.542 13.199,64.245C13.164,63.726 13.143,63.202 13.135,62.677L13.135,62.637L13.134,62.607L13.134,62.603L13.134,62.571L13.134,62.521L13.133,62.492L13.133,62.456L13.133,62.425L13.133,62.406L13.133,62.396C13.133,62.362 13.132,62.327 13.132,62.293L13.132,62.29L13.132,62.286C13.132,62 13.136,61.713 13.144,61.428L13.146,61.371L13.146,61.367L13.146,61.364L13.147,61.318L13.149,61.262L13.149,61.252L13.15,61.244L13.151,61.208L13.153,61.156L13.154,61.137L13.154,61.125L13.155,61.098L13.157,61.051L13.158,61.022L13.159,61.007L13.16,60.988L13.161,60.949L13.163,60.907L13.164,60.889L13.164,60.879L13.166,60.85L13.169,60.792L13.17,60.773L13.17,60.769L13.171,60.756C13.174,60.692 13.177,60.627 13.181,60.563C13.196,60.304 13.214,60.047 13.236,59.791L13.236,59.79L13.238,59.767L13.244,59.696L13.245,59.682L13.246,59.677L13.248,59.654L13.253,59.598L13.255,59.575L13.256,59.564L13.258,59.541L13.262,59.497L13.265,59.467L13.267,59.45L13.269,59.428L13.272,59.394L13.276,59.36L13.278,59.336L13.28,59.316L13.283,59.29L13.287,59.253L13.29,59.221L13.292,59.204L13.294,59.186L13.298,59.146L13.303,59.105L13.304,59.092L13.305,59.08L13.31,59.039L13.316,58.989L13.317,58.981L13.317,58.975L13.322,58.933L13.329,58.871L13.329,58.869L13.33,58.868C13.365,58.572 13.404,58.279 13.449,57.989L13.464,57.889C13.51,57.599 13.56,57.313 13.615,57.032C13.656,56.818 13.7,56.607 13.747,56.399L13.75,56.383L14.286,54L25.471,54L25.659,55.329Z" style="fill:rgb(129,175,81);"/>
            </g>
            <g transform="matrix(0.66915,0.619439,-0.257414,0.278072,78.8092,28.776)">
                <path d="M34.695,162L22.869,162L21.288,162L12.072,138.044L12.071,138.04C12.051,137.99 12.032,137.939 12.013,137.888C11.979,137.796 11.946,137.704 11.913,137.61C11.868,137.484 11.825,137.356 11.758,137.144C11.616,136.697 11.487,136.227 11.372,135.737L11.371,135.733L11.37,135.728L11.36,135.686L11.349,135.641L11.348,135.633L11.346,135.628C11.332,135.563 11.317,135.499 11.303,135.434L11.302,135.43L11.299,135.416L11.287,135.363L11.283,135.341L11.28,135.327L11.276,135.31L11.27,135.281L11.262,135.245L11.258,135.224L11.255,135.213L11.253,135.199L11.24,135.137L11.236,135.121L11.236,135.118C11.229,135.088 11.223,135.057 11.217,135.026L11.215,135.017L11.21,134.993L11.202,134.952L11.198,134.931L11.195,134.913L11.191,134.894L11.186,134.869L11.179,134.831L11.174,134.808L11.172,134.794L11.17,134.785L11.167,134.768L11.161,134.738L11.157,134.718L11.154,134.701L11.151,134.685L11.148,134.668L11.143,134.642L11.139,134.617L11.137,134.605L11.135,134.597L11.13,134.568C11.12,134.513 11.11,134.457 11.1,134.401L11.098,134.385L11.097,134.381L11.094,134.364L11.088,134.328L11.085,134.313L11.084,134.304L11.079,134.278L11.075,134.252L11.073,134.242L11.071,134.228L11.065,134.193L11.062,134.175L11.062,134.17L11.059,134.153C11.05,134.097 11.041,134.041 11.032,133.985L11.027,133.955L11.026,133.948L11.024,133.935L11.021,133.91L11.016,133.882L11.014,133.865L11.011,133.849L11.009,133.833L11.005,133.81L11.001,133.778L10.998,133.763L10.997,133.755C10.823,132.562 10.725,131.307 10.708,130.043C10.706,129.84 10.705,129.638 10.707,129.435L10.707,129.434L10.707,129.433L10.707,129.427L10.707,129.38C10.709,129.214 10.712,129.048 10.716,128.882C10.73,128.35 10.758,127.819 10.8,127.296L10.801,127.286L10.802,127.27L10.805,127.244L10.806,127.229L10.807,127.211L10.811,127.17L10.811,127.163L10.812,127.16C10.868,126.498 10.947,125.847 11.048,125.216C11.06,125.142 11.072,125.068 11.085,124.995C11.152,124.597 11.228,124.209 11.312,123.83C11.344,123.687 11.377,123.545 11.411,123.405C11.511,122.975 11.617,122.552 11.724,122.131C12.016,120.975 12.32,119.836 12.633,118.711C14.133,113.32 15.825,108.218 17.7,103.554C18.135,102.47 18.583,101.415 19.038,100.378C19.241,99.924 19.24,99.925 19.444,99.474C20.445,97.297 21.487,95.236 22.588,93.359L24.771,90.146L44.862,90.146L41.918,110.949C40.35,108.602 38.484,107.665 36.658,107.47C36.206,107.421 35.754,107.418 35.302,107.453C34.947,107.48 34.593,107.529 34.24,107.636C33.745,107.788 33.255,108.039 32.776,108.371C31.738,109.091 30.751,110.187 29.821,111.497C28.632,113.173 27.532,115.201 26.508,117.413C24.974,120.725 23.599,124.46 22.359,128.416L34.852,160.891L34.759,161.542L34.695,162Z" style="fill:rgb(129,175,81);"/>
            </g>
            <g transform="matrix(1,0,0,1,7.41669,60.4747)">
                <path d="M56.214,37.742C57.547,37.905 58.898,37.968 60.239,37.873C62.088,37.743 63.969,37.308 65.549,36.303C65.892,36.084 66.22,35.84 66.526,35.572C66.829,35.307 67.112,35.019 67.391,34.73C67.87,34.233 68.325,33.713 68.747,33.166C69.606,32.055 70.34,30.823 70.777,29.483C70.985,28.845 71.123,28.184 71.166,27.515C71.194,27.08 71.183,26.642 71.13,26.21C71.099,25.957 71.054,25.706 70.995,25.458L70.882,25.119L78.207,21.158L79.96,22.781C80.332,24.104 80.525,25.474 80.542,26.849C80.566,28.727 80.26,30.601 79.678,32.385C78.851,34.919 77.483,37.252 75.814,39.322C75.223,40.057 74.592,40.759 73.932,41.432C73.373,42.001 72.795,42.55 72.174,43.052C71.413,43.667 70.6,44.217 69.747,44.696C69.201,45.004 68.637,45.282 68.062,45.532L65.435,46.438L56.002,37.705L56.214,37.742Z" style="fill:rgb(95,144,95);"/>
            </g>
            <g transform="matrix(0.66915,0.619439,-0.257414,0.278072,78.8092,28.776)">
                <path d="M34.852,160.891L35.278,162L34.695,162L34.759,161.542L34.852,160.891Z" style="fill:rgb(95,144,95);"/>
            </g>
            <g transform="matrix(0.66915,0.619439,-0.0517008,0.0558499,84.4837,63.776)">
                <path d="M-5.87,162C-4.27,150.373 -2.838,142.643 -1.347,136.876C-0.103,132.067 1.178,128.639 2.476,126.803C3.092,125.931 3.711,125.461 4.331,125.223C4.944,124.987 5.558,124.98 6.171,125.224C8.419,126.119 10.664,130.415 12.799,139.026L14.626,147.724L14.22,162L-2.275,162L-5.87,162Z" style="fill:rgb(95,144,95);"/>
            </g>
            <g transform="matrix(0.66915,0.619439,-0.0517008,0.0558499,84.4837,63.776)">
                <path d="M14.626,147.724C15.336,151.476 16.002,155.677 16.645,160.36L16.84,162L14.22,162L14.626,147.724Z" style="fill:rgb(71,124,95);"/>
            </g>
        </g>
    </g>
</svg>
